<?xml version="1.0" encoding="UTF-8"?>
<svg version="1.1" xmlns="http://www.w3.org/2000/svg" width="480" height="480">
<path d="M0 0 C158.4 0 316.8 0 480 0 C480 158.4 480 316.8 480 480 C321.6 480 163.2 480 0 480 C0 321.6 0 163.2 0 0 Z " fill="#F9CB45" transform="translate(0,0)"/>
<path d="M0 0 C3.79152334 -0.0867982 7.58279296 -0.14032207 11.375 -0.1875 C12.99535156 -0.22520508 12.99535156 -0.22520508 14.6484375 -0.26367188 C15.6796875 -0.27333984 16.7109375 -0.28300781 17.7734375 -0.29296875 C18.72653809 -0.3086792 19.67963867 -0.32438965 20.66162109 -0.34057617 C21.81911865 -0.17199097 21.81911865 -0.17199097 23 0 C26.86801352 5.80202027 26.02985427 11.87030608 25.0625 18.4375 C24.96259766 19.16904297 24.86269531 19.90058594 24.75976562 20.65429688 C24.51502767 22.43738769 24.25872147 24.21888442 24 26 C27.96 26 31.92 26 36 26 C36 18.08 36 10.16 36 2 C42.93 2 49.86 2 57 2 C57 9.92 57 17.84 57 26 C61.62 26 66.24 26 71 26 C71 31.94 71 37.88 71 44 C66.38 44 61.76 44 57 44 C57.11993664 48.07529387 57.24260556 52.15036093 57.37231445 56.2253418 C57.41560218 57.61135983 57.45728164 58.99742906 57.49731445 60.38354492 C57.55516584 62.37691798 57.61929776 64.37010565 57.68359375 66.36328125 C57.72025146 67.56251221 57.75690918 68.76174316 57.79467773 69.99731445 C57.87733025 73.04994349 57.87733025 73.04994349 59 76 C62.63 75.67 66.26 75.34 70 75 C72.05362055 80.08940744 73.43179252 84.54520815 74 90 C65.99546054 94.77193698 59.4659125 96.15275749 50 95 C43.49562926 92.3757582 39.80275581 88.30620056 37 82 C35.68095115 78.13546636 35.87355226 74.20537972 35.90234375 70.171875 C35.9037587 69.42286926 35.90517365 68.67386353 35.90663147 67.90216064 C35.91221341 65.51806588 35.92476255 63.13406622 35.9375 60.75 C35.94251734 59.13020969 35.94707984 57.51041791 35.95117188 55.890625 C35.96217692 51.92704688 35.97942909 47.96353955 36 44 C31.05 44.495 31.05 44.495 26 45 C25.98018066 46.47388184 25.96036133 47.94776367 25.93994141 49.46630859 C25.86403664 54.91944868 25.77529637 60.37231662 25.68261719 65.82519531 C25.64426473 68.18809651 25.60942308 70.55105734 25.578125 72.9140625 C25.53261034 76.3049048 25.47459381 79.69533424 25.4140625 83.0859375 C25.40251129 84.14743011 25.39096008 85.20892273 25.37905884 86.30258179 C25.35918915 87.28344757 25.33931946 88.26431335 25.31884766 89.27490234 C25.30552399 90.14094086 25.29220032 91.00697937 25.2784729 91.89926147 C25 94 25 94 23 96 C20.72509766 96.21118164 20.72509766 96.21118164 17.9140625 96.16015625 C16.90085937 96.14919922 15.88765625 96.13824219 14.84375 96.12695312 C13.7815625 96.10568359 12.719375 96.08441406 11.625 96.0625 C9.53392449 96.02798959 7.4427708 95.99786752 5.3515625 95.97265625 C4.42166504 95.95468994 3.49176758 95.93672363 2.53369141 95.91821289 C0.18665589 95.99397478 -1.75876358 96.32946885 -4 97 C-4 96.34 -4 95.68 -4 95 C-4.96486328 95.10828125 -4.96486328 95.10828125 -5.94921875 95.21875 C-24.59760087 97.13413304 -24.59760087 97.13413304 -31 95 C-30.90074219 94.18144531 -30.80148437 93.36289062 -30.69921875 92.51953125 C-31.11253583 87.68318465 -33.19586779 84.68705326 -35.8125 80.6875 C-36.26431641 79.95982422 -36.71613281 79.23214844 -37.18164062 78.48242188 C-39.70828125 74.20502398 -39.70828125 74.20502398 -44 72 C-48.40190486 76.39310105 -48.63954118 79.92267769 -48.75 85.8125 C-48.8325 88.514375 -48.915 91.21625 -49 94 C-56.26 94 -63.52 94 -71 94 C-71 63.97 -71 33.94 -71 3 C-63.74 3 -56.48 3 -49 3 C-48.67 18.84 -48.34 34.68 -48 51 C-47.67 50.34 -47.34 49.68 -47 49 C-46.34 49 -45.68 49 -45 49 C-44.77054687 48.47277344 -44.54109375 47.94554687 -44.3046875 47.40234375 C-42.56722445 44.20312286 -40.36409687 41.41849091 -38.125 38.5625 C-37.69058594 38.00240234 -37.25617188 37.44230469 -36.80859375 36.86523438 C-34.81901633 34.30507244 -32.81228927 31.77364294 -30.7421875 29.27734375 C-28.83088666 27.03476057 -28.83088666 27.03476057 -28 24 C-24.0833957 23.9419034 -20.16690237 23.90637107 -16.25 23.875 C-15.13882813 23.85824219 -14.02765625 23.84148437 -12.8828125 23.82421875 C-11.27792969 23.81455078 -11.27792969 23.81455078 -9.640625 23.8046875 C-8.65610352 23.79421387 -7.67158203 23.78374023 -6.65722656 23.77294922 C-3.94026889 24.00510382 -2.31887487 24.60963727 0 26 C0 25.01 0 24.02 0 23 C-0.66 23 -1.32 23 -2 23 C-1.86111494 19.72883268 -1.71269508 16.458166 -1.5625 13.1875 C-1.52318359 12.25873047 -1.48386719 11.32996094 -1.44335938 10.37304688 C-1.40146484 9.48037109 -1.35957031 8.58769531 -1.31640625 7.66796875 C-1.27974854 6.84578857 -1.24309082 6.0236084 -1.20532227 5.17651367 C-1 3 -1 3 0 0 Z " fill="#F8CA47" transform="translate(342,191)"/>
<path d="M0 0 C7.26 0 14.52 0 22 0 C22 10.23 22 20.46 22 31 C22.66 31 23.32 31 24 31 C24.33 30.01 24.66 29.02 25 28 C26.92578125 26.6484375 26.92578125 26.6484375 29.3125 25.375 C30.09238281 24.94960937 30.87226562 24.52421875 31.67578125 24.0859375 C38.65706124 20.82409576 47.53133123 20.69358591 54.859375 22.8359375 C63.53387026 26.84991201 69.75355011 33.05817874 73.30859375 41.921875 C76.65067496 51.96700045 76.51721954 65.33005854 72 75 C68.21432139 82.53387525 62.25669507 88.72726888 54.171875 91.6640625 C44.95252642 93.09007685 36.10916388 93.03621881 27.8203125 88.484375 C25.7934594 86.83157633 24.97579334 85.40353306 24 83 C23.34 83 22.68 83 22 83 C22 85.64 22 88.28 22 91 C14.74 91 7.48 91 0 91 C0 60.97 0 30.94 0 0 Z " fill="#1E1D1A" transform="translate(64,194)"/>
<path d="M0 0 C7.26 0 14.52 0 22 0 C22.33 15.84 22.66 31.68 23 48 C23.33 47.34 23.66 46.68 24 46 C24.66 46 25.32 46 26 46 C26.23074219 45.47148437 26.46148437 44.94296875 26.69921875 44.3984375 C28.4202834 41.22506303 30.5952308 38.45944722 32.8125 35.625 C33.23853516 35.07328125 33.66457031 34.5215625 34.10351562 33.953125 C34.96639091 32.84091661 35.84280771 31.73908726 36.73217773 30.64794922 C38.22368953 28.77598729 38.22368953 28.77598729 40.0234375 25.609375 C44.77376447 21.44504637 49.73193288 22.35929455 55.8125 22.625 C57.56723633 22.66560547 57.56723633 22.66560547 59.35742188 22.70703125 C62.24016135 22.77762895 65.11913571 22.87619426 68 23 C66.38182825 26.40829937 64.52234036 28.79530758 61.9375 31.5625 C57.07122425 36.86902041 52.48191595 42.36610566 48 48 C47.4121875 48.7115625 46.824375 49.423125 46.21875 50.15625 C44.70420499 52.00402003 44.70420499 52.00402003 45.375 54.625 C46.78655041 57.55668163 48.25721176 59.89046229 50.13671875 62.5234375 C53.98405134 67.96307767 57.72821366 73.46550928 61.4375 79 C62.39172852 80.40958984 62.39172852 80.40958984 63.36523438 81.84765625 C63.96529297 82.74355469 64.56535156 83.63945312 65.18359375 84.5625 C65.72556396 85.36816406 66.26753418 86.17382812 66.82592773 87.00390625 C68 89 68 89 68 91 C59.80741166 92.30717511 51.02410328 93.59991715 43 91 C37.19118696 86.07444644 34.05613886 78.94431096 31.13720703 72.04125977 C30.11295528 69.66273571 30.11295528 69.66273571 27 69 C22.59809514 73.39310105 22.36045882 76.92267769 22.25 82.8125 C22.1675 85.514375 22.085 88.21625 22 91 C14.74 91 7.48 91 0 91 C0 60.97 0 30.94 0 0 Z " fill="#1C1C1B" transform="translate(271,194)"/>
<path d="M0 0 C6.63371036 3.69434249 11.48370055 8.69582425 14.07177734 15.87353516 C15.46107741 20.90002215 15.25974792 25.93971618 15.20703125 31.1171875 C15.20420135 32.17269302 15.20137146 33.22819855 15.19845581 34.31568909 C15.1873129 37.66760879 15.16221899 41.01925559 15.13671875 44.37109375 C15.12668135 46.65168883 15.11755683 48.93228813 15.109375 51.21289062 C15.08909942 56.78664659 15.04993894 62.35981675 15.01171875 67.93359375 C7.75171875 67.93359375 0.49171875 67.93359375 -6.98828125 67.93359375 C-7.04435547 63.36451172 -7.04435547 63.36451172 -7.1015625 58.703125 C-7.14779585 55.74756762 -7.19902298 52.79213597 -7.25073242 49.83666992 C-7.28395208 47.78531559 -7.31199322 45.7338705 -7.3347168 43.68237305 C-7.36831695 40.73056426 -7.42063601 37.77958489 -7.4765625 34.828125 C-7.48295242 33.91335892 -7.48934235 32.99859283 -7.4959259 32.05610657 C-7.60730385 27.21415511 -7.83388004 23.86036189 -10.98828125 19.93359375 C-14.41747697 17.36169696 -17.82767611 17.43145175 -21.98828125 17.93359375 C-24.96067366 19.71835616 -27.41432152 21.7856743 -28.98828125 24.93359375 C-29.10554784 26.32177048 -29.16509531 27.71508089 -29.19360352 29.10791016 C-29.21354874 29.96865143 -29.23349396 30.8293927 -29.25404358 31.71621704 C-29.27911232 33.11159195 -29.27911232 33.11159195 -29.3046875 34.53515625 C-29.3254686 35.48675629 -29.34624969 36.43835632 -29.36766052 37.41879272 C-29.43316258 40.46531807 -29.49204405 43.51193118 -29.55078125 46.55859375 C-29.59396584 48.62110291 -29.63758011 50.68360312 -29.68164062 52.74609375 C-29.78965504 57.80850502 -29.88872359 62.87098076 -29.98828125 67.93359375 C-37.24828125 67.93359375 -44.50828125 67.93359375 -51.98828125 67.93359375 C-51.98828125 45.49359375 -51.98828125 23.05359375 -51.98828125 -0.06640625 C-44.72828125 -0.06640625 -37.46828125 -0.06640625 -29.98828125 -0.06640625 C-29.65828125 1.91359375 -29.32828125 3.89359375 -28.98828125 5.93359375 C-28.28703125 5.33546875 -27.58578125 4.73734375 -26.86328125 4.12109375 C-18.90087635 -1.9372578 -9.56664761 -3.41398013 0 0 Z " fill="#1E1D19" transform="translate(250.98828125,217.06640625)"/>
<path d="M0 0 C6.93 0 13.86 0 21 0 C21 7.92 21 15.84 21 24 C25.62 24 30.24 24 35 24 C35 29.94 35 35.88 35 42 C30.38 42 25.76 42 21 42 C21.11993664 46.07529387 21.24260556 50.15036093 21.37231445 54.2253418 C21.41560218 55.61135983 21.45728164 56.99742906 21.49731445 58.38354492 C21.55516584 60.37691798 21.61929776 62.37010565 21.68359375 64.36328125 C21.72025146 65.56251221 21.75690918 66.76174316 21.79467773 67.99731445 C21.87733025 71.04994349 21.87733025 71.04994349 23 74 C26.63 73.67 30.26 73.34 34 73 C36.05362055 78.08940744 37.43179252 82.54520815 38 88 C29.99546054 92.77193698 23.4659125 94.15275749 14 93 C7.49562926 90.3757582 3.80275581 86.30620056 1 80 C-0.31904885 76.13546636 -0.12644774 72.20537972 -0.09765625 68.171875 C-0.0962413 67.42286926 -0.09482635 66.67386353 -0.09336853 65.90216064 C-0.08778659 63.51806588 -0.07523745 61.13406622 -0.0625 58.75 C-0.05748266 57.13020969 -0.05292016 55.51041791 -0.04882812 53.890625 C-0.03782308 49.92704688 -0.02057091 45.96353955 0 42 C-2.97 42 -5.94 42 -9 42 C-9 36.06 -9 30.12 -9 24 C-6.03 24 -3.06 24 0 24 C0 16.08 0 8.16 0 0 Z " fill="#0F8320" transform="translate(378,193)"/>
<path d="M0 0 C7.26 0 14.52 0 22 0 C22 10.56 22 21.12 22 32 C19.525 32.495 19.525 32.495 17 33 C17 34.32 17 35.64 17 37 C17.99 37 18.98 37 20 37 C25.48571429 37.57142857 25.48571429 37.57142857 27.875 39.5625 C28.24625 40.036875 28.6175 40.51125 29 41 C27.76624269 43.57032774 26.44405456 45.8502695 24.875 48.25 C22.15490823 53.04836414 22.31177753 57.39262003 23.68359375 62.58984375 C24.20936157 64.30299153 24.7609015 66.00854696 25.34375 67.703125 C26 70 26 70 26 74 C27.32 74 28.64 74 30 74 C30.33 74.99 30.66 75.98 31 77 C30.01 77.495 30.01 77.495 29 78 C28.34786708 80.02463255 28.34786708 80.02463255 28 82 C27.34 82 26.68 82 26 82 C26 82.66 26 83.32 26 84 C24.68 83.67 23.36 83.34 22 83 C22 85.64 22 88.28 22 91 C14.74 91 7.48 91 0 91 C0 60.97 0 30.94 0 0 Z " fill="#1F1D18" transform="translate(64,194)"/>
<path d="M0 0 C7.59 0 15.18 0 23 0 C23 30.36 23 60.72 23 92 C15.41 92 7.82 92 0 92 C0 61.64 0 31.28 0 0 Z " fill="#1C1C1B" transform="translate(142,193)"/>
<path d="M0 0 C7.26 0 14.52 0 22 0 C22 22.44 22 44.88 22 68 C14.74 68 7.48 68 0 68 C0 45.56 0 23.12 0 0 Z " fill="#0C8321" transform="translate(343,217)"/>
<path d="M0 0 C7.26 0 14.52 0 22 0 C22 22.44 22 44.88 22 68 C14.74 68 7.48 68 0 68 C0 45.56 0 23.12 0 0 Z " fill="#1C1B1B" transform="translate(171,217)"/>
<path d="M0 0 C7.92 0 15.84 0 24 0 C25.10514766 3.31544299 25.32107631 6.20410111 25.5625 9.6875 C25.68818359 11.45673828 25.68818359 11.45673828 25.81640625 13.26171875 C25.87699219 14.16535156 25.93757813 15.06898438 26 16 C26.66 16 27.32 16 28 16 C28.144375 16.598125 28.28875 17.19625 28.4375 17.8125 C28.8872439 19.56150404 29.42892341 21.28677023 30 23 C31.32 23 32.64 23 34 23 C34 22.01 34 21.02 34 20 C34.66 20 35.32 20 36 20 C36 20.99 36 21.98 36 23 C40.95 23 45.9 23 51 23 C51 23.66 51 24.32 51 25 C43.74 25 36.48 25 29 25 C29 47.44 29 69.88 29 93 C36.26 93 43.52 93 51 93 C50.95359375 89.94234375 50.9071875 86.8846875 50.859375 83.734375 C50.82817827 80.77231506 50.80389111 77.81027344 50.78027344 74.84814453 C50.76016031 72.78979295 50.73286603 70.73149848 50.69824219 68.67333984 C50.64971117 65.71437487 50.62702834 62.75616539 50.609375 59.796875 C50.58872986 58.87694763 50.56808472 57.95702026 50.54681396 57.00921631 C50.54455959 50.58770048 50.54455959 50.58770048 53.02441406 47.38769531 C53.67635742 46.92975586 54.32830078 46.47181641 55 46 C54.84152588 46.62092529 54.68305176 47.24185059 54.51977539 47.8815918 C53.79698625 52.21798716 53.76379232 56.50482543 53.68359375 60.89453125 C53.66281265 61.84188644 53.64203156 62.78924164 53.62062073 63.76530457 C53.55542222 66.7809651 53.49637868 69.7967101 53.4375 72.8125 C53.39428652 74.86133674 53.35067134 76.91016504 53.30664062 78.95898438 C53.19977134 83.97257047 53.09842069 88.98624123 53 94 C50.45724451 95.27137774 48.65191799 95.129425 45.80859375 95.1328125 C44.78185547 95.13410156 43.75511719 95.13539063 42.69726562 95.13671875 C41.62154297 95.13285156 40.54582031 95.12898438 39.4375 95.125 C38.35791016 95.12886719 37.27832031 95.13273437 36.16601562 95.13671875 C35.14056641 95.13542969 34.11511719 95.13414062 33.05859375 95.1328125 C32.11298584 95.13168457 31.16737793 95.13055664 30.19311523 95.12939453 C28 95 28 95 27 94 C26.87624831 91.97585009 26.82202689 89.94742263 26.79467773 87.91967773 C26.77473251 86.61840439 26.75478729 85.31713104 26.73423767 83.97642517 C26.71725201 82.5454826 26.70037325 81.11453875 26.68359375 79.68359375 C26.66303094 78.2277008 26.64203466 76.77181391 26.62062073 75.31593323 C26.56533039 71.47727353 26.51595198 67.63855935 26.46777344 63.79980469 C26.41760909 59.88536712 26.36189664 55.97100904 26.30664062 52.05664062 C26.19897397 44.37116099 26.09754807 36.68561543 26 29 C25.98786972 30.15844925 25.98786972 30.15844925 25.97549438 31.34030151 C25.89763453 38.60960497 25.81037048 45.87870519 25.71247292 53.14776421 C25.6624733 56.88509262 25.61614389 60.62239226 25.578125 64.35986328 C25.54131805 67.96504325 25.49497123 71.56998459 25.44193649 75.17496109 C25.42336798 76.55206248 25.40826912 77.92921506 25.39665604 79.30639267 C25.37983626 81.23154401 25.34966518 83.15656483 25.31884766 85.08154297 C25.30552399 86.17852509 25.29220032 87.2755072 25.2784729 88.4057312 C25 91 25 91 23 93 C23 70.56 23 48.12 23 25 C15.74 25 8.48 25 1 25 C1 47.44 1 69.88 1 93 C0.67 93 0.34 93 0 93 C0.00222061 92.10019913 0.00444122 91.20039825 0.00672913 90.27333069 C0.02672944 81.81186033 0.0419728 73.35039786 0.05181217 64.88890934 C0.05704065 60.53831541 0.06413765 56.18774093 0.07543945 51.8371582 C0.08626959 47.64209742 0.0922771 43.44705541 0.09487724 39.25198174 C0.09673126 37.64793032 0.10035144 36.04387997 0.10573006 34.4398365 C0.11294219 32.20083485 0.11399087 29.9619117 0.11352539 27.72290039 C0.115746 26.44604874 0.11796661 25.16919708 0.12025452 23.85365295 C0.32668089 21.10111145 0.32668089 21.10111145 -1 20 C-1.10011296 17.01133358 -1.13873975 14.05089547 -1.125 11.0625 C-1.12886719 10.22525391 -1.13273438 9.38800781 -1.13671875 8.52539062 C-1.13542969 7.72423828 -1.13414062 6.92308594 -1.1328125 6.09765625 C-1.13168457 5.36039307 -1.13055664 4.62312988 -1.12939453 3.86352539 C-1 2 -1 2 0 0 Z " fill="#D9B753" transform="translate(170,192)"/>
<path d="M0 0 C4.69846802 1.98202794 7.59439129 4.62264676 10.03125 9.10546875 C11.97156291 14.25305688 12.01909405 18.87063414 9.7421875 23.90625 C6.89333403 28.53657648 4.25658654 31.79562712 -1.11328125 33.375 C-5.82471532 34.03714749 -9.11491114 33.86476647 -13.42578125 31.75 C-18.89770481 26.91434662 -20.78565058 22.65130672 -21.48828125 15.625 C-21.41320889 10.595152 -19.28865894 7.16199398 -16.11328125 3.375 C-11.08599981 -1.09369461 -6.31364174 -1.86725079 0 0 Z " fill="#F4C847" transform="translate(107.11328125,234.625)"/>
<path d="M0 0 C3.79152334 -0.0867982 7.58279296 -0.14032207 11.375 -0.1875 C12.45523438 -0.21263672 13.53546875 -0.23777344 14.6484375 -0.26367188 C15.6796875 -0.27333984 16.7109375 -0.28300781 17.7734375 -0.29296875 C18.72653809 -0.3086792 19.67963867 -0.32438965 20.66162109 -0.34057617 C21.43328613 -0.22818604 22.20495117 -0.1157959 23 0 C25.98798685 4.48198028 26.20445504 8.36880198 25.53930664 13.67553711 C24.65671826 21.10280269 24.76255827 28.5966605 24.68359375 36.06640625 C24.66298817 37.71264627 24.64199084 39.35888142 24.62062073 41.00511169 C24.56577184 45.31055736 24.51620068 49.61604778 24.46777344 53.92156982 C24.4172846 58.32600831 24.36174236 62.73038286 24.30664062 67.13476562 C24.19951478 75.75645614 24.09797119 84.37820062 24 93 C23.67 93 23.34 93 23 93 C23 70.89 23 48.78 23 26 C15.74 26 8.48 26 1 26 C1 48.44 1 70.88 1 94 C0.67 94 0.34 94 0 94 C-0.33 72.55 -0.66 51.1 -1 29 C-2.65 30.32 -4.3 31.64 -6 33 C-6.66 32.67 -7.32 32.34 -8 32 C-6.35 30.02 -4.7 28.04 -3 26 C-11.25 26 -19.5 26 -28 26 C-28 25.34 -28 24.68 -28 24 C-24.0833957 23.9419034 -20.16690237 23.90637107 -16.25 23.875 C-15.13882812 23.85824219 -14.02765625 23.84148437 -12.8828125 23.82421875 C-11.27792969 23.81455078 -11.27792969 23.81455078 -9.640625 23.8046875 C-8.65610352 23.79421387 -7.67158203 23.78374023 -6.65722656 23.77294922 C-3.94026889 24.00510382 -2.31887487 24.60963727 0 26 C0 25.01 0 24.02 0 23 C-0.66 23 -1.32 23 -2 23 C-1.86111494 19.72883268 -1.71269508 16.458166 -1.5625 13.1875 C-1.52318359 12.25873047 -1.48386719 11.32996094 -1.44335938 10.37304688 C-1.40146484 9.48037109 -1.35957031 8.58769531 -1.31640625 7.66796875 C-1.27974854 6.84578857 -1.24309082 6.0236084 -1.20532227 5.17651367 C-1 3 -1 3 0 0 Z " fill="#CDC74D" transform="translate(342,191)"/>
<path d="M0 0 C7.59 0 15.18 0 23 0 C23 0.33 23 0.66 23 1 C15.74 1 8.48 1 1 1 C1 31.03 1 61.06 1 92 C8.26 92 15.52 92 23 92 C22.80344826 86.6742025 22.80344826 86.6742025 22.54956055 81.35107422 C22.47242114 77.17957413 22.79790235 74.71126718 25.51953125 71.4453125 C26.33808594 70.63835937 27.15664063 69.83140625 28 69 C31.29148243 70.13499394 31.9959869 70.99283376 33.75 74.125 C34.36875 75.548125 34.36875 75.548125 35 77 C32.6875 78.125 32.6875 78.125 30 79 C29.01 78.34 28.02 77.68 27 77 C25.14314595 78.85685405 25.65322537 81.93937929 25.5 84.4375 C25.11013767 90.77972466 25.11013767 90.77972466 24 93 C22.78098999 92.99214478 22.78098999 92.99214478 21.53735352 92.98413086 C17.87907678 92.96343006 14.22081233 92.95036197 10.5625 92.9375 C9.28310547 92.92912109 8.00371094 92.92074219 6.68554688 92.91210938 C4.86313477 92.90727539 4.86313477 92.90727539 3.00390625 92.90234375 C1.87799072 92.89710693 0.7520752 92.89187012 -0.40795898 92.88647461 C-2.92970871 92.70454552 -2.92970871 92.70454552 -4 94 C-5.56172745 94.08685603 -7.12729344 94.10702219 -8.69140625 94.09765625 C-9.63564453 94.09443359 -10.57988281 94.09121094 -11.55273438 94.08789062 C-12.54595703 94.07951172 -13.53917969 94.07113281 -14.5625 94.0625 C-15.55958984 94.05798828 -16.55667969 94.05347656 -17.58398438 94.04882812 C-20.05604849 94.03700007 -22.52799518 94.02051849 -25 94 C-25.33 93.34 -25.66 92.68 -26 92 C-18.74 92 -11.48 92 -4 92 C-4.0742687 85.34654918 -4.15734519 78.69437633 -4.26245117 72.04150391 C-4.29555377 69.78180733 -4.32363059 67.52203099 -4.34643555 65.26220703 C-4.38025217 61.9999821 -4.43258116 58.73847861 -4.48828125 55.4765625 C-4.49467117 54.47823395 -4.5010611 53.4799054 -4.50764465 52.45132446 C-4.64345846 45.86281731 -5.78033972 40.20426595 -8 34 C-6.515 34.495 -6.515 34.495 -5 35 C-4.05078125 37.72265625 -4.05078125 37.72265625 -3.3125 41.0625 C-3.06113281 42.16722656 -2.80976563 43.27195313 -2.55078125 44.41015625 C-2.36902344 45.26480469 -2.18726563 46.11945313 -2 47 C-1.97494385 45.71834961 -1.9498877 44.43669922 -1.92407227 43.11621094 C-1.82988405 38.3600875 -1.7296911 33.60410621 -1.62768555 28.84814453 C-1.58437991 26.78991013 -1.54270171 24.73164082 -1.50268555 22.67333984 C-1.44487725 19.71441121 -1.38121304 16.7556576 -1.31640625 13.796875 C-1.29133751 12.41698395 -1.29133751 12.41698395 -1.26576233 11.00921631 C-1.24581711 10.1486261 -1.22587189 9.28803589 -1.20532227 8.40136719 C-1.18977798 7.64635925 -1.1742337 6.89135132 -1.15821838 6.11346436 C-1 4 -1 4 0 0 Z " fill="#F0CA59" transform="translate(270,193)"/>
<path d="M0 0 C7.59 0 15.18 0 23 0 C23 30.36 23 60.72 23 92 C15.41 92 7.82 92 0 92 C0 61.64 0 31.28 0 0 Z M2 2 C2.00523682 4.31684814 2.01047363 6.63369629 2.01586914 9.02075195 C2.03242515 16.66823781 2.04347931 24.31572444 2.05181217 31.96322346 C2.05703489 36.60073607 2.06412151 41.23823036 2.07543945 45.87573242 C2.08628996 50.34960803 2.09228145 54.82346599 2.09487724 59.29735374 C2.09672758 61.00581325 2.10034071 62.71427177 2.10573006 64.42272377 C2.11296916 66.81219205 2.11398972 69.201587 2.11352539 71.59106445 C2.11712067 72.30028549 2.12071594 73.00950653 2.12442017 73.74021912 C2.11801416 76.77863698 1.96941367 79.09175899 1 82 C1.33 84.64 1.66 87.28 2 90 C8.27 90 14.54 90 21 90 C21 60.96 21 31.92 21 2 C14.73 2 8.46 2 2 2 Z " fill="#473913" transform="translate(142,193)"/>
<path d="M0 0 C7.26 0 14.52 0 22 0 C22 5.94 22 11.88 22 18 C14.74 18 7.48 18 0 18 C0 12.06 0 6.12 0 0 Z " fill="#1C1B1A" transform="translate(171,193)"/>
<path d="M0 0 C7.26 0 14.52 0 22 0 C22 5.61 22 11.22 22 17 C14.74 17 7.48 17 0 17 C0 11.39 0 5.78 0 0 Z " fill="#0B8421" transform="translate(343,194)"/>
<path d="M0 0 C7.26 0 14.52 0 22 0 C22 22.44 22 44.88 22 68 C14.74 68 7.48 68 0 68 C0 45.56 0 23.12 0 0 Z M2 2 C1.67 23.12 1.34 44.24 1 66 C7.27 66 13.54 66 20 66 C20 44.88 20 23.76 20 2 C14.06 2 8.12 2 2 2 Z " fill="#318013" transform="translate(343,217)"/>
<path d="M0 0 C0.99 0 1.98 0 3 0 C3.02683987 2.97922593 3.04676037 5.95821295 3.0625 8.9375 C3.07087891 9.78763672 3.07925781 10.63777344 3.08789062 11.51367188 C3.09111328 12.32255859 3.09433594 13.13144531 3.09765625 13.96484375 C3.10289307 14.7137085 3.10812988 15.46257324 3.11352539 16.23413086 C3 18 3 18 2 19 C1.88787403 20.52358716 1.84326828 22.05221948 1.82641602 23.57983398 C1.81292618 24.55431992 1.79943634 25.52880585 1.78553772 26.53282166 C1.77509933 27.59320145 1.76466095 28.65358124 1.75390625 29.74609375 C1.72097341 31.9668009 1.68776167 34.18750393 1.65429688 36.40820312 C1.60680261 39.92843836 1.56237583 43.44865619 1.52319336 46.96899414 C1.48361331 50.35320653 1.43203767 53.73707089 1.37890625 57.12109375 C1.3704921 58.17944931 1.36207794 59.23780487 1.35340881 60.32823181 C1.33676682 61.3058699 1.32012482 62.283508 1.30297852 63.29077148 C1.29267105 64.15379379 1.28236359 65.0168161 1.27174377 65.9059906 C1 68 1 68 -1 70 C-3.27490234 70.21118164 -3.27490234 70.21118164 -6.0859375 70.16015625 C-7.09914063 70.14919922 -8.11234375 70.13824219 -9.15625 70.12695312 C-10.2184375 70.10568359 -11.280625 70.08441406 -12.375 70.0625 C-14.46607551 70.02798959 -16.5572292 69.99786752 -18.6484375 69.97265625 C-19.57833496 69.95468994 -20.50823242 69.93672363 -21.46630859 69.91821289 C-23.81334411 69.99397478 -25.75876358 70.32946885 -28 71 C-28 70.34 -28 69.68 -28 69 C-28.96486328 69.10828125 -28.96486328 69.10828125 -29.94921875 69.21875 C-48.59760087 71.13413304 -48.59760087 71.13413304 -55 69 C-54.67 67.68 -54.34 66.36 -54 65 C-53.34 65.33 -52.68 65.66 -52 66 C-52 66.66 -52 67.32 -52 68 C-43.75 68 -35.5 68 -27 68 C-30.28597096 63.15013283 -30.28597096 63.15013283 -33.58203125 58.30712891 C-33.98808594 57.70304199 -34.39414062 57.09895508 -34.8125 56.4765625 C-35.44091797 55.549646 -35.44091797 55.549646 -36.08203125 54.60400391 C-37 53 -37 53 -37 51 C-36.01 51 -35.02 51 -34 51 C-33.319375 52.4540625 -33.319375 52.4540625 -32.625 53.9375 C-31.34213779 57.07079582 -31.34213779 57.07079582 -29 58 C-28.33333333 59.66666667 -27.66666667 61.33333333 -27 63 C-26.34 63.33 -25.68 63.66 -25 64 C-25 43.21 -25 22.42 -25 1 C-24.67 1 -24.34 1 -24 1 C-24 23.11 -24 45.22 -24 68 C-16.41 67.67 -8.82 67.34 -1 67 C-0.67 44.89 -0.34 22.78 0 0 Z " fill="#DDD558" transform="translate(366,217)"/>
<path d="M0 0 C7.26 0 14.52 0 22 0 C22 22.44 22 44.88 22 68 C14.74 68 7.48 68 0 68 C0 45.56 0 23.12 0 0 Z M1 2 C0.97744575 10.1969097 0.95908304 18.39379545 0.94818783 26.59072781 C0.9429598 30.39651577 0.93586362 34.20228148 0.92456055 38.00805664 C0.9137288 41.67792544 0.90772256 45.34777278 0.90512276 49.01765633 C0.90326903 50.42074992 0.8996494 51.82384229 0.89426994 53.2269268 C0.88705581 55.1856968 0.88659191 57.1444882 0.88647461 59.10327148 C0.884254 60.22023911 0.88203339 61.33720673 0.87974548 62.48802185 C0.71489224 64.93905414 0.71489224 64.93905414 2 66 C7.94 66 13.88 66 20 66 C20 44.88 20 23.76 20 2 C13.73 2 7.46 2 1 2 Z " fill="#362A06" transform="translate(171,217)"/>
<path d="M0 0 C6.93 0 13.86 0 21 0 C21 7.92 21 15.84 21 24 C25.62 24 30.24 24 35 24 C35 29.94 35 35.88 35 42 C30.38 42 25.76 42 21 42 C21 41.67 21 41.34 21 41 C25.29 41 29.58 41 34 41 C34 36.05 34 31.1 34 26 C30.5659375 26.0309375 30.5659375 26.0309375 27.0625 26.0625 C24.70833668 26.08370868 22.35313555 26.07271741 20 26 C19 25 19 25 18.88647461 22.77514648 C18.89171143 21.81680908 18.89694824 20.85847168 18.90234375 19.87109375 C18.90556641 18.83662109 18.90878906 17.80214844 18.91210938 16.73632812 C18.92048828 15.64771484 18.92886719 14.55910156 18.9375 13.4375 C18.94201172 12.34501953 18.94652344 11.25253906 18.95117188 10.12695312 C18.9630016 7.41794568 18.98093769 4.7089662 19 2 C13.39 2 7.78 2 2 2 C2.40528082 7.28055245 2.40528082 7.28055245 2.83837891 12.55883789 C3.17507733 17.52662678 2.63752679 21.29367301 1 26 C-1.64 26 -4.28 26 -7 26 C-7 30.62 -7 35.24 -7 40 C-5.02 40 -3.04 40 -1 40 C-0.67 40.66 -0.34 41.32 0 42 C-2.97 42 -5.94 42 -9 42 C-9 36.06 -9 30.12 -9 24 C-6.03 24 -3.06 24 0 24 C0 16.08 0 8.16 0 0 Z " fill="#45871B" transform="translate(378,193)"/>
<path d="M0 0 C7.26 0 14.52 0 22 0 C22 16.17 22 32.34 22 49 C21.34 49 20.68 49 20 49 C20 33.49 20 17.98 20 2 C13.73 1.67 7.46 1.34 1 1 C1 30.37 1 59.74 1 90 C7.6 90 14.2 90 21 90 C21 84.72 21 79.44 21 74 C21.33 74 21.66 74 22 74 C22 79.61 22 85.22 22 91 C14.74 91 7.48 91 0 91 C0 60.97 0 30.94 0 0 Z " fill="#392903" transform="translate(271,194)"/>
<path d="M0 0 C2.14782833 3.22174249 2.24649148 4.0433731 2.22705078 7.74682617 C2.22689972 8.70759567 2.22674866 9.66836517 2.22659302 10.6582489 C2.21627045 11.69270645 2.20594788 12.727164 2.1953125 13.79296875 C2.1924826 14.85413406 2.18965271 15.91529938 2.18673706 17.00862122 C2.17553184 20.40169497 2.15042647 23.79450587 2.125 27.1875 C2.11497065 29.48632432 2.10584472 31.78515276 2.09765625 34.08398438 C2.07729202 39.72283928 2.03814346 45.361125 2 51 C-5.26 51 -12.52 51 -20 51 C-20.03738281 47.95394531 -20.07476562 44.90789062 -20.11328125 41.76953125 C-20.1595146 38.81397387 -20.21074173 35.85854222 -20.26245117 32.90307617 C-20.29567083 30.85172184 -20.32371197 28.80027675 -20.34643555 26.7487793 C-20.3800357 23.79697051 -20.43235476 20.84599114 -20.48828125 17.89453125 C-20.49467117 16.97976517 -20.5010611 16.06499908 -20.50764465 15.12251282 C-20.64817092 9.01339168 -21.56081598 5.43918402 -26 1 C-23.625 0.875 -23.625 0.875 -21 1 C-17.603718 4.396282 -17.95113267 8.75582051 -17.88647461 13.35302734 C-17.88663135 15.01400581 -17.89218641 16.67499008 -17.90234375 18.3359375 C-17.9037587 19.21528961 -17.90517365 20.09464172 -17.90663147 21.00064087 C-17.91220123 23.79212942 -17.9247481 26.58353594 -17.9375 29.375 C-17.94251891 31.27473842 -17.94708113 33.1744781 -17.95117188 35.07421875 C-17.96130721 39.71620239 -17.98088842 44.35801003 -18 49 C-12.06 49 -6.12 49 0 49 C0 32.83 0 16.66 0 0 Z " fill="#42360E" transform="translate(264,234)"/>
<path d="M0 0 C7.59 0 15.18 0 23 0 C23 0.33 23 0.66 23 1 C15.74 1 8.48 1 1 1 C1 31.03 1 61.06 1 92 C8.26 92 15.52 92 23 92 C22.80344826 86.6742025 22.80344826 86.6742025 22.54956055 81.35107422 C22.47242114 77.17957413 22.79790235 74.71126718 25.51953125 71.4453125 C26.33808594 70.63835937 27.15664063 69.83140625 28 69 C31.29148243 70.13499394 31.9959869 70.99283376 33.75 74.125 C34.36875 75.548125 34.36875 75.548125 35 77 C32.6875 78.125 32.6875 78.125 30 79 C28.515 78.01 28.515 78.01 27 77 C25.14314595 78.85685405 25.65322537 81.93937929 25.5 84.4375 C25.11013767 90.77972466 25.11013767 90.77972466 24 93 C16.08 93 8.16 93 0 93 C0 62.31 0 31.62 0 0 Z " fill="#C1A34D" transform="translate(270,193)"/>
<path d="M0 0 C0.33 0 0.66 0 1 0 C1 30.36 1 60.72 1 92 C0.67 92 0.34 92 0 92 C0 83.75 0 75.5 0 67 C-0.66 67 -1.32 67 -2 67 C-2.03867188 65.24236328 -2.03867188 65.24236328 -2.078125 63.44921875 C-2.46597899 51.23311973 -3.36180264 40.89039211 -12.203125 31.65234375 C-17.97058995 26.34878359 -23.55980266 23.88616686 -31.3125 23.375 C-32.38113281 23.30023438 -33.44976562 23.22546875 -34.55078125 23.1484375 C-35.35902344 23.09945312 -36.16726562 23.05046875 -37 23 C-35 21 -35 21 -32.50390625 20.734375 C-31.04791016 20.74210937 -31.04791016 20.74210937 -29.5625 20.75 C-28.59441406 20.74484375 -27.62632813 20.7396875 -26.62890625 20.734375 C-24 21 -24 21 -21 23 C-19.80375 23.165 -18.6075 23.33 -17.375 23.5 C-16.26125 23.665 -15.1475 23.83 -14 24 C-13.67 24.66 -13.34 25.32 -13 26 C-12.1028125 26.556875 -12.1028125 26.556875 -11.1875 27.125 C-8.04553163 29.81811574 -6.52194781 33.18703501 -5 37 C-5 37.66 -5 38.32 -5 39 C-4.34 39 -3.68 39 -3 39 C-2.34 41.64 -1.68 44.28 -1 47 C-0.67 31.49 -0.34 15.98 0 0 Z " fill="#DCBB5B" transform="translate(141,193)"/>
<path d="M0 0 C0.33 0 0.66 0 1 0 C1 22.44 1 44.88 1 68 C8.59 68 16.18 68 24 68 C23.95359375 64.94234375 23.9071875 61.8846875 23.859375 58.734375 C23.82817827 55.77231506 23.80389111 52.81027344 23.78027344 49.84814453 C23.76016031 47.78979295 23.73286603 45.73149848 23.69824219 43.67333984 C23.64971117 40.71437487 23.62702834 37.75616539 23.609375 34.796875 C23.58872986 33.87694763 23.56808472 32.95702026 23.54681396 32.00921631 C23.54455959 25.58770048 23.54455959 25.58770048 26.02441406 22.38769531 C26.67635742 21.92975586 27.32830078 21.47181641 28 21 C27.76228882 21.93138794 27.76228882 21.93138794 27.51977539 22.8815918 C26.79698625 27.21798716 26.76379232 31.50482543 26.68359375 35.89453125 C26.66281265 36.84188644 26.64203156 37.78924164 26.62062073 38.76530457 C26.55542222 41.7809651 26.49637868 44.7967101 26.4375 47.8125 C26.39428652 49.86133674 26.35067134 51.91016504 26.30664062 53.95898438 C26.19977134 58.97257047 26.09842069 63.98624123 26 69 C23.45724451 70.27137774 21.65191799 70.129425 18.80859375 70.1328125 C17.78185547 70.13410156 16.75511719 70.13539063 15.69726562 70.13671875 C14.62154297 70.13285156 13.54582031 70.12898438 12.4375 70.125 C11.35791016 70.12886719 10.27832031 70.13273437 9.16601562 70.13671875 C8.14056641 70.13542969 7.11511719 70.13414062 6.05859375 70.1328125 C5.11298584 70.13168457 4.16737793 70.13055664 3.19311523 70.12939453 C1 70 1 70 0 69 C-0.09425595 66.85256451 -0.11742648 64.70198974 -0.11352539 62.55249023 C-0.11367142 61.87934784 -0.11381744 61.20620544 -0.1139679 60.51266479 C-0.11326878 58.27794216 -0.10547652 56.0433019 -0.09765625 53.80859375 C-0.09579206 52.26302638 -0.09436816 50.71745843 -0.09336853 49.17189026 C-0.0895434 45.09642923 -0.07971317 41.02100363 -0.06866455 36.94555664 C-0.05845032 32.78988118 -0.05387089 28.63420001 -0.04882812 24.47851562 C-0.03809089 16.31899413 -0.02101454 8.15950147 0 0 Z " fill="#EFCB5C" transform="translate(197,217)"/>
<path d="M0 0 C0.99 0.495 0.99 0.495 2 1 C2.33 12.22 2.66 23.44 3 35 C3.66 35.33 4.32 35.66 5 36 C5 36.99 5 37.98 5 39 C5.99 39.33 6.98 39.66 8 40 C6.7260411 42.03833424 5.38938077 44.03852126 4 46 C3.34 46 2.68 46 2 46 C1.67 46.99 1.34 47.98 1 49 C0.67 49 0.34 49 0 49 C0 32.83 0 16.66 0 0 Z " fill="#E2BF5A" transform="translate(293,194)"/>
<path d="M0 0 C7.26 0 14.52 0 22 0 C22 5.94 22 11.88 22 18 C14.74 18 7.48 18 0 18 C0 12.06 0 6.12 0 0 Z M1 3 C0.92741054 5.18639453 0.91626217 7.37500389 0.9375 9.5625 C0.958125 11.686875 0.97875 13.81125 1 16 C7.27 16 13.54 16 20 16 C20 11.38 20 6.76 20 2 C17.02077407 1.97316013 14.04178705 1.95323963 11.0625 1.9375 C10.21236328 1.92912109 9.36222656 1.92074219 8.48632812 1.91210938 C7.67744141 1.90888672 6.86855469 1.90566406 6.03515625 1.90234375 C5.2862915 1.89710693 4.53742676 1.89187012 3.76586914 1.88647461 C1.97332261 1.80658248 1.97332261 1.80658248 1 3 Z " fill="#42330C" transform="translate(171,193)"/>
<path d="M0 0 C0.99 0 1.98 0 3 0 C3.02683987 2.97922593 3.04676037 5.95821295 3.0625 8.9375 C3.07087891 9.78763672 3.07925781 10.63777344 3.08789062 11.51367188 C3.09272461 12.72700195 3.09272461 12.72700195 3.09765625 13.96484375 C3.10551147 15.08814087 3.10551147 15.08814087 3.11352539 16.23413086 C3 18 3 18 2 19 C1.88787403 20.52358716 1.84326828 22.05221948 1.82641602 23.57983398 C1.81292618 24.55431992 1.79943634 25.52880585 1.78553772 26.53282166 C1.77509933 27.59320145 1.76466095 28.65358124 1.75390625 29.74609375 C1.72097341 31.9668009 1.68776167 34.18750393 1.65429688 36.40820312 C1.60680261 39.92843836 1.56237583 43.44865619 1.52319336 46.96899414 C1.48361331 50.35320653 1.43203767 53.73707089 1.37890625 57.12109375 C1.3704921 58.17944931 1.36207794 59.23780487 1.35340881 60.32823181 C1.33676682 61.3058699 1.32012482 62.283508 1.30297852 63.29077148 C1.29267105 64.15379379 1.28236359 65.0168161 1.27174377 65.9059906 C1 68 1 68 -1 70 C-3.15478516 70.22705078 -3.15478516 70.22705078 -5.7890625 70.1953125 C-6.73007812 70.18886719 -7.67109375 70.18242187 -8.640625 70.17578125 C-9.62546875 70.15902344 -10.6103125 70.14226562 -11.625 70.125 C-13.11386719 70.11146484 -13.11386719 70.11146484 -14.6328125 70.09765625 C-17.08878134 70.07404116 -19.54427168 70.04110799 -22 70 C-22 69.67 -22 69.34 -22 69 C-21.39937744 68.97494385 -20.79875488 68.9498877 -20.17993164 68.92407227 C-17.47388563 68.8084472 -14.76821717 68.68557064 -12.0625 68.5625 C-11.11697266 68.52318359 -10.17144531 68.48386719 -9.19726562 68.44335938 C-8.29814453 68.40146484 -7.39902344 68.35957031 -6.47265625 68.31640625 C-5.64000244 68.27974854 -4.80734863 68.24309082 -3.94946289 68.20532227 C-1.99661142 68.20632897 -1.99661142 68.20632897 -1 67 C-0.8761366 64.9145818 -0.82200933 62.82499859 -0.79467773 60.73608398 C-0.77982834 59.7556311 -0.77982834 59.7556311 -0.76467896 58.75537109 C-0.73298366 56.58564936 -0.70827508 54.4159057 -0.68359375 52.24609375 C-0.66303113 50.74536048 -0.64203485 49.2446331 -0.62062073 47.74391174 C-0.56532845 43.78688307 -0.51595089 39.82980151 -0.46777344 35.87268066 C-0.4176105 31.8375984 -0.36189732 27.80259328 -0.30664062 23.76757812 C-0.1989716 15.84511723 -0.09754621 7.92259196 0 0 Z " fill="#E5D050" transform="translate(366,217)"/>
<path d="M0 0 C6.6 0 13.2 0 20 0 C20 7.59 20 15.18 20 23 C24.62 23 29.24 23 34 23 C34 28.94 34 34.88 34 41 C29.38 41 24.76 41 20 41 C20 40.67 20 40.34 20 40 C24.29 40 28.58 40 33 40 C33 35.05 33 30.1 33 25 C29.5659375 25.0309375 29.5659375 25.0309375 26.0625 25.0625 C23.70833668 25.08370868 21.35313555 25.07271741 19 25 C18 24 18 24 17.88647461 21.77514648 C17.89171143 20.81680908 17.89694824 19.85847168 17.90234375 18.87109375 C17.90556641 17.83662109 17.90878906 16.80214844 17.91210938 15.73632812 C17.92048828 14.64771484 17.92886719 13.55910156 17.9375 12.4375 C17.94201172 11.34501953 17.94652344 10.25253906 17.95117188 9.12695312 C17.9630016 6.41794568 17.98093769 3.7089662 18 1 C12.06 1 6.12 1 0 1 C0 0.67 0 0.34 0 0 Z " fill="#337F13" transform="translate(379,194)"/>
<path d="M0 0 C6.93 0 13.86 0 21 0 C21 16.17 21 32.34 21 49 C20.34 49 19.68 49 19 49 C19 33.49 19 17.98 19 2 C12.73 1.67 6.46 1.34 0 1 C0 0.67 0 0.34 0 0 Z " fill="#312609" transform="translate(272,194)"/>
<path d="M0 0 C7.26 0 14.52 0 22 0 C22 5.61 22 11.22 22 17 C14.74 17 7.48 17 0 17 C0 11.39 0 5.78 0 0 Z M1 1 C1 5.62 1 10.24 1 15 C7.27 15 13.54 15 20 15 C20 10.38 20 5.76 20 1 C13.73 1 7.46 1 1 1 Z " fill="#347F11" transform="translate(343,194)"/>
<path d="M0 0 C0.33 0.99 0.66 1.98 1 3 C0.67 3.66 0.34 4.32 0 5 C-0.13297178 7.8799331 -0.21000099 10.73964522 -0.24609375 13.62109375 C-0.27902699 15.37826029 -0.31223872 17.13542162 -0.34570312 18.89257812 C-0.39316391 21.66866535 -0.43760211 24.44473068 -0.47680664 27.22094727 C-0.51647373 29.89621908 -0.56802609 32.57105896 -0.62109375 35.24609375 C-0.6295079 36.07741318 -0.63792206 36.9087326 -0.64659119 37.76524353 C-0.73047347 41.66715311 -0.78837678 43.68256517 -3 47 C-3.07416805 40.9494088 -3.12861087 34.89908235 -3.16479492 28.84814453 C-3.1798795 26.78982941 -3.20034987 24.73154642 -3.22631836 22.67333984 C-3.26271585 19.71443756 -3.27972966 16.75596033 -3.29296875 13.796875 C-3.30845261 12.87694763 -3.32393646 11.95702026 -3.33988953 11.00921631 C-3.34158031 4.58770048 -3.34158031 4.58770048 -1.48168945 1.38769531 C-0.99273193 0.92975586 -0.50377441 0.47181641 0 0 Z " fill="#D8B85B" transform="translate(224,238)"/>
<path d="M0 0 C0.66 0 1.32 0 2 0 C2 6.93 2 13.86 2 21 C8.435 20.505 8.435 20.505 15 20 C15 26.93 15 33.86 15 41 C14.67 41 14.34 41 14 41 C14 35.06 14 29.12 14 23 C9.38 23 4.76 23 0 23 C0 15.41 0 7.82 0 0 Z " fill="#C1C84C" transform="translate(399,194)"/>
<path d="M0 0 C0.33 0 0.66 0 1 0 C1.03758423 1.20329956 1.03758423 1.20329956 1.07592773 2.4309082 C1.19182043 6.05827074 1.31457751 9.68536917 1.4375 13.3125 C1.47681641 14.57513672 1.51613281 15.83777344 1.55664062 17.13867188 C1.59853516 18.34716797 1.64042969 19.55566406 1.68359375 20.80078125 C1.72025146 21.91622314 1.75690918 23.03166504 1.79467773 24.1809082 C1.88931209 27.07873571 1.88931209 27.07873571 3 30 C6.63 29.67 10.26 29.34 14 29 C16.05362055 34.08940744 17.43179252 38.54520815 18 44 C17.34 44 16.68 44 16 44 C15.87625 43.030625 15.7525 42.06125 15.625 41.0625 C15.41875 40.051875 15.2125 39.04125 15 38 C14.34 37.67 13.68 37.34 13 37 C13 35.35 13 33.7 13 32 C12.39671875 32.04640625 11.7934375 32.0928125 11.171875 32.140625 C4.5841785 32.43813387 4.5841785 32.43813387 1.5 30.125 C-1.06493759 26.49133841 -1.07248311 24.54794664 -0.87890625 20.1171875 C-0.80639648 18.36728516 -0.80639648 18.36728516 -0.73242188 16.58203125 C-0.67634766 15.35871094 -0.62027344 14.13539063 -0.5625 12.875 C-0.48418945 11.02841797 -0.48418945 11.02841797 -0.40429688 9.14453125 C-0.2743256 6.09611412 -0.13934981 3.0480005 0 0 Z " fill="#398215" transform="translate(398,237)"/>
<path d="M0 0 C4.62 0 9.24 0 14 0 C14 0.33 14 0.66 14 1 C10.04 1 6.08 1 2 1 C2 10.24 2 19.48 2 29 C4.97 29.33 7.94 29.66 11 30 C11 30.66 11 31.32 11 32 C9.54257537 32.08096803 8.08387193 32.13917774 6.625 32.1875 C5.81289063 32.22230469 5.00078125 32.25710938 4.1640625 32.29296875 C3.44992187 32.19628906 2.73578125 32.09960938 2 32 C-0.42204038 28.36693942 -0.23302891 26.68180977 -0.1953125 22.36328125 C-0.18886719 21.06455078 -0.18242187 19.76582031 -0.17578125 18.42773438 C-0.1590706 17.05598693 -0.14214071 15.68424214 -0.125 14.3125 C-0.11496674 12.92904282 -0.10584149 11.54557873 -0.09765625 10.16210938 C-0.07405037 6.77466543 -0.03817883 3.38731105 0 0 Z " fill="#C2CA52" transform="translate(399,235)"/>
<path d="M0 0 C2.97 0 5.94 0 9 0 C9.01401855 1.46638916 9.01401855 1.46638916 9.02832031 2.96240234 C9.0685835 6.63439354 9.13443666 10.30557843 9.20751953 13.97705078 C9.23552079 15.55767355 9.25683764 17.13843091 9.27099609 18.71923828 C9.3309468 33.68657679 9.3309468 33.68657679 16.25 46.625 C16.8275 47.07875 17.405 47.5325 18 48 C14.46992539 47.34628248 11.80150218 46.27148825 9 44 C7.92524787 38.81118711 7.86613796 33.71187381 7.90234375 28.44140625 C7.9037587 27.65225327 7.90517365 26.86310028 7.90663147 26.05003357 C7.91218445 23.55414885 7.92472792 21.05835715 7.9375 18.5625 C7.94252109 16.86002735 7.94708293 15.15755327 7.95117188 13.45507812 C7.96213842 9.30335012 7.97937009 5.15169078 8 1 C5.36 1 2.72 1 0 1 C0 0.67 0 0.34 0 0 Z " fill="#C5CD50" transform="translate(369,235)"/>
<path d="M0 0 C0.33 0 0.66 0 1 0 C2.15316726 6.34241995 2.09507063 12.56688704 2 19 C0.02 19.99 0.02 19.99 -2 21 C-2.33 19.68 -2.66 18.36 -3 17 C-3.99 17 -4.98 17 -6 17 C-4.87114558 14.13444648 -3.69345961 11.31334952 -2.4375 8.5 C-1.24344131 5.59272667 -0.4677675 3.0872655 0 0 Z " fill="#EAC14E" transform="translate(138,259)"/>
<path d="M0 0 C0.33 0.99 0.66 1.98 1 3 C0.05377841 4.37202131 -0.95884159 5.69855198 -2 7 C-2.6496875 8.3921875 -2.6496875 8.3921875 -3.3125 9.8125 C-5.83735803 14.58167627 -8.74701242 19.24900414 -14 21 C-15.21869929 23.50447516 -15.21869929 23.50447516 -16 26 C-16.99 25.34 -17.98 24.68 -19 24 C-18.67 23.34 -18.34 22.68 -18 22 C-17.34 22 -16.68 22 -16 22 C-15.77054687 21.47277344 -15.54109375 20.94554687 -15.3046875 20.40234375 C-13.56722445 17.20312286 -11.36409687 14.41849091 -9.125 11.5625 C-8.69058594 11.00240234 -8.25617188 10.44230469 -7.80859375 9.86523438 C-5.23483552 6.55335629 -2.62767922 3.26932182 0 0 Z " fill="#2B2412" transform="translate(313,218)"/>
<path d="M0 0 C0.66 0.99 1.32 1.98 2 3 C1.071875 3.61875 1.071875 3.61875 0.125 4.25 C-2.13291824 6.10946208 -2.74761254 7.41695087 -4 10 C-4.680625 10.66 -5.36125 11.32 -6.0625 12 C-8.12506904 14.12910353 -8.53942771 15.14445182 -9 18 C-9.33 18.99 -9.66 19.98 -10 21 C-9.34 21 -8.68 21 -8 21 C-8 21.66 -8 22.32 -8 23 C-7.34 23.33 -6.68 23.66 -6 24 C-5.27306096 25.97888961 -4.60183749 27.97954558 -4 30 C-6.68750965 27.61110254 -8.84042429 25.01124123 -10.875 22.0625 C-11.32617188 21.41410156 -11.77734375 20.76570313 -12.2421875 20.09765625 C-13 18 -13 18 -12.4140625 15.56640625 C-10.76775553 12.57849553 -8.83797826 10.35720419 -6.5 7.875 C-4.08551892 5.29589521 -1.96265593 2.94398389 0 0 Z " fill="#DCBC55" transform="translate(328,230)"/>
<path d="M0 0 C1.33895632 1.66215268 2.67130142 3.32963607 4 5 C4.5775 5.721875 5.155 6.44375 5.75 7.1875 C7 9 7 9 7 11 C-1.25 11 -9.5 11 -18 11 C-18.33 10.01 -18.66 9.02 -19 8 C-11.41 8.33 -3.82 8.66 4 9 C3.67 8.34 3.34 7.68 3 7 C2.01 6.67 1.02 6.34 0 6 C0 4.02 0 2.04 0 0 Z " fill="#382803" transform="translate(332,274)"/>
<path d="M0 0 C0.66 0 1.32 0 2 0 C2.721875 0.763125 3.44375 1.52625 4.1875 2.3125 C9.3478395 7.24349108 14.09552062 8.34838393 21.01367188 8.26367188 C22.2134668 8.2259668 22.2134668 8.2259668 23.4375 8.1875 C24.26443359 8.17396484 25.09136719 8.16042969 25.94335938 8.14648438 C27.9625264 8.11146992 29.98135318 8.05767562 32 8 C30.72167969 9.48876953 30.72167969 9.48876953 29 11 C26.30086187 11.13674048 23.91955048 11.09908635 21.25 10.875 C20.5590625 10.83890625 19.868125 10.8028125 19.15625 10.765625 C13.40855161 10.35507512 9.14218197 8.57109098 4 6 C3.67 6.66 3.34 7.32 3 8 C2.01 8 1.02 8 0 8 C0 5.36 0 2.72 0 0 Z " fill="#CEAF51" transform="translate(86,277)"/>
<path d="M0 0 C0.99 0 1.98 0 3 0 C1.6713815 3.98585549 -0.22655687 4.82053515 -3.72265625 6.92578125 C-7.17352996 8.55355187 -10.20756296 8.79683373 -14 9 C-14 8.34 -14 7.68 -14 7 C-12.02 6.67 -10.04 6.34 -8 6 C-10.475 5.01 -10.475 5.01 -13 4 C-12.01 3.01 -11.02 2.02 -10 1 C-8.68 1.66 -7.36 2.32 -6 3 C-6 3.66 -6 4.32 -6 5 C-3.66924071 4.04134491 -3.66924071 4.04134491 -2 1 C-1.34 1.33 -0.68 1.66 0 2 C0 1.34 0 0.68 0 0 Z " fill="#2B240E" transform="translate(126,277)"/>
<path d="M0 0 C3.48420592 3.1703135 5.86503346 6.73088973 8.25 10.75 C8.79527344 11.65298828 8.79527344 11.65298828 9.3515625 12.57421875 C10.23953297 14.04638031 11.12049158 15.5227674 12 17 C11.34 17.66 10.68 18.32 10 19 C7.375 18.625 7.375 18.625 5 18 C5 14.66666667 5 11.33333333 5 8 C4.01 7.67 3.02 7.34 2 7 C0.8125 3.4375 0.8125 3.4375 0 0 Z " fill="#272211" transform="translate(318,253)"/>
<path d="M0 0 C0.556875 0.22816406 1.11375 0.45632813 1.6875 0.69140625 C7.32579288 2.81529022 11.094789 3.26540236 17 2 C17.33 1.67 17.66 1.34 18 1 C19.66617115 0.95936168 21.33388095 0.957279 23 1 C20.12064752 4.07792851 18.2603018 5.73737446 13.94921875 6.23828125 C8.43348212 6.41928124 5.36459729 5.70990769 1 2 C0.67 1.34 0.34 0.68 0 0 Z " fill="#D8B955" transform="translate(90,262)"/>
<path d="M0 0 C0.33 0 0.66 0 1 0 C1 14.85 1 29.7 1 45 C0.34 44.67 -0.32 44.34 -1 44 C-2.26229508 39.52459016 -2.26229508 39.52459016 -1 37 C-0.92541522 34.39699133 -0.90866884 31.82097239 -0.9375 29.21875 C-0.94128662 28.44946167 -0.94507324 27.68017334 -0.94897461 26.88757324 C-0.96121321 24.42499264 -0.97984288 21.96252778 -1 19.5 C-1.02651771 16.26041982 -1.04655368 13.02089752 -1.0625 9.78125 C-1.07079834 9.0322644 -1.07909668 8.28327881 -1.08764648 7.51159668 C-1.11280181 2.22560362 -1.11280181 2.22560362 0 0 Z " fill="#F5CA52" transform="translate(140,196)"/>
<path d="M0 0 C2.69140572 2.57033902 3.22612107 4.63218878 3.34057617 8.21777344 C3.34010287 9.93171403 3.32325279 11.64570191 3.29296875 13.359375 C3.28872391 14.26375305 3.28447906 15.1681311 3.28010559 16.09991455 C3.26333574 18.98358139 3.22568669 21.866545 3.1875 24.75 C3.17245097 26.70702114 3.15876295 28.66405326 3.14648438 30.62109375 C3.11343774 35.41433275 3.06166705 40.20704721 3 45 C2.67 45 2.34 45 2 45 C1.97494385 43.95658447 1.9498877 42.91316895 1.92407227 41.83813477 C1.82918628 37.92982804 1.72917119 34.02166585 1.62768555 30.11352539 C1.58464114 28.42898972 1.54294777 26.74441892 1.50268555 25.05981445 C1.44423571 22.62440446 1.38076577 20.18916642 1.31640625 17.75390625 C1.29969376 17.01290176 1.28298126 16.27189728 1.26576233 15.50843811 C1.12128378 10.29243803 0.62934763 5.18035967 0 0 Z " fill="#EBC763" transform="translate(241,238)"/>
<path d="M0 0 C8.25 0 16.5 0 25 0 C23.4005386 3.19892281 22.17187081 5.15353735 19.875 7.75 C19.33617187 8.36359375 18.79734375 8.9771875 18.2421875 9.609375 C17.83226562 10.06828125 17.42234375 10.5271875 17 11 C16 8 16 8 17.3125 5.3125 C17.869375 4.549375 18.42625 3.78625 19 3 C19.66 3 20.32 3 21 3 C21 2.34 21 1.68 21 1 C14.07 1 7.14 1 0 1 C0 0.67 0 0.34 0 0 Z " fill="#53420F" transform="translate(314,217)"/>
<path d="M0 0 C1.31484375 0.00386719 2.6296875 0.00773438 3.984375 0.01171875 C7.25 0.3125 7.25 0.3125 9.25 2.3125 C7.83847656 2.27769531 7.83847656 2.27769531 6.3984375 2.2421875 C5.15320313 2.22414062 3.90796875 2.20609375 2.625 2.1875 C0.78035156 2.15269531 0.78035156 2.15269531 -1.1015625 2.1171875 C-4.74795173 2.31239035 -7.41855477 2.83728525 -10.75 4.3125 C-11.74 5.7975 -11.74 5.7975 -12.75 7.3125 C-15.375 7.5 -15.375 7.5 -17.75 7.3125 C-12.55626866 1.51949197 -7.71266586 -0.09907575 0 0 Z " fill="#3D2E0F" transform="translate(240.75,215.6875)"/>
<path d="M0 0 C4.95 0 9.9 0 15 0 C15 0.66 15 1.32 15 2 C16.65 2 18.3 2 20 2 C20 2.66 20 3.32 20 4 C20.99 4 21.98 4 23 4 C23 5.65 23 7.3 23 9 C22.26136719 8.50628906 21.52273438 8.01257813 20.76171875 7.50390625 C13.75002359 3.07593612 8.32912675 0.88522857 0 1 C0 0.67 0 0.34 0 0 Z " fill="#D5B754" transform="translate(237,215)"/>
<path d="M0 0 C0.66 0.33 1.32 0.66 2 1 C2 1.66 2 2.32 2 3 C9.92 3 17.84 3 26 3 C26 3.33 26 3.66 26 4 C5.8005997 6.26686657 5.8005997 6.26686657 -1 4 C-0.67 2.68 -0.34 1.36 0 0 Z " fill="#E8C761" transform="translate(312,282)"/>
<path d="M0 0 C3.71576831 1.1943541 5.43644854 3.46615001 7.23828125 6.86328125 C8.64243105 10.80210145 8.76146011 14.90457942 8 19 C6.47265625 21.30078125 6.47265625 21.30078125 5 23 C5.05800781 22.07058594 5.11601563 21.14117187 5.17578125 20.18359375 C5.46533099 12.24993085 5.38997849 7.92897634 0 2 C0 1.34 0 0.68 0 0 Z " fill="#CAB050" transform="translate(110,237)"/>
<path d="M0 0 C0.99 0.99 1.98 1.98 3 3 C2.67 3.99 2.34 4.98 2 6 C1.91602843 8.35680213 1.89271813 10.71594081 1.90234375 13.07421875 C1.9037587 13.7580513 1.90517365 14.44188385 1.90663147 15.1464386 C1.91222124 17.32683722 1.92477178 19.50713251 1.9375 21.6875 C1.94251633 23.16731622 1.947079 24.64713406 1.95117188 26.12695312 C1.96218729 29.75133557 1.97944488 33.3756577 2 37 C-0.40644141 33.28625304 -0.25818641 29.66151166 -0.1953125 25.390625 C-0.1924826 24.66381531 -0.18965271 23.93700562 -0.18673706 23.18817139 C-0.17557523 20.87527749 -0.15047851 18.56277612 -0.125 16.25 C-0.11496501 14.67839102 -0.10584006 13.10677596 -0.09765625 11.53515625 C-0.07564904 7.68995378 -0.04114715 3.84504336 0 0 Z " fill="#197E19" transform="translate(379,235)"/>
<path d="M0 0 C0.33 0 0.66 0 1 0 C1.33 7.59 1.66 15.18 2 23 C3.65 23.33 5.3 23.66 7 24 C2.25 27.875 2.25 27.875 0 29 C0 19.43 0 9.86 0 0 Z " fill="#F2CC57" transform="translate(87,195)"/>
<path d="M0 0 C1.875 0.1875 1.875 0.1875 4 1 C5.25 3.5625 5.25 3.5625 6 6 C6.99 5.01 7.98 4.02 9 3 C9.625 4.875 9.625 4.875 10 7 C9.34 7.66 8.68 8.32 8 9 C8.99 10.98 9.98 12.96 11 15 C10.01 15.495 10.01 15.495 9 16 C7.49734474 13.5224077 5.99777081 11.04304235 4.5 8.5625 C4.07074219 7.85544922 3.64148438 7.14839844 3.19921875 6.41992188 C0 1.11328125 0 1.11328125 0 0 Z " fill="#2D240D" transform="translate(303,266)"/>
<path d="M0 0 C0.99 0 1.98 0 3 0 C3 1.32 3 2.64 3 4 C3.9590625 4.433125 3.9590625 4.433125 4.9375 4.875 C7 6 7 6 8 8 C8.039992 9.99960012 8.04346799 12.00047242 8 14 C6.25372522 11.38058783 5.61277612 9.96175123 5 7 C2.01758453 6.22678118 -0.97580475 5.58803797 -4 5 C-3.34 4.01 -2.68 3.02 -2 2 C-1.34 2 -0.68 2 0 2 C0 1.34 0 0.68 0 0 Z " fill="#E8CC46" transform="translate(407,260)"/>
<path d="M0 0 C0.99 0 1.98 0 3 0 C3.45375 0.969375 3.9075 1.93875 4.375 2.9375 C5.65786221 6.07079582 5.65786221 6.07079582 8 7 C8.68132451 8.66072849 9.34742127 10.327767 10 12 C10.66 12.66 11.32 13.32 12 14 C12 14.99 12 15.98 12 17 C11.34 17 10.68 17 10 17 C8.19931985 14.57350969 6.52163451 12.15260703 4.875 9.625 C4.17310547 8.57699219 4.17310547 8.57699219 3.45703125 7.5078125 C0 2.26683218 0 2.26683218 0 0 Z " fill="#DEBC56" transform="translate(329,268)"/>
<path d="M0 0 C0.66 0 1.32 0 2 0 C1.67 0.825 1.34 1.65 1 2.5 C-0.99613349 9.48646721 0.05283541 15.18492392 2 22 C1.01 21.67 0.02 21.34 -1 21 C-2.64176774 17.71646451 -2.18454039 14.10480362 -2.1875 10.5 C-2.19974609 9.71496094 -2.21199219 8.92992187 -2.22460938 8.12109375 C-2.22986254 6.07936274 -2.1222018 4.03807749 -2 2 C-1.34 1.34 -0.68 0.68 0 0 Z " fill="#35290A" transform="translate(87,240)"/>
<path d="M0 0 C1.65 0 3.3 0 5 0 C4.67 0.99 4.34 1.98 4 3 C5.65 3 7.3 3 9 3 C7.75 4.5 7.75 4.5 6 6 C4.68 6 3.36 6 2 6 C1.67 8.64 1.34 11.28 1 14 C0.67 14 0.34 14 0 14 C0 9.38 0 4.76 0 0 Z " fill="#13811B" transform="translate(344,195)"/>
<path d="M0 0 C-0.99 0.66 -1.98 1.32 -3 2 C-4.68786642 1.27190076 -6.37329333 0.53603964 -8.03125 -0.2578125 C-12.03294929 -1.76638961 -16.27029158 -1.45518643 -20.375 -0.375 C-21.179375 -0.189375 -21.179375 -0.189375 -22 0 C-22.66 -0.66 -23.32 -1.32 -24 -2 C-15.42516209 -3.91581964 -8.01587506 -3.62983021 0 0 Z " fill="#31280A" transform="translate(115,236)"/>
<path d="M0 0 C0.9763487 3.03752929 1.45465048 5.09069905 0 8 C-3.70710309 10.84113938 -6.26739343 12 -11 12 C-10.01 11.34 -9.02 10.68 -8 10 C-4.66855625 6.91841453 -2.16679094 3.991457 0 0 Z " fill="#3A2C0D" transform="translate(117,256)"/>
<path d="M0 0 C-3.80544125 2.9272625 -7.69729493 5.84864746 -12 8 C-12 5.69 -12 3.38 -12 1 C-9.525 1.99 -9.525 1.99 -7 3 C-7 2.34 -7 1.68 -7 1 C-4.53721199 -0.231394 -2.7204945 -0.07159196 0 0 Z " fill="#D6BA5D" transform="translate(233,216)"/>
<path d="M0 0 C0.33 0.66 0.66 1.32 1 2 C1.99 1.67 2.98 1.34 4 1 C4.99 1.66 5.98 2.32 7 3 C5.35 4.65 3.7 6.3 2 8 C0.26216175 5.39324263 -0.50215905 3.98704569 -1 1 C-0.67 0.67 -0.34 0.34 0 0 Z " fill="#E9C34F" transform="translate(299,225)"/>
<path d="M0 0 C1.9375 0.8125 1.9375 0.8125 4 2 C4.33 2.99 4.66 3.98 5 5 C0.545 5.495 0.545 5.495 -4 6 C-2.68 4.02 -1.36 2.04 0 0 Z " fill="#D7B855" transform="translate(298,262)"/>
<path d="M0 0 C-1.20842856 4.43090471 -2.51668565 6.98112756 -6 10 C-6 6.41280123 -5.87802634 4.06890163 -3.5625 1.25 C-2 0 -2 0 0 0 Z " fill="#352A0E" transform="translate(136,267)"/>
<path d="M0 0 C1.32 0 2.64 0 4 0 C6.44064587 5.64399358 6.19289099 10.97751478 6 17 C5.67 17 5.34 17 5 17 C4.97421875 16.443125 4.9484375 15.88625 4.921875 15.3125 C4.47626831 9.31706452 2.94927498 5.23258464 0 0 Z " fill="#312709" transform="translate(113,238)"/>
<path d="M0 0 C3.82116982 0.32382795 5.62930359 1.08835716 8.6875 3.3125 C8.0275 3.9725 7.3675 4.6325 6.6875 5.3125 C5.6975 4.6525 4.7075 3.9925 3.6875 3.3125 C1.40837062 2.85855448 1.40837062 2.85855448 -1 2.6875 C-1.80824219 2.61273438 -2.61648437 2.53796875 -3.44921875 2.4609375 C-4.06410156 2.41195312 -4.67898437 2.36296875 -5.3125 2.3125 C-3.3125 0.3125 -3.3125 0.3125 0 0 Z " fill="#CAAC50" transform="translate(232.3125,233.6875)"/>
<path d="M0 0 C0.598125 0.20625 1.19625 0.4125 1.8125 0.625 C0.83683888 1.79459987 -0.143125 2.96061177 -1.125 4.125 C-1.67027344 4.7746875 -2.21554687 5.424375 -2.77734375 6.09375 C-3.24269531 6.5990625 -3.70804687 7.104375 -4.1875 7.625 C-4.5175 7.625 -4.8475 7.625 -5.1875 7.625 C-5.375 4.75 -5.375 4.75 -5.1875 1.625 C-2.1875 -0.375 -2.1875 -0.375 0 0 Z " fill="#312610" transform="translate(328.1875,228.375)"/>
<path d="M0 0 C0.33 0.99 0.66 1.98 1 3 C-0.375 5 -0.375 5 -2 7 C-2.33 7.99 -2.66 8.98 -3 10 C-4.32 9.67 -5.64 9.34 -7 9 C-4.69 6.03 -2.38 3.06 0 0 Z " fill="#3F2F0E" transform="translate(313,218)"/>
<path d="M0 0 C4.0042343 3.49087093 5.62671065 5.64951939 6 11 C5.67 10.34 5.34 9.68 5 9 C2.98330173 7.86649466 2.98330173 7.86649466 1 7 C1.66 7 2.32 7 3 7 C2.505 6.21625 2.01 5.4325 1.5 4.625 C0 2 0 2 0 0 Z " fill="#372B0B" transform="translate(258,223)"/>
<path d="M0 0 C0.33 0.99 0.66 1.98 1 3 C0.67 3.66 0.34 4.32 0 5 C-0.2275015 6.87056791 -0.40962811 8.74685958 -0.5625 10.625 C-0.64628906 11.62789062 -0.73007813 12.63078125 -0.81640625 13.6640625 C-0.87699219 14.43492187 -0.93757812 15.20578125 -1 16 C-1.33 16 -1.66 16 -2 16 C-2.05384521 13.70858714 -2.09272087 11.41681812 -2.125 9.125 C-2.14820313 7.84882813 -2.17140625 6.57265625 -2.1953125 5.2578125 C-2 2 -2 2 0 0 Z " fill="#E7C35C" transform="translate(224,238)"/>
<path d="M0 0 C3.29148243 1.13499394 3.9959869 1.99283376 5.75 5.125 C6.1625 6.07375 6.575 7.0225 7 8 C6.01 8.495 6.01 8.495 5 9 C4.16094435 7.87926138 3.32892169 6.75325453 2.5 5.625 C2.0359375 4.99851563 1.571875 4.37203125 1.09375 3.7265625 C0 2 0 2 0 0 Z " fill="#D6B858" transform="translate(110,237)"/>
<path d="M0 0 C0.33 1.32 0.66 2.64 1 4 C0.01 4.495 0.01 4.495 -1 5 C-1.72159424 6.64363134 -2.39351421 8.31050386 -3 10 C-3.99 9.34 -4.98 8.68 -6 8 C-5.67 7.34 -5.34 6.68 -5 6 C-4.34 6 -3.68 6 -3 6 C-2.690625 5.38125 -2.38125 4.7625 -2.0625 4.125 C-1.375 2.75 -0.6875 1.375 0 0 Z " fill="#382B0F" transform="translate(300,234)"/>
<path d="M0 0 C2.375 -0.125 2.375 -0.125 5 0 C5.66 0.66 6.32 1.32 7 2 C6.625 4.625 6.625 4.625 6 7 C5.38125 6.21625 4.7625 5.4325 4.125 4.625 C2.10141339 2.03162353 2.10141339 2.03162353 0 0 Z " fill="#382A0E" transform="translate(238,235)"/>
<path d="M0 0 C0 0.66 0 1.32 0 2 C-1.45505358 2.52992692 -2.91418127 3.0486789 -4.375 3.5625 C-5.59316406 3.99755859 -5.59316406 3.99755859 -6.8359375 4.44140625 C-9 5 -9 5 -11 4 C-4.5 0 -4.5 0 0 0 Z " fill="#37290C" transform="translate(102,217)"/>
<path d="M0 0 C1.65 0 3.3 0 5 0 C6 2 6 2 7 5 C4.03824877 4.38722388 2.61941217 3.74627478 0 2 C0 1.34 0 0.68 0 0 Z " fill="#E8C557" transform="translate(122,217)"/>
<path d="M0 0 C4 0 4 0 5.484375 1.3125 C6.65625 2.875 7.828125 4.4375 9 6 C5.51669784 5.35494404 2.90567134 4.01782732 0 2 C0 1.34 0 0.68 0 0 Z " fill="#DFCC53" transform="translate(378,277)"/>
<path d="M0 0 C1.33597652 0.80814651 2.668725 1.62163181 4 2.4375 C5.11375 3.11619141 5.11375 3.11619141 6.25 3.80859375 C6.8275 4.20175781 7.405 4.59492188 8 5 C8 5.33 8 5.66 8 6 C5.69 6 3.38 6 1 6 C0.67 4.02 0.34 2.04 0 0 Z " fill="#322A0D" transform="translate(89,262)"/>
<path d="M0 0 C-4.75 3.875 -4.75 3.875 -7 5 C-6.67 3.35 -6.34 1.7 -6 0 C-3 -1 -3 -1 0 0 Z " fill="#DFC058" transform="translate(94,219)"/>
<path d="M0 0 C3.3 0.33 6.6 0.66 10 1 C6.1496895 3.56687367 4.41430237 2.83288724 0 2 C0 1.34 0 0.68 0 0 Z " fill="#362C0C" transform="translate(97,283)"/>
<path d="M0 0 C0.33 1.32 0.66 2.64 1 4 C-2 6 -2 6 -4.1875 5.625 C-4.785625 5.41875 -5.38375 5.2125 -6 5 C-4.02 3.35 -2.04 1.7 0 0 Z " fill="#E1C058" transform="translate(131,276)"/>
<path d="M0 0 C3.33557632 2.9905167 5.15083921 5.93184627 7 10 C6.34 10 5.68 10 5 10 C5 9.34 5 8.68 5 8 C4.01 7.67 3.02 7.34 2 7 C0.8125 3.4375 0.8125 3.4375 0 0 Z " fill="#483A13" transform="translate(318,253)"/>
<path d="M0 0 C3 2 3 2 3.6875 4.125 C3.790625 4.74375 3.89375 5.3625 4 6 C3.01 6 2.02 6 1 6 C-0.6875 4 -0.6875 4 -2 2 C-1.34 2 -0.68 2 0 2 C0 1.34 0 0.68 0 0 Z " fill="#D1AF4C" transform="translate(129,220)"/>
<path d="M0 0 C0.66 0.33 1.32 0.66 2 1 C0.02 3.31 -1.96 5.62 -4 8 C-4.33 7.01 -4.66 6.02 -5 5 C-3.35 3.35 -1.7 1.7 0 0 Z " fill="#322709" transform="translate(298,260)"/>
<path d="M0 0 C0.66 1.32 1.32 2.64 2 4 C0.625 5.5 0.625 5.5 -1 7 C-1.66 7 -2.32 7 -3 7 C-3 6.01 -3 5.02 -3 4 C-2.34 3.67 -1.68 3.34 -1 3 C-0.67 2.01 -0.34 1.02 0 0 Z " fill="#EED153" transform="translate(341,281)"/>
<path d="M0 0 C4 4.625 4 4.625 4 8 C2.68 7.34 1.36 6.68 0 6 C0 4.02 0 2.04 0 0 Z " fill="#392D0E" transform="translate(332,274)"/>
</svg>
