<svg xmlns="http://www.w3.org/2000/svg" width="480" height="480" viewBox="0 0 480 480">
<g>
<path d="M 407.25 284.95 C395.12,288.32 385.41,284.18 380.38,273.50 C378.20,268.87 378.02,267.25 378.01,251.81 L 378.00 235.12 L 370.50 234.50 L 370.50 218.50 L 378.00 217.88 L 378.00 207.52 C378.00,201.82 378.27,196.45 378.61,195.58 C379.10,194.29 381.00,194.00 388.98,194.00 L 398.74 194.00 L 399.22 197.75 C399.49,199.81 399.80,204.85 399.91,208.94 C400.03,213.03 400.34,216.74 400.62,217.19 C400.89,217.64 403.79,218.00 407.06,218.00 L 413.00 218.00 L 413.00 235.00 L 400.16 235.00 L 399.46 241.51 C399.08,245.09 399.08,251.86 399.48,256.55 C400.10,264.01 400.48,265.27 402.56,266.63 C404.21,267.71 406.09,267.99 408.72,267.55 L 412.50 266.92 L 414.33 273.19 L 416.16 279.46 L 413.58 281.69 C412.16,282.91 409.31,284.38 407.25,284.95 ZM 364.76 251.75 L 365.03 285.00 L 355.05 285.00 C346.45,285.00 344.94,284.75 344.10,283.20 C343.10,281.33 342.70,225.77 343.65,220.72 L 344.17 217.93 L 354.34 218.22 L 364.50 218.50 ZM 364.79 202.21 L 364.50 210.50 L 354.75 210.79 C345.41,211.06 344.95,210.97 343.98,208.79 C343.36,207.39 343.26,204.15 343.73,200.50 L 344.50 194.50 L 354.79 194.21 L 365.08 193.93 Z" fill="rgb(20,130,34)"/>
<path d="M 121.82 283.11 C118.80,284.66 115.25,285.44 110.00,285.68 C101.67,286.07 97.05,284.80 91.56,280.62 C87.02,277.15 86.00,277.31 86.00,281.50 L 86.00 285.00 L 75.97 285.00 C68.82,285.00 65.82,284.64 65.54,283.75 C65.32,283.06 64.95,262.59 64.71,238.25 L 64.27 194.00 L 74.58 194.00 C80.25,194.00 85.12,194.38 85.40,194.84 C85.68,195.30 86.23,202.24 86.61,210.27 L 87.30 224.86 L 90.90 222.06 C96.07,218.06 102.17,216.00 108.89,216.00 C113.59,216.00 116.13,216.70 121.87,219.57 C129.24,223.26 132.04,226.11 136.06,234.00 C139.27,240.29 139.94,253.56 137.45,261.67 C133.77,273.71 129.97,278.92 121.82,283.11 ZM 293.00 277.31 L 293.00 285.00 L 272.22 285.00 L 271.73 261.75 C271.10,231.62 271.12,229.37 272.29,211.00 C272.88,201.85 273.74,195.20 274.39,194.77 C275.00,194.36 279.44,194.02 284.25,194.02 L 293.00 194.00 L 293.17 206.25 C293.26,212.99 293.26,223.79 293.17,230.25 C293.07,237.15 293.40,242.00 293.96,242.00 C294.48,242.00 298.24,237.82 302.30,232.72 C306.36,227.62 311.14,222.22 312.92,220.72 C316.01,218.12 316.65,218.00 327.08,218.00 C333.08,218.00 338.00,218.24 338.00,218.54 C338.00,218.84 333.31,224.42 327.58,230.95 C321.85,237.48 316.68,243.73 316.09,244.84 C314.90,247.05 318.06,252.71 331.57,272.65 C335.25,278.07 338.47,283.06 338.73,283.75 C339.10,284.71 336.40,285.00 327.18,285.00 C326.41,285.00 325.70,285.00 325.02,285.00 C319.82,285.02 317.07,285.03 315.02,283.84 C312.45,282.35 310.98,278.97 307.18,271.38 C301.88,260.80 299.66,259.87 295.25,266.33 C293.40,269.04 293.00,270.98 293.00,277.31 ZM 221.00 262.77 L 220.50 284.50 L 210.95 284.78 C205.70,284.94 201.09,284.75 200.70,284.37 C200.32,283.98 200.00,268.89 200.00,250.83 L 200.00 218.00 L 210.03 218.00 C218.07,218.00 220.16,218.30 220.53,219.50 C221.38,222.20 221.71,223.43 222.29,223.56 C222.75,223.67 223.36,223.07 224.51,221.97 C224.63,221.85 224.76,221.73 224.89,221.60 C228.09,218.54 235.44,216.00 241.12,216.00 C247.13,216.00 255.41,219.60 259.30,223.91 C265.07,230.30 265.49,232.73 265.43,260.00 L 265.37 284.50 L 245.50 284.50 L 244.93 263.50 C244.31,241.09 243.53,237.43 238.84,234.92 C235.12,232.93 228.14,234.39 224.63,237.91 L 221.50 241.03 ZM 164.00 241.08 L 164.00 285.00 L 154.17 285.00 C148.76,285.00 144.03,284.70 143.67,284.33 C143.30,283.97 143.00,263.49 143.00,238.83 L 143.00 194.00 L 154.11 194.00 C163.82,194.00 165.14,194.20 164.61,195.58 C164.27,196.45 164.00,216.93 164.00,241.08 ZM 192.29 275.25 L 191.70 285.00 L 184.60 284.85 C180.69,284.77 176.26,284.51 174.75,284.28 L 172.00 283.87 L 171.76 257.18 C171.47,223.55 171.61,219.87 173.21,218.85 C173.92,218.40 178.38,218.02 183.12,218.02 L 191.74 218.00 L 192.42 222.23 C193.22,227.20 193.13,261.23 192.29,275.25 ZM 94.50 266.20 C98.37,268.67 106.89,268.22 110.73,265.35 C115.69,261.65 117.38,258.36 117.81,251.59 C118.39,242.50 116.83,238.57 111.38,235.38 C107.60,233.16 106.06,232.83 101.30,233.23 C96.21,233.65 95.29,234.11 91.49,238.13 C86.71,243.19 85.26,248.77 86.87,255.92 C87.91,260.56 89.94,263.29 94.50,266.20 ZM 192.50 194.50 L 192.50 210.50 L 183.36 210.79 C171.73,211.15 171.00,210.56 171.00,200.89 L 171.00 193.93 Z" fill="rgb(30,29,26)"/>
<path d="M 94.50 266.20 C89.94,263.29 87.91,260.56 86.87,255.92 C85.35,249.14 86.57,243.77 90.78,238.92 C88.35,242.14 87.82,245.48 88.30,251.77 C89.06,261.80 91.44,265.07 99.50,267.11 C101.38,267.58 103.20,267.71 104.91,267.53 C101.14,268.14 96.91,267.74 94.50,266.20 ZM 113.95 262.50 C116.13,259.76 117.53,256.03 117.81,251.59 C117.49,256.61 116.48,259.72 113.95,262.50 ZM 103.92 233.08 C106.80,233.05 108.39,233.62 111.38,235.38 C109.12,234.05 106.51,233.29 103.92,233.08 ZM 94.84 234.98 C95.73,234.34 96.59,233.96 97.70,233.70 C96.66,234.02 95.69,234.45 94.84,234.98 Z" fill="rgb(140,138,130)"/>
<path d="M 0.00 240.00 L 0.00 0.00 L 240.00 0.00 L 480.00 0.00 L 480.00 240.00 L 480.00 480.00 L 240.00 480.00 L 0.00 480.00 L 0.00 240.00 ZM 121.82 283.11 C129.97,278.92 133.77,273.71 137.45,261.67 C139.94,253.56 139.27,240.29 136.06,234.00 C132.04,226.11 129.24,223.26 121.87,219.57 C116.13,216.70 113.59,216.00 108.89,216.00 C102.17,216.00 96.07,218.06 90.90,222.06 L 87.30 224.86 L 86.61 210.27 C86.23,202.24 85.68,195.30 85.40,194.84 C85.12,194.38 80.25,194.00 74.58,194.00 L 64.27 194.00 L 64.71 238.25 C64.95,262.59 65.32,283.06 65.54,283.75 C65.82,284.64 68.82,285.00 75.97,285.00 L 86.00 285.00 L 86.00 281.50 C86.00,277.31 87.02,277.15 91.56,280.62 C97.05,284.80 101.67,286.07 110.00,285.68 C115.25,285.44 118.80,284.66 121.82,283.11 ZM 407.25 284.95 C409.31,284.38 412.16,282.91 413.58,281.69 L 416.16 279.46 L 414.33 273.19 L 412.50 266.92 L 408.72 267.55 C406.09,267.99 404.21,267.71 402.56,266.63 C400.48,265.27 400.10,264.01 399.48,256.55 C399.08,251.86 399.08,245.09 399.46,241.51 L 400.16 235.00 L 406.58 235.00 L 413.00 235.00 L 413.00 226.50 L 413.00 218.00 L 407.06 218.00 C403.79,218.00 400.89,217.64 400.62,217.19 C400.34,216.74 400.03,213.03 399.91,208.94 C399.80,204.85 399.49,199.81 399.22,197.75 L 398.74 194.00 L 388.98 194.00 C381.00,194.00 379.10,194.29 378.61,195.58 C378.27,196.45 378.00,201.82 378.00,207.52 L 378.00 217.88 L 374.25 218.19 L 370.50 218.50 L 370.50 226.50 L 370.50 234.50 L 374.25 234.81 L 378.00 235.12 L 378.01 251.81 C378.02,267.25 378.20,268.87 380.38,273.50 C385.41,284.18 395.12,288.32 407.25,284.95 ZM 164.00 241.08 C164.00,216.93 164.27,196.45 164.61,195.58 C165.14,194.20 163.82,194.00 154.11,194.00 L 143.00 194.00 L 143.00 238.83 C143.00,263.49 143.30,283.97 143.67,284.33 C144.03,284.70 148.76,285.00 154.17,285.00 L 164.00 285.00 L 164.00 241.08 ZM 192.29 275.25 C193.13,261.23 193.22,227.20 192.42,222.23 L 191.74 218.00 L 183.12 218.02 C178.38,218.02 173.92,218.40 173.21,218.85 C171.61,219.87 171.47,223.55 171.76,257.18 L 172.00 283.87 L 174.75 284.28 C176.26,284.51 180.69,284.77 184.60,284.85 L 191.70 285.00 L 192.29 275.25 ZM 221.00 262.77 L 221.50 241.03 L 224.63 237.91 C228.14,234.39 235.12,232.93 238.84,234.92 C243.53,237.43 244.31,241.09 244.93,263.50 L 245.50 284.50 L 255.44 284.50 L 265.37 284.50 L 265.43 260.00 C265.49,232.73 265.07,230.30 259.30,223.91 C255.41,219.60 247.13,216.00 241.12,216.00 C235.44,216.00 228.09,218.54 224.89,221.60 C221.90,224.47 222.12,224.57 220.53,219.50 C220.16,218.30 218.07,218.00 210.03,218.00 L 200.00 218.00 L 200.00 250.83 C200.00,268.89 200.32,283.98 200.70,284.37 C201.09,284.75 205.70,284.94 210.95,284.78 L 220.50 284.50 L 221.00 262.77 ZM 293.00 277.31 C293.00,270.98 293.40,269.04 295.25,266.33 C299.66,259.87 301.88,260.80 307.18,271.38 C314.42,285.83 313.20,285.00 327.18,285.00 C336.40,285.00 339.10,284.71 338.73,283.75 C338.47,283.06 335.25,278.07 331.57,272.65 C318.06,252.71 314.90,247.05 316.09,244.84 C316.68,243.73 321.85,237.48 327.58,230.95 C333.31,224.42 338.00,218.84 338.00,218.54 C338.00,218.24 333.08,218.00 327.08,218.00 C316.65,218.00 316.01,218.12 312.92,220.72 C311.14,222.22 306.36,227.62 302.30,232.72 C298.24,237.82 294.48,242.00 293.96,242.00 C293.40,242.00 293.07,237.15 293.17,230.25 C293.26,223.79 293.26,212.99 293.17,206.25 L 293.00 194.00 L 284.25 194.02 C279.44,194.02 275.00,194.36 274.39,194.77 C273.74,195.20 272.88,201.85 272.29,211.00 C271.12,229.37 271.10,231.62 271.73,261.75 L 272.22 285.00 L 282.61 285.00 L 293.00 285.00 L 293.00 277.31 ZM 364.76 251.75 L 364.50 218.50 L 354.34 218.22 L 344.17 217.93 L 343.65 220.72 C342.70,225.77 343.10,281.33 344.10,283.20 C344.94,284.75 346.45,285.00 355.05,285.00 L 365.03 285.00 L 364.76 251.75 ZM 192.50 202.50 L 192.50 194.50 L 181.75 194.22 L 171.00 193.93 L 171.00 200.89 C171.00,210.56 171.73,211.15 183.36,210.79 L 192.50 210.50 L 192.50 202.50 ZM 364.79 202.21 L 365.08 193.93 L 354.79 194.21 L 344.50 194.50 L 343.73 200.50 C343.26,204.15 343.36,207.39 343.98,208.79 C344.95,210.97 345.41,211.06 354.75,210.79 L 364.50 210.50 L 364.79 202.21 ZM 99.50 267.11 C91.44,265.07 89.06,261.80 88.30,251.77 C87.69,243.66 88.73,240.44 93.40,236.08 C97.45,232.30 105.58,231.98 111.38,235.38 C116.83,238.57 118.39,242.50 117.81,251.59 C117.10,262.86 109.19,269.56 99.50,267.11 Z" fill="rgb(254,254,254)"/>
</g>
</svg>