<?xml version="1.0" encoding="UTF-8"?>
<svg version="1.1" xmlns="http://www.w3.org/2000/svg" width="225" height="225">
<path d="M0 0 C74.25 0 148.5 0 225 0 C225 74.25 225 148.5 225 225 C150.75 225 76.5 225 0 225 C0 150.75 0 76.5 0 0 Z " fill="#FC5106" transform="translate(0,0)"/>
<path d="M0 0 C34.65 0 69.3 0 105 0 C105 74.25 105 148.5 105 225 C30.75 225 -43.5 225 -120 225 C-120 190.35 -120 155.7 -120 120 C-119.67 120 -119.34 120 -119 120 C-118.91363281 120.969375 -118.82726562 121.93875 -118.73828125 122.9375 C-117.7119795 133.14143132 -115.37701378 142.33438043 -112 152 C-111.61328125 153.18529297 -111.61328125 153.18529297 -111.21875 154.39453125 C-105.6103828 170.78565204 -93.5483151 187.32333865 -80 198 C-79.2471875 198.61230469 -78.494375 199.22460938 -77.71875 199.85546875 C-64.7706801 209.86624501 -49.87431555 217.09247617 -34 221 C-33.29093506 221.18183838 -32.58187012 221.36367676 -31.85131836 221.55102539 C-24.18625885 223.32708544 -16.52619078 223.44209572 -8.6875 223.4375 C-7.6302774 223.43810425 -7.6302774 223.43810425 -6.55169678 223.4387207 C17.53169943 223.35969397 39.62892922 216.583649 59 202 C59.94359375 201.28972656 60.8871875 200.57945312 61.859375 199.84765625 C72.65477849 191.36342339 80.48663 181.33621971 88 170 C88.48339844 169.32582031 88.96679688 168.65164062 89.46484375 167.95703125 C94.04174592 161.33295239 96.53733477 153.59996759 99 146 C99.2160791 145.34870117 99.4321582 144.69740234 99.65478516 144.02636719 C108.04495125 117.54303115 104.5241054 85.37958861 91.99316406 60.85107422 C86.83368856 51.23476564 80.63520234 42.82982515 73 35 C72.13375 34.0925 71.2675 33.185 70.375 32.25 C60.22664407 22.48997517 60.22664407 22.48997517 48 16 C47.67 15.34 47.34 14.68 47 14 C45.10132412 13.03596635 45.10132412 13.03596635 42.75 12.1875 C41.38875 11.66929688 41.38875 11.66929688 40 11.140625 C39.01 10.76421875 38.02 10.3878125 37 10 C35.989375 9.58234375 34.97875 9.1646875 33.9375 8.734375 C22.95574456 4.26630784 11.82625284 1.79023349 0 1 C0 0.67 0 0.34 0 0 Z " fill="#FEFDFD" transform="translate(120,0)"/>
<path d="M0 0 C8.78987818 3.00056082 14.21553183 8.57482839 18.32421875 16.703125 C19.91815141 20.73516371 20.30364985 24.21835175 20.4453125 28.5390625 C14.82274089 30.4560198 9.92161865 30.78796174 4.0078125 30.6640625 C3.18087891 30.65503906 2.35394531 30.64601563 1.50195312 30.63671875 C-0.51705458 30.61337762 -2.53591106 30.57751538 -4.5546875 30.5390625 C-4.5546875 25.5890625 -4.5546875 20.6390625 -4.5546875 15.5390625 C-5.8746875 15.5390625 -7.1946875 15.5390625 -8.5546875 15.5390625 C-8.2246875 21.4790625 -7.8946875 27.4190625 -7.5546875 33.5390625 C-6.09675781 33.58804688 -4.63882813 33.63703125 -3.13671875 33.6875 C-1.2135233 33.76255153 0.70965288 33.83809833 2.6328125 33.9140625 C3.59251953 33.945 4.55222656 33.9759375 5.54101562 34.0078125 C6.47236328 34.04648438 7.40371094 34.08515625 8.36328125 34.125 C9.64368286 34.17213135 9.64368286 34.17213135 10.94995117 34.22021484 C13.70745672 34.57255828 15.91531219 35.40977497 18.4453125 36.5390625 C19.06610184 42.4699883 16.94168007 46.55396884 14.3828125 51.7265625 C13.97232666 52.57226807 13.56184082 53.41797363 13.13891602 54.28930664 C9.98914819 60.67516245 6.48031352 66.66997011 2.4453125 72.5390625 C1.02813031 74.6845554 -0.38852669 76.83039529 -1.8046875 78.9765625 C-3.973531 82.23416543 -6.17476169 85.43193713 -8.5546875 88.5390625 C-13.20600875 87.02442902 -15.01668277 83.27521854 -17.4921875 79.3515625 C-18.33345049 78.04480932 -19.17589576 76.73881651 -20.01953125 75.43359375 C-20.63610596 74.46413818 -20.63610596 74.46413818 -21.26513672 73.47509766 C-22.57364692 71.51059825 -23.99090938 69.66804838 -25.43359375 67.80078125 C-27.5546875 64.5390625 -27.5546875 64.5390625 -27.31225586 62.39770508 C-26.5546875 60.5390625 -26.5546875 60.5390625 -24.5546875 59.5390625 C-22.3473952 59.46813408 -20.13801298 59.45491225 -17.9296875 59.4765625 C-16.74117187 59.48558594 -15.55265625 59.49460938 -14.328125 59.50390625 C-13.41289063 59.51550781 -12.49765625 59.52710938 -11.5546875 59.5390625 C-11.48121094 60.49619141 -11.48121094 60.49619141 -11.40625 61.47265625 C-11.33148438 62.29894531 -11.25671875 63.12523437 -11.1796875 63.9765625 C-11.11007813 64.80027344 -11.04046875 65.62398438 -10.96875 66.47265625 C-10.83210938 67.15457031 -10.69546875 67.83648437 -10.5546875 68.5390625 C-9.8946875 68.8690625 -9.2346875 69.1990625 -8.5546875 69.5390625 C-8.5546875 65.2490625 -8.5546875 60.9590625 -8.5546875 56.5390625 C-10.02421875 56.59707031 -11.49375 56.65507813 -13.0078125 56.71484375 C-14.94007242 56.76174326 -16.87236667 56.80724321 -18.8046875 56.8515625 C-19.77277344 56.89345703 -20.74085937 56.93535156 -21.73828125 56.97851562 C-28.94666498 57.1027981 -28.94666498 57.1027981 -32.12890625 54.15234375 C-32.83466797 52.85876953 -32.83466797 52.85876953 -33.5546875 51.5390625 C-34.328125 50.4871875 -34.328125 50.4871875 -35.1171875 49.4140625 C-39.6707082 40.30702109 -41.37644253 29.64978376 -38.828125 19.703125 C-32.51033711 2.59886997 -16.96059015 -3.06016764 0 0 Z " fill="#FDFCFA" transform="translate(122.5546875,39.4609375)"/>
<path d="M0 0 C33.33 0 66.66 0 101 0 C101 0.33 101 0.66 101 1 C99.9584375 1.15855469 98.916875 1.31710938 97.84375 1.48046875 C80.56264077 4.23283376 66.65687006 9.09461955 51.62548828 18.16137695 C50 19 50 19 48 19 C48 19.66 48 20.32 48 21 C46.6015625 22.19140625 46.6015625 22.19140625 44.625 23.5625 C38.79968162 27.78871137 32.61296001 32.43854163 28.33203125 38.2734375 C27.89246094 38.84320313 27.45289062 39.41296875 27 40 C26.34 40 25.68 40 25 40 C24.79375 40.66 24.5875 41.32 24.375 42 C23.18160293 44.60377543 22.1470753 46.14074468 20.375 48.3125 C8.30994233 63.92610404 2.29697757 84.59005985 1 104 C0.67 104 0.34 104 0 104 C0 69.68 0 35.36 0 0 Z " fill="#FEFEFD" transform="translate(0,0)"/>
<path d="M0 0 C0.94875 0.04125 1.8975 0.0825 2.875 0.125 C3.37 1.115 3.37 1.115 3.875 2.125 C6.00076782 2.59151207 6.00076782 2.59151207 8.4375 2.75 C9.26378906 2.82476562 10.09007812 2.89953125 10.94140625 2.9765625 C11.57949219 3.02554688 12.21757812 3.07453125 12.875 3.125 C13.205 2.135 13.535 1.145 13.875 0.125 C13.875 0.785 13.875 1.445 13.875 2.125 C15.195 2.125 16.515 2.125 17.875 2.125 C17.875 1.465 17.875 0.805 17.875 0.125 C20.35 0.62 20.35 0.62 22.875 1.125 C22.875 1.785 22.875 2.445 22.875 3.125 C26.835 3.125 30.795 3.125 34.875 3.125 C34.875 2.135 34.875 1.145 34.875 0.125 C36.525 0.125 38.175 0.125 39.875 0.125 C39.875 1.445 39.875 2.765 39.875 4.125 C41.195 4.125 42.515 4.125 43.875 4.125 C43.875 5.775 43.875 7.425 43.875 9.125 C42.555 9.125 41.235 9.125 39.875 9.125 C39.875 11.765 39.875 14.405 39.875 17.125 C41.195 17.125 42.515 17.125 43.875 17.125 C43.875 18.775 43.875 20.425 43.875 22.125 C40.66832827 22.34363671 38.50259222 22.45622923 35.625 20.9375 C32.74525262 17.9549045 31.875 15.23037825 31.875 11.125 C30.885 11.125 29.895 11.125 28.875 11.125 C28.875 11.785 28.875 12.445 28.875 13.125 C27.885 13.125 26.895 13.125 25.875 13.125 C25.875 16.095 25.875 19.065 25.875 22.125 C23.895 22.125 21.915 22.125 19.875 22.125 C19.875 16.845 19.875 11.565 19.875 6.125 C19.215 6.125 18.555 6.125 17.875 6.125 C17.875 11.405 17.875 16.685 17.875 22.125 C8.635 22.125 -0.605 22.125 -10.125 22.125 C-10.125 17.835 -10.125 13.545 -10.125 9.125 C-11.775 9.125 -13.425 9.125 -15.125 9.125 C-15.125 13.415 -15.125 17.705 -15.125 22.125 C-17.105 22.125 -19.085 22.125 -21.125 22.125 C-21.125 17.835 -21.125 13.545 -21.125 9.125 C-22.445 9.455 -23.765 9.785 -25.125 10.125 C-25.455 14.085 -25.785 18.045 -26.125 22.125 C-27.775 22.125 -29.425 22.125 -31.125 22.125 C-31.125 16.185 -31.125 10.245 -31.125 4.125 C-22.79789819 1.83733467 -16.27792231 0.84570813 -7.70703125 1.99609375 C-6.42892578 2.05990234 -6.42892578 2.05990234 -5.125 2.125 C-3.125 0.125 -3.125 0.125 0 0 Z " fill="#EF581C" transform="translate(146.125,144.875)"/>
<path d="M0 0 C0.33 0 0.66 0 1 0 C1.33 2.97 1.66 5.94 2 9 C3.32 8.34 4.64 7.68 6 7 C6 7.66 6 8.32 6 9 C6.66 9 7.32 9 8 9 C8.93423645 12.01031744 9.04449911 12.86650268 8 16 C8.66 16.33 9.32 16.66 10 17 C8.89789095 18.75129657 7.79322568 20.50098464 6.6875 22.25 C6.07261719 23.22453125 5.45773438 24.1990625 4.82421875 25.203125 C3.29524241 27.54733713 1.71179023 29.78784032 0 32 C-4.65132125 30.48536652 -6.46199527 26.73615604 -8.9375 22.8125 C-9.77876299 21.50574682 -10.62120826 20.19975401 -11.46484375 18.89453125 C-11.87589355 18.24822754 -12.28694336 17.60192383 -12.71044922 16.93603516 C-14.01895942 14.97153575 -15.43622188 13.12898588 -16.87890625 11.26171875 C-19 8 -19 8 -18.75756836 5.85864258 C-18 4 -18 4 -16 3 C-13.7927077 2.92907158 -11.58332548 2.91584975 -9.375 2.9375 C-8.18648437 2.94652344 -6.99796875 2.95554687 -5.7734375 2.96484375 C-4.85820313 2.97644531 -3.94296875 2.98804687 -3 3 C-2.92652344 3.95712891 -2.92652344 3.95712891 -2.8515625 4.93359375 C-2.77679688 5.75988281 -2.70203125 6.58617188 -2.625 7.4375 C-2.55539063 8.26121094 -2.48578125 9.08492187 -2.4140625 9.93359375 C-2.27742188 10.61550781 -2.14078125 11.29742187 -2 12 C-1.34 12.33 -0.68 12.66 0 13 C0 8.71 0 4.42 0 0 Z " fill="#FAF7F1" transform="translate(114,96)"/>
<path d="M0 0 C3.75076665 -0.10784952 7.49843949 -0.18724988 11.25 -0.25 C12.31347656 -0.28351563 13.37695312 -0.31703125 14.47265625 -0.3515625 C15.49746094 -0.36445313 16.52226562 -0.37734375 17.578125 -0.390625 C18.99206543 -0.4220459 18.99206543 -0.4220459 20.43457031 -0.45410156 C23.78694926 0.13929631 24.94795949 1.33210956 27 4 C27.390625 7.453125 27.390625 7.453125 27.25 11.25 C27.21390625 12.51328125 27.1778125 13.7765625 27.140625 15.078125 C27.07101563 16.52445313 27.07101563 16.52445313 27 18 C25.02 18 23.04 18 21 18 C21 13.71 21 9.42 21 5 C19.35 5 17.7 5 16 5 C16 9.29 16 13.58 16 18 C14.02 18 12.04 18 10 18 C10 13.71 10 9.42 10 5 C8.68 5.33 7.36 5.66 6 6 C5.67 9.96 5.34 13.92 5 18 C3.35 18 1.7 18 0 18 C0 12.06 0 6.12 0 0 Z " fill="#F8E1D3" transform="translate(115,149)"/>
<path d="M0 0 C1.12003418 0.06828003 1.12003418 0.06828003 2.26269531 0.13793945 C5.85144531 0.29262695 5.85144531 0.29262695 9.51269531 0.45043945 C9.51269531 6.39043945 9.51269531 12.33043945 9.51269531 18.45043945 C7.45019531 18.49168945 5.38769531 18.53293945 3.26269531 18.57543945 C2.10253906 18.59864258 0.94238281 18.6218457 -0.25292969 18.64575195 C-3.33961327 18.45935802 -4.94526266 18.13514183 -7.48730469 16.45043945 C-10.0330626 13.01366628 -9.92403345 9.5993627 -9.48730469 5.45043945 C-6.97657576 1.04073281 -5.12964273 -0.10692504 0 0 Z " fill="#F6F0E4" transform="translate(153.4873046875,148.549560546875)"/>
<path d="M0 0 C13.28402832 -0.61500131 13.28402832 -0.61500131 16.4375 2.09375 C18.32849048 5.61099229 18.41032792 7.8443841 18.25 11.8125 C18.21390625 12.97394531 18.1778125 14.13539063 18.140625 15.33203125 C18.07101563 16.65267578 18.07101563 16.65267578 18 18 C16.02 18 14.04 18 12 18 C12 13.71 12 9.42 12 5 C10.02 5 8.04 5 6 5 C6 9.29 6 13.58 6 18 C4.02 18 2.04 18 0 18 C0 12.06 0 6.12 0 0 Z " fill="#F4DAC5" transform="translate(43,149)"/>
<path d="M0 0 C1.98 0 3.96 0 6 0 C6 0.66 6 1.32 6 2 C6.66 2 7.32 2 8 2 C8 2.66 8 3.32 8 4 C6.35 4.66 4.7 5.32 3 6 C3 7.98 3 9.96 3 12 C5.31 12 7.62 12 10 12 C10.33 8.37 10.66 4.74 11 1 C12.32 1 13.64 1 15 1 C15 6.28 15 11.56 15 17 C2.74715665 18.48519313 2.74715665 18.48519313 -0.86328125 16.140625 C-3.71057743 13.28812352 -3.97863639 12.598181 -4.125 8.5 C-4 5 -4 5 -3 3 C-2.34 3 -1.68 3 -1 3 C-0.67 2.01 -0.34 1.02 0 0 Z " fill="#F8EFE4" transform="translate(96,149)"/>
<path d="M0 0 C0.99 0.66 1.98 1.32 3 2 C3 2.66 3 3.32 3 4 C-0.28696233 4.79953138 -1.71023192 5.09658936 -5 4 C-5 4.66 -5 5.32 -5 6 C-3.2984375 6.4640625 -3.2984375 6.4640625 -1.5625 6.9375 C2 8 2 8 3 9 C3.04092937 11.33297433 3.04241723 13.66705225 3 16 C2.34 16 1.68 16 1 16 C1 16.66 1 17.32 1 18 C-0.258125 18.020625 -1.51625 18.04125 -2.8125 18.0625 C-3.52019531 18.07410156 -4.22789063 18.08570313 -4.95703125 18.09765625 C-7 18 -7 18 -10 17 C-10.6875 14.9375 -10.6875 14.9375 -11 13 C-8.23735711 12.40267181 -5.83967231 12 -3 12 C-4.134375 11.62875 -5.26875 11.2575 -6.4375 10.875 C-8.36328125 10.0546875 -8.36328125 10.0546875 -10 9 C-11.125 6 -11.125 6 -11 3 C-7.85239245 -1.34669613 -4.96089151 -1.11366952 0 0 Z " fill="#F8F6EF" transform="translate(74,149)"/>
<path d="M0 0 C0 1.65 0 3.3 0 5 C0.99 5 1.98 5 3 5 C3 6.65 3 8.3 3 10 C2.01 10 1.02 10 0 10 C0 12.64 0 15.28 0 18 C1.32 18 2.64 18 4 18 C4 19.65 4 21.3 4 23 C-2.35368578 23.47952345 -2.35368578 23.47952345 -4.9375 21.5625 C-6.52203208 17.74098146 -6.23546395 14.08137509 -6 10 C-6.66 10 -7.32 10 -8 10 C-8 8.35 -8 6.7 -8 5 C-7.34 5 -6.68 5 -6 5 C-6 3.68 -6 2.36 -6 1 C-4 0 -4 0 0 0 Z " fill="#F5EADF" transform="translate(87,144)"/>
<path d="M0 0 C1.65 0 3.3 0 5 0 C5 1.32 5 2.64 5 4 C6.32 4 7.64 4 9 4 C9 5.65 9 7.3 9 9 C7.68 9 6.36 9 5 9 C5 11.64 5 14.28 5 17 C6.32 17 7.64 17 9 17 C9 18.65 9 20.3 9 22 C3.25 22.125 3.25 22.125 1 21 C0.03929566 18.11788698 -0.10581883 16.30149956 -0.0625 13.3125 C-0.05347656 12.50425781 -0.04445312 11.69601563 -0.03515625 10.86328125 C-0.01775391 9.94095703 -0.01775391 9.94095703 0 9 C-0.99 9 -1.98 9 -3 9 C-3 7.35 -3 5.7 -3 4 C-2.01 4 -1.02 4 0 4 C0 2.68 0 1.36 0 0 Z " fill="#F9F2E5" transform="translate(181,145)"/>
<path d="M0 0 C1.32 0 2.64 0 4 0 C4 4.95 4 9.9 4 15 C8.95 15 13.9 15 19 15 C19 15.66 19 16.32 19 17 C22.3 17.99 25.6 18.98 29 20 C29.33 19.01 29.66 18.02 30 17 C29.67 19.64 29.34 22.28 29 25 C28.34 25 27.68 25 27 25 C27 23.68 27 22.36 27 21 C23.62013967 20.25362047 20.41039633 19.84236487 16.953125 19.71875 C16.02628906 19.68136719 15.09945312 19.64398438 14.14453125 19.60546875 C12.19923938 19.53458767 10.25392639 19.46428421 8.30859375 19.39453125 C7.38691406 19.35714844 6.46523437 19.31976563 5.515625 19.28125 C4.67290039 19.25095703 3.83017578 19.22066406 2.96191406 19.18945312 C1 19 1 19 0 18 C-0.08631874 16.65732587 -0.10706473 15.31025678 -0.09765625 13.96484375 C-0.09443359 13.15595703 -0.09121094 12.34707031 -0.08789062 11.51367188 C-0.07951172 10.66353516 -0.07113281 9.81339844 -0.0625 8.9375 C-0.05798828 8.08349609 -0.05347656 7.22949219 -0.04882812 6.34960938 C-0.03700373 4.23304337 -0.01906769 2.11651315 0 0 Z " fill="#E87C46" transform="translate(114,55)"/>
<path d="M0 0 C1.98 0 3.96 0 6 0 C6 8.25 6 16.5 6 25 C4.02 25 2.04 25 0 25 C0 16.75 0 8.5 0 0 Z " fill="#FAEEE4" transform="translate(34,142)"/>
<path d="M0 0 C0.54454834 0.1853833 1.08909668 0.3707666 1.65014648 0.56176758 C16.73949462 5.65178077 30.71158206 8.4788484 46.6875 8.375 C47.37377472 8.37067963 48.06004944 8.36635925 48.76712036 8.36190796 C56.55619091 8.28790835 64.26802744 7.96377807 72 7 C72 7.66 72 8.32 72 9 C68.38725819 9.82637353 65.04235642 10.13078194 61.33935547 10.14526367 C60.22825409 10.15164352 59.11715271 10.15802338 57.97238159 10.16459656 C56.78266754 10.16570938 55.59295349 10.1668222 54.3671875 10.16796875 C53.13839874 10.17129715 51.90960999 10.17462555 50.64358521 10.17805481 C48.04966608 10.18311201 45.45574046 10.18546351 42.86181641 10.18530273 C38.88303026 10.18749557 34.90451859 10.20568174 30.92578125 10.22460938 C28.40625095 10.2275422 25.88671933 10.22952774 23.3671875 10.23046875 C22.17342499 10.23765427 20.97966248 10.24483978 19.74972534 10.25224304 C18.64492828 10.24916641 17.54013123 10.24608978 16.40185547 10.24291992 C15.42876434 10.24434494 14.45567322 10.24576996 13.45309448 10.24723816 C11 10 11 10 8 8 C8 6.68 8 5.36 8 4 C7.236875 4.04125 6.47375 4.0825 5.6875 4.125 C3 4 3 4 0 2 C0 1.34 0 0.68 0 0 Z " fill="#F9F6EF" transform="translate(66,215)"/>
<path d="M0 0 C3.66666667 0 7.33333333 0 11 0 C11 1.98 11 3.96 11 6 C9.68 6.33 8.36 6.66 7 7 C6.67 10.63 6.34 14.26 6 18 C4.02 18 2.04 18 0 18 C0 12.06 0 6.12 0 0 Z " fill="#F7F8F5" transform="translate(166,149)"/>
<path d="M0 0 C0.33 0 0.66 0 1 0 C1.66 3.96 2.32 7.92 3 12 C3.33 12 3.66 12 4 12 C4 30.81 4 49.62 4 69 C3.01 69.495 3.01 69.495 2 70 C1.05488349 65.58945627 1.25405854 62.40774469 2 58 C2.29451748 52.98313702 2.34216824 47.96212673 2.375 42.9375 C2.38055908 42.22767975 2.38611816 41.5178595 2.3918457 40.78652954 C2.43584903 29.64158591 1.23325314 19.51054507 -1.90625 8.76171875 C-3 5 -3 5 -3 2 C-2.01 2 -1.02 2 0 2 C0 1.34 0 0.68 0 0 Z " fill="#FBF5ED" transform="translate(221,70)"/>
<path d="M0 0 C3.3 0 6.6 0 10 0 C10 5.94 10 11.88 10 18 C7.36 18 4.72 18 2 18 C2 17.67 2 17.34 2 17 C4.31 17 6.62 17 9 17 C9 11.72 9 6.44 9 1 C7.68 1 6.36 1 5 1 C5.01160156 1.78246094 5.02320312 2.56492188 5.03515625 3.37109375 C5.04417969 4.38300781 5.05320312 5.39492187 5.0625 6.4375 C5.07410156 7.44683594 5.08570312 8.45617187 5.09765625 9.49609375 C5 12 5 12 4 13 C0.5 13.125 0.5 13.125 -3 13 C-4 12 -4 12 -4.1875 9.0625 C-4 6 -4 6 -2 4 C-0.68 4 0.64 4 2 4 C2 3.34 2 2.68 2 2 C1.34 2 0.68 2 0 2 C0 1.34 0 0.68 0 0 Z " fill="#F4CAB8" transform="translate(102,149)"/>
<path d="M0 0 C0.66 0 1.32 0 2 0 C2.04898438 0.69867188 2.09796875 1.39734375 2.1484375 2.1171875 C2.22320312 3.02726562 2.29796875 3.93734375 2.375 4.875 C2.44460937 5.77992187 2.51421875 6.68484375 2.5859375 7.6171875 C2.79568132 10.17941903 2.79568132 10.17941903 5 12 C4.7578125 14.1640625 4.7578125 14.1640625 4.125 16.625 C3.92132813 17.44226563 3.71765625 18.25953125 3.5078125 19.1015625 C3.25644531 20.04128906 3.25644531 20.04128906 3 21 C0.70703125 20.81640625 0.70703125 20.81640625 -2 20 C-3.80078125 17.71484375 -3.80078125 17.71484375 -5.3125 14.9375 C-5.82425781 14.01839844 -6.33601563 13.09929687 -6.86328125 12.15234375 C-7.23839844 11.44207031 -7.61351563 10.73179688 -8 10 C-6.68 9.67 -5.36 9.34 -4 9 C-3.67 7.35 -3.34 5.7 -3 4 C-2.34 4 -1.68 4 -1 4 C-0.67 4.99 -0.34 5.98 0 7 C0 4.69 0 2.38 0 0 Z " fill="#F8FBF6" transform="translate(108,100)"/>
<path d="M0 0 C4.29 0 8.58 0 13 0 C13 0.66 13 1.32 13 2 C9.5647952 4.29013653 8.014669 4.17842973 4 4 C4.33 4.66 4.66 5.32 5 6 C5.07065617 8.04055005 5.08421976 10.08334257 5.0625 12.125 C5.05347656 13.22070312 5.04445313 14.31640625 5.03515625 15.4453125 C5.02355469 16.28835937 5.01195313 17.13140625 5 18 C3.35 18 1.7 18 0 18 C0 12.06 0 6.12 0 0 Z " fill="#F9FCF8" transform="translate(115,149)"/>
<path d="M0 0 C0.94875 0.04125 1.8975 0.0825 2.875 0.125 C2.215 1.445 1.555 2.765 0.875 4.125 C-0.115 3.795 -1.105 3.465 -2.125 3.125 C-2.01021587 5.18809376 -1.88273802 7.25048354 -1.75 9.3125 C-1.68039063 10.46105469 -1.61078125 11.60960937 -1.5390625 12.79296875 C-1.14990426 15.92459117 -0.4440149 18.27785809 0.875 21.125 C-0.775 21.455 -2.425 21.785 -4.125 22.125 C-4.455 16.845 -4.785 11.565 -5.125 6.125 C-8.06302421 5.1456586 -9.82875233 5.04931683 -12.875 5.125 C-17.08830529 5.17442294 -20.97844139 4.84614063 -25.125 4.125 C-24.795 3.465 -24.465 2.805 -24.125 2.125 C-18.34902298 0.94841209 -13.26849729 1.27970858 -7.4453125 2.06640625 C-6.67960937 2.08574219 -5.91390625 2.10507813 -5.125 2.125 C-3.125 0.125 -3.125 0.125 0 0 Z " fill="#F85009" transform="translate(146.125,144.875)"/>
<path d="M0 0 C0.33 0.66 0.66 1.32 1 2 C-0.36125 1.9690625 -0.36125 1.9690625 -1.75 1.9375 C-4.42672588 1.9889755 -6.46988052 2.2215017 -9 3 C-9.20970559 7.14093698 -9.20970559 7.14093698 -8 11 C-5.69034152 12.05352843 -3.3570226 13.05719096 -1 14 C-4.07322544 14.91058531 -6.80097361 15.08886184 -10 15 C-9.73323796 16.98491642 -9.73323796 16.98491642 -9 19 C-8.01 19.33 -7.02 19.66 -6 20 C-7.98 20 -9.96 20 -12 20 C-12.03738281 19.10796875 -12.07476562 18.2159375 -12.11328125 17.296875 C-12.17902344 16.12640625 -12.24476562 14.9559375 -12.3125 13.75 C-12.37050781 12.58984375 -12.42851563 11.4296875 -12.48828125 10.234375 C-13.02331529 6.85263311 -13.57764038 5.37665472 -16 3 C-19.10197397 2.19053578 -19.10197397 2.19053578 -22 2 C-22 1.67 -22 1.34 -22 1 C-14.64479068 0.36338219 -7.38395674 -0.12515181 0 0 Z " fill="#EA591A" transform="translate(73,147)"/>
<path d="M0 0 C7.26 0.33 14.52 0.66 22 1 C22 5.29 22 9.58 22 14 C21.01 13.67 20.02 13.34 19 13 C19 10.03 19 7.06 19 4 C16.91589342 4.08733973 14.83265331 4.19552278 12.75 4.3125 C11.58984375 4.37050781 10.4296875 4.42851563 9.234375 4.48828125 C5.89180362 5.01711803 4.4502943 5.73772333 2 8 C1.34 5.36 0.68 2.72 0 0 Z " fill="#E5540F" transform="translate(92,95)"/>
<path d="M0 0 C0.33 0 0.66 0 1 0 C1.08636719 0.969375 1.17273438 1.93875 1.26171875 2.9375 C2.10778456 11.31386764 3.62947813 18.98501504 6.41088867 26.9453125 C6.98713031 28.61486502 7.49946595 30.30620966 8 32 C7.67 32.66 7.34 33.32 7 34 C6.67 32.68 6.34 31.36 6 30 C5.34 30 4.68 30 4 30 C3.67 30.66 3.34 31.32 3 32 C2.01 31.34 1.02 30.68 0 30 C-0.34057617 27.01904297 -0.34057617 27.01904297 -0.29296875 23.2421875 C-0.28872391 22.57913605 -0.28447906 21.91608459 -0.28010559 21.23294067 C-0.26329971 19.11321559 -0.22564701 16.99443812 -0.1875 14.875 C-0.17245549 13.43881581 -0.15876668 12.00261672 -0.14648438 10.56640625 C-0.1133909 7.04396236 -0.0615968 3.52207364 0 0 Z " fill="#F7E7DC" transform="translate(0,120)"/>
<path d="M0 0 C1.21171875 0.00322266 2.4234375 0.00644531 3.671875 0.00976562 C4.94289063 0.01814453 6.21390625 0.02652344 7.5234375 0.03515625 C8.8021875 0.03966797 10.0809375 0.04417969 11.3984375 0.04882812 C14.56515042 0.06064422 17.73177106 0.0771181 20.8984375 0.09765625 C20.8984375 0.42765625 20.8984375 0.75765625 20.8984375 1.09765625 C19.26648438 1.35289063 19.26648438 1.35289063 17.6015625 1.61328125 C9.53339363 2.92668268 1.91399855 4.46652143 -5.78125 7.328125 C-8.1015625 8.09765625 -8.1015625 8.09765625 -11.1015625 8.09765625 C-11.1015625 7.43765625 -11.1015625 6.77765625 -11.1015625 6.09765625 C-10.1115625 5.43765625 -9.1215625 4.77765625 -8.1015625 4.09765625 C-8.1015625 3.10765625 -8.1015625 2.11765625 -8.1015625 1.09765625 C-5.33538687 -0.28543156 -3.0913825 -0.01444571 0 0 Z " fill="#FBF3E9" transform="translate(80.1015625,-0.09765625)"/>
<path d="M0 0 C4.43748635 -0.02896822 8.87494847 -0.04678788 13.3125 -0.0625 C14.57513672 -0.07087891 15.83777344 -0.07925781 17.13867188 -0.08789062 C18.95141602 -0.09272461 18.95141602 -0.09272461 20.80078125 -0.09765625 C21.91622314 -0.10289307 23.03166504 -0.10812988 24.1809082 -0.11352539 C27 -0 27 -0 30 1 C30 1.66 30 2.32 30 3 C30.66 3.33 31.32 3.66 32 4 C31.34 4 30.68 4 30 4 C30 4.66 30 5.32 30 6 C31.32 6.33 32.64 6.66 34 7 C30.96267269 8.51866365 29.10347367 7.23541877 25.9375 6.1875 C17.25719194 3.42124798 9.08312512 1.72058195 0 1 C0 0.67 0 0.34 0 0 Z " fill="#F7EDE0" transform="translate(120,0)"/>
<path d="M0 0 C6.45415293 5.00526146 12.36610657 11.09831971 15 19 C13.68 19.33 12.36 19.66 11 20 C10.814375 18.88625 10.62875 17.7725 10.4375 16.625 C9.963125 15.42875 9.48875 14.2325 9 13 C5.48599332 11.45913678 5.48599332 11.45913678 2 11 C1.664061 9.5422647 1.33133376 8.08378894 1 6.625 C0.814375 5.81289063 0.62875 5.00078125 0.4375 4.1640625 C0 2 0 2 0 0 Z " fill="#F5510A" transform="translate(193,35)"/>
<path d="M0 0 C1.76202886 6.49836245 1.58407569 13.71511239 -1 20 C-3.625 21.5625 -3.625 21.5625 -6 22 C-6 24.31 -6 26.62 -6 29 C-7.65 29.33 -9.3 29.66 -11 30 C-9.68105067 26.60582305 -8.21035872 23.33924461 -6.625 20.0625 C-3.63404311 13.56582212 -1.80421601 6.90440206 0 0 Z " fill="#F6EBDD" transform="translate(221,138)"/>
<path d="M0 0 C1.65 0 3.3 0 5 0 C5 4.29 5 8.58 5 13 C6.65 13 8.3 13 10 13 C10 13.33 10 13.66 10 14 C6.7 14 3.4 14 0 14 C0 9.38 0 4.76 0 0 Z " fill="#EF520D" transform="translate(131,154)"/>
<path d="M0 0 C1.98 0 3.96 0 6 0 C5.65066406 0.67546875 5.30132812 1.3509375 4.94140625 2.046875 C4.25884766 3.38492188 4.25884766 3.38492188 3.5625 4.75 C3.11003906 5.63171875 2.65757813 6.5134375 2.19140625 7.421875 C-1.91843335 16.31529839 -0.49178306 26.81154998 2 36 C1.34 36 0.68 36 0 36 C-0.495 34.515 -0.495 34.515 -1 33 C-1.66 32.67 -2.32 32.34 -3 32 C-3 24.08 -3 16.16 -3 8 C-2.34 8 -1.68 8 -1 8 C-0.67 7.01 -0.34 6.02 0 5 C0.66 5 1.32 5 2 5 C1.34 3.35 0.68 1.7 0 0 Z " fill="#EE5816" transform="translate(84,48)"/>
<path d="M0 0 C0 4.29 0 8.58 0 13 C-0.66 13 -1.32 13 -2 13 C-2 12.01 -2 11.02 -2 10 C-2.66 10 -3.32 10 -4 10 C-4 10.99 -4 11.98 -4 13 C-4.66 13 -5.32 13 -6 13 C-6 8.71 -6 4.42 -6 0 C-4 -1 -4 -1 0 0 Z " fill="#F05105" transform="translate(55,154)"/>
<path d="M0 0 C-0.33 1.32 -0.66 2.64 -1 4 C-0.01 4.33 0.98 4.66 2 5 C1.01 5.33 0.02 5.66 -1 6 C-1 6.66 -1 7.32 -1 8 C-0.34 8.33 0.32 8.66 1 9 C0.01 9 -0.98 9 -2 9 C-2 8.34 -2 7.68 -2 7 C-4.62187494 8.04874998 -5.79371361 8.64931313 -7.25 11.125 C-7.4975 11.74375 -7.745 12.3625 -8 13 C-10.31 13 -12.62 13 -15 13 C-4.5 0 -4.5 0 0 0 Z " fill="#F94E06" transform="translate(45,23)"/>
<path d="M0 0 C1.32 0 2.64 0 4 0 C4 5.28 4 10.56 4 16 C1.69 15.67 -0.62 15.34 -3 15 C-2.34 14.67 -1.68 14.34 -1 14 C-0.52998967 10.72444392 -0.52998967 10.72444392 -0.375 6.9375 C-0.30023438 5.64714844 -0.22546875 4.35679687 -0.1484375 3.02734375 C-0.09945312 2.02832031 -0.05046875 1.02929688 0 0 Z " fill="#F6FBF5" transform="translate(107,150)"/>
<path d="M0 0 C1.65 0 3.3 0 5 0 C5 1.32 5 2.64 5 4 C6.32 4 7.64 4 9 4 C9 5.65 9 7.3 9 9 C8.01 9 7.02 9 6 9 C6 8.34 6 7.68 6 7 C5.34 7 4.68 7 4 7 C3.87625 6.195625 3.7525 5.39125 3.625 4.5625 C3.41875 3.716875 3.2125 2.87125 3 2 C2.34 1.67 1.68 1.34 1 1 C1.34804687 1.69480469 1.69609375 2.38960937 2.0546875 3.10546875 C3.19886331 6.60891618 2.83559127 8.72006638 2.125 12.3125 C1.81949219 13.91544922 1.81949219 13.91544922 1.5078125 15.55078125 C1.25644531 16.76314453 1.25644531 16.76314453 1 18 C0.67 18 0.34 18 0 18 C0 15.03 0 12.06 0 9 C-0.99 9 -1.98 9 -3 9 C-3 7.35 -3 5.7 -3 4 C-2.01 4 -1.02 4 0 4 C0 2.68 0 1.36 0 0 Z " fill="#F7ECD9" transform="translate(181,145)"/>
<path d="M0 0 C2.97 0.495 2.97 0.495 6 1 C6 5.95 6 10.9 6 16 C4.68 16 3.36 16 2 16 C1.93941406 15.09636719 1.87882813 14.19273437 1.81640625 13.26171875 C1.73261719 12.08222656 1.64882812 10.90273437 1.5625 9.6875 C1.48128906 8.51574219 1.40007812 7.34398437 1.31640625 6.13671875 C1.1132629 2.97409042 1.1132629 2.97409042 0 0 Z " fill="#F9FBF6" transform="translate(135,150)"/>
<path d="M0 0 C2.01078066 3.50575238 2.79280998 6.99930785 3.625 10.9375 C3.88539063 12.14277344 4.14578125 13.34804687 4.4140625 14.58984375 C4.91307139 17.49407549 5.12243178 20.06720235 5 23 C4.34 23 3.68 23 3 23 C2.67 21.35 2.34 19.7 2 18 C1.34 18 0.68 18 0 18 C0 14.7 0 11.4 0 8 C-0.66 8 -1.32 8 -2 8 C-2.125 5.125 -2.125 5.125 -2 2 C-1.34 1.34 -0.68 0.68 0 0 Z " fill="#F15E1C" transform="translate(219,78)"/>
<path d="M0 0 C0.99 0.66 1.98 1.32 3 2 C3 2.66 3 3.32 3 4 C-0.28696233 4.79953138 -1.71023192 5.09658936 -5 4 C-5 4.66 -5 5.32 -5 6 C-4.34 6.33 -3.68 6.66 -3 7 C-4.32 7 -5.64 7 -7 7 C-7 6.01 -7 5.02 -7 4 C-7.99 4 -8.98 4 -10 4 C-10.33 4.99 -10.66 5.98 -11 7 C-10.51652174 1.44 -10.51652174 1.44 -8.3125 -0.4375 C-5.23448607 -1.18620609 -3.05357016 -0.77963494 0 0 Z " fill="#F8E2D1" transform="translate(74,149)"/>
<path d="M0 0 C0.99 0 1.98 0 3 0 C3 5.61 3 11.22 3 17 C6.63 17 10.26 17 14 17 C14 17.33 14 17.66 14 18 C9.38 18 4.76 18 0 18 C0 12.06 0 6.12 0 0 Z " fill="#EE6124" transform="translate(114,55)"/>
<path d="M0 0 C3.66666667 0 7.33333333 0 11 0 C11 1.98 11 3.96 11 6 C9.35 6.33 7.7 6.66 6 7 C6 6.01 6 5.02 6 4 C5.01 4.33 4.02 4.66 3 5 C3.33 4.01 3.66 3.02 4 2 C3.01 1.67 2.02 1.34 1 1 C1 6.28 1 11.56 1 17 C2.65 17 4.3 17 6 17 C6 17.33 6 17.66 6 18 C4.02 18 2.04 18 0 18 C0 12.06 0 6.12 0 0 Z " fill="#F6D9BF" transform="translate(166,149)"/>
<path d="M0 0 C4 1 4 1 5 2 C5.07271741 4.35313555 5.08370868 6.70833668 5.0625 9.0625 C5.05347656 10.35285156 5.04445313 11.64320313 5.03515625 12.97265625 C5.02355469 13.97167969 5.01195312 14.97070312 5 16 C3.68 16 2.36 16 1 16 C0.67 10.72 0.34 5.44 0 0 Z " fill="#F8FBF8" transform="translate(55,150)"/>
<path d="M0 0 C2.875 -0.125 2.875 -0.125 6 0 C6.66 0.66 7.32 1.32 8 2 C7.44444444 6.55555556 7.44444444 6.55555556 6 8 C3.5625 8.1875 3.5625 8.1875 1 8 C0.34 7.34 -0.32 6.68 -1 6 C-0.625 2.875 -0.625 2.875 0 0 Z " fill="#ED5C1E" transform="translate(150,154)"/>
<path d="M0 0 C1.36653252 3.7835288 0.67877281 6.69725229 -0.1875 10.5625 C-0.42855469 11.69816406 -0.66960937 12.83382812 -0.91796875 14.00390625 C-2.09746165 17.26986674 -3.04724642 18.28214543 -6 20 C-5.88628503 17.70774565 -5.75869036 15.41617612 -5.625 13.125 C-5.55539063 11.84882813 -5.48578125 10.57265625 -5.4140625 9.2578125 C-5 6 -5 6 -3 4 C-1.98758315 2.67607028 -0.98560611 1.34400833 0 0 Z " fill="#F35614" transform="translate(223,124)"/>
<path d="M0 0 C0.66 0 1.32 0 2 0 C1.32336749 4.29401403 0.45910148 8.51077146 -0.5 12.75 C-1.75041497 18.49580928 -2.60811472 24.13523415 -3 30 C-3.33 30 -3.66 30 -4 30 C-4.08701039 26.39598519 -4.14039388 22.79223988 -4.1875 19.1875 C-4.21263672 18.16333984 -4.23777344 17.13917969 -4.26367188 16.08398438 C-4.27333984 15.10107422 -4.28300781 14.11816406 -4.29296875 13.10546875 C-4.3086792 12.19949951 -4.32438965 11.29353027 -4.34057617 10.36010742 C-3.93156191 7.52574122 -3.09400549 6.85258292 -1 5 C-0.27802838 2.39388923 -0.27802838 2.39388923 0 0 Z " fill="#F9ECE0" transform="translate(4,74)"/>
<path d="M0 0 C0.66 0 1.32 0 2 0 C2 5.28 2 10.56 2 16 C-0.31 15.67 -2.62 15.34 -5 15 C-4 13 -4 13 -3 12 C-2.63039006 10.55043603 -2.30340007 9.08985345 -2 7.625 C-1.45118408 4.99239863 -0.85272538 2.55817615 0 0 Z " fill="#F9FBFA" transform="translate(160,150)"/>
<path d="M0 0 C0.33 0 0.66 0 1 0 C1.33 2.97 1.66 5.94 2 9 C3.32 8.34 4.64 7.68 6 7 C6 7.66 6 8.32 6 9 C6.66 9 7.32 9 8 9 C8.33 10.32 8.66 11.64 9 13 C8.34 13 7.68 13 7 13 C7 13.99 7 14.98 7 16 C5.35 16 3.7 16 2 16 C2 15.01 2 14.02 2 13 C1.34 13 0.68 13 0 13 C0 8.71 0 4.42 0 0 Z " fill="#F7EEE4" transform="translate(114,96)"/>
<path d="M0 0 C3 0.125 3 0.125 4 1.125 C4.1875 3.5625 4.1875 3.5625 4 6.125 C2 8.125 2 8.125 -0.5625 8.3125 C-3 8.125 -3 8.125 -4 7.125 C-4.125 4.125 -4.125 4.125 -4 1.125 C-3 0.125 -3 0.125 0 0 Z " fill="#EC5919" transform="translate(102,153.875)"/>
<path d="M0 0 C0.33 0 0.66 0 1 0 C1.02703562 2.58340384 1.04685611 5.16652308 1.0625 7.75 C1.07087891 8.47960937 1.07925781 9.20921875 1.08789062 9.9609375 C1.10391684 13.48670558 0.95292713 16.61034916 0 20 C-0.66 20 -1.32 20 -2 20 C-2 18.02 -2 16.04 -2 14 C-2.66 15.98 -3.32 17.96 -4 20 C-4.97812873 16.94371936 -5.00835683 15.14722553 -4.00390625 12.109375 C-3.77509766 11.40039062 -3.54628906 10.69140625 -3.31054688 9.9609375 C-3.06369141 9.23132813 -2.81683594 8.50171875 -2.5625 7.75 C-2.19801758 6.63238281 -2.19801758 6.63238281 -1.82617188 5.4921875 C-1.22667019 3.65841765 -0.61455513 1.82877996 0 0 Z " fill="#EF5C1B" transform="translate(7,72)"/>
<path d="M0 0 C4.62 0 9.24 0 14 0 C13.01 0.33 12.02 0.66 11 1 C11 2.65 11 4.3 11 6 C11.99 6 12.98 6 14 6 C14.33 9.63 14.66 13.26 15 17 C12.18167487 15.59083743 11.97406539 13.92219617 11 11 C11 10.01 11 9.02 11 8 C10.01 8 9.02 8 8 8 C8 8.66 8 9.32 8 10 C7.01 10 6.02 10 5 10 C5.33 9.01 5.66 8.02 6 7 C7.32 7 8.64 7 10 7 C10 5.02 10 3.04 10 1 C8.35 1.66 6.7 2.32 5 3 C5 2.34 5 1.68 5 1 C3.35 1 1.7 1 0 1 C0 0.67 0 0.34 0 0 Z " fill="#E3642A" transform="translate(167,148)"/>
<path d="M0 0 C4.29 0 8.58 0 13 0 C13 0.66 13 1.32 13 2 C9.53076119 4.31282587 8.07794425 4.42478586 4 4 C3.01 3.01 2.02 2.02 1 1 C1 6.28 1 11.56 1 17 C2.32 17.33 3.64 17.66 5 18 C3.35 18 1.7 18 0 18 C0 12.06 0 6.12 0 0 Z " fill="#FBF0E5" transform="translate(115,149)"/>
<path d="M0 0 C0.66 0.33 1.32 0.66 2 1 C1.67 2.98 1.34 4.96 1 7 C1.99 6.34 2.98 5.68 4 5 C4.99 5 5.98 5 7 5 C7.99 8.3 8.98 11.6 10 15 C6.39145611 13.19572805 4.18688934 11.55275204 1.25 8.875 C0.45078125 8.15054688 -0.3484375 7.42609375 -1.171875 6.6796875 C-2.07679687 5.84824219 -2.07679687 5.84824219 -3 5 C-2.34 4.67 -1.68 4.34 -1 4 C-0.34786708 1.97536745 -0.34786708 1.97536745 0 0 Z " fill="#F15C1B" transform="translate(38,189)"/>
<path d="M0 0 C1.65 0 3.3 0 5 0 C5 5.94 5 11.88 5 18 C1.7 18 -1.6 18 -5 18 C-5 17.34 -5 16.68 -5 16 C-5.99 15.67 -6.98 15.34 -8 15 C-7.67 14.34 -7.34 13.68 -7 13 C-4.6859378 12.26924352 -2.35171131 11.59861742 0 11 C-0.66 12.32 -1.32 13.64 -2 15 C-0.68 15 0.64 15 2 15 C2.66 15.66 3.32 16.32 4 17 C4 11.72 4 6.44 4 1 C2.68 0.67 1.36 0.34 0 0 Z " fill="#FAECDA" transform="translate(158,149)"/>
<path d="M0 0 C0.33 0 0.66 0 1 0 C1.33 1.65 1.66 3.3 2 5 C2.33 5 2.66 5 3 5 C3 10.94 3 16.88 3 23 C2.01 23 1.02 23 0 23 C0 15.41 0 7.82 0 0 Z " fill="#ED4E07" transform="translate(40,144)"/>
<path d="M0 0 C0.33 0.99 0.66 1.98 1 3 C2.65 3 4.3 3 6 3 C6 3.33 6 3.66 6 4 C0.94997778 5.03590199 -3.87416389 5.10251672 -9 5 C-9.33 5.66 -9.66 6.32 -10 7 C-10.66 7 -11.32 7 -12 7 C-12.33 8.98 -12.66 10.96 -13 13 C-14.65 11.68 -16.3 10.36 -18 9 C-17.01 9 -16.02 9 -15 9 C-15 7.35 -15 5.7 -15 4 C-12.11584117 2.55792059 -9.58278472 2.90605113 -6.375 2.9375 C-5.18648437 2.94652344 -3.99796875 2.95554688 -2.7734375 2.96484375 C-1.85820313 2.97644531 -0.94296875 2.98804688 0 3 C0 2.01 0 1.02 0 0 Z " fill="#EE662B" transform="translate(105,145)"/>
<path d="M0 0 C0.99 0.99 1.98 1.98 3 3 C2.67 3.66 2.34 4.32 2 5 C2.33 5.33 2.66 5.66 3 6 C0.8614515 8.1385485 -0.13275314 8.42655063 -3 9 C-3.66 11.31 -4.32 13.62 -5 16 C-6.65 16 -8.3 16 -10 16 C-6.93978541 10.46807362 -3.5552157 5.22616707 0 0 Z " fill="#F05D1B" transform="translate(124,112)"/>
<path d="M0 0 C0.33 0.99 0.66 1.98 1 3 C0.67 3.66 0.34 4.32 0 5 C0.66 5.33 1.32 5.66 2 6 C0.741875 6.020625 -0.51625 6.04125 -1.8125 6.0625 C-2.52019531 6.07410156 -3.22789063 6.08570313 -3.95703125 6.09765625 C-6 6 -6 6 -9 5 C-9.6875 2.9375 -9.6875 2.9375 -10 1 C-6.78548731 -0.60725635 -3.56387464 -0.05748185 0 0 Z " fill="#F8EBDE" transform="translate(73,161)"/>
<path d="M0 0 C0.33 0 0.66 0 1 0 C1 11.55 1 23.1 1 35 C0.01 35.495 0.01 35.495 -1 36 C-1.9433606 31.59765055 -1.76322683 28.39953778 -1 24 C-0.86166625 22.05674805 -0.75686009 20.11085381 -0.68359375 18.1640625 C-0.64169922 17.10058594 -0.59980469 16.03710938 -0.55664062 14.94140625 C-0.51732422 13.84699219 -0.47800781 12.75257812 -0.4375 11.625 C-0.39431641 10.50738281 -0.35113281 9.38976562 -0.30664062 8.23828125 C-0.20102589 5.49229801 -0.0989203 2.74623119 0 0 Z " fill="#F7DDCB" transform="translate(224,104)"/>
<path d="M0 0 C0.33 0.66 0.66 1.32 1 2 C-0.36125 1.9690625 -0.36125 1.9690625 -1.75 1.9375 C-4.42672588 1.9889755 -6.46988052 2.2215017 -9 3 C-9 3.66 -9 4.32 -9 5 C-9.99 5 -10.98 5 -12 5 C-12.33 5.66 -12.66 6.32 -13 7 C-13.556875 6.0409375 -13.556875 6.0409375 -14.125 5.0625 C-16.58052793 2.36141928 -18.44578805 2.31592995 -22 2 C-22 1.67 -22 1.34 -22 1 C-14.64479068 0.36338219 -7.38395674 -0.12515181 0 0 Z " fill="#F06326" transform="translate(73,147)"/>
<path d="M0 0 C0.33 0 0.66 0 1 0 C1.33 8.58 1.66 17.16 2 26 C1.01 26 0.02 26 -1 26 C-1.09744014 17.27369392 -1.16711095 8.66996704 0 0 Z " fill="#F35812" transform="translate(1,94)"/>
<path d="M0 0 C-0.33 1.98 -0.66 3.96 -1 6 C-4.63 5.34 -8.26 4.68 -12 4 C-11.67 3.01 -11.34 2.02 -11 1 C-7.08609399 -0.47694566 -4.00565371 -1.60226148 0 0 Z " fill="#EE5517" transform="translate(144,69)"/>
<path d="M0 0 C-0.185625 0.61875 -0.37125 1.2375 -0.5625 1.875 C-1.23686176 4.04160178 -1.23686176 4.04160178 0 6 C-1.32 6 -2.64 6 -4 6 C-4 6.66 -4 7.32 -4 8 C-4.99 7.67 -5.98 7.34 -7 7 C-7 6.67 -7 6.34 -7 6 C-10.63 6 -14.26 6 -18 6 C-14.81099544 3.87399696 -12.09585431 2.97863761 -8.4375 1.875 C-7.28121094 1.52179688 -6.12492188 1.16859375 -4.93359375 0.8046875 C-2 0 -2 0 0 0 Z " fill="#F7EDDD" transform="translate(156,216)"/>
<path d="M0 0 C1.65 0.33 3.3 0.66 5 1 C4.01 1.495 4.01 1.495 3 2 C3 3.65 3 5.3 3 7 C3.66 7.33 4.32 7.66 5 8 C4.01 8.33 3.02 8.66 2 9 C1.34 9.66 0.68 10.32 0 11 C-2.31 10.01 -4.62 9.02 -7 8 C-7 7.34 -7 6.68 -7 6 C-4.36 6 -1.72 6 1 6 C0.01 4.68 -0.98 3.36 -2 2 C-1.34 2 -0.68 2 0 2 C0 1.34 0 0.68 0 0 Z " fill="#E76C33" transform="translate(76,147)"/>
<path d="M0 0 C1.65 0.33 3.3 0.66 5 1 C1.56638098 4.63559661 -1.7973607 7.36113346 -6 10 C-6.38133299 8.0085944 -6.71325582 6.00720923 -7 4 C-6 3 -6 3 -2.9375 2.9375 C-1.4834375 2.9684375 -1.4834375 2.9684375 0 3 C0 2.01 0 1.02 0 0 Z " fill="#F15714" transform="translate(184,193)"/>
<path d="M0 0 C0.99 0 1.98 0 3 0 C3.33 3.3 3.66 6.6 4 10 C1.69 10.66 -0.62 11.32 -3 12 C-3 11.34 -3 10.68 -3 10 C-2.34 10 -1.68 10 -1 10 C-1.01160156 9.36191406 -1.02320312 8.72382813 -1.03515625 8.06640625 C-1.04417969 7.24011719 -1.05320312 6.41382813 -1.0625 5.5625 C-1.07410156 4.73878906 -1.08570312 3.91507813 -1.09765625 3.06640625 C-1 1 -1 1 0 0 Z " fill="#E86628" transform="translate(78,155)"/>
<path d="M0 0 C0.33 0 0.66 0 1 0 C1 2.64 1 5.28 1 8 C2.32 8 3.64 8 5 8 C5 9.65 5 11.3 5 13 C1.625 13.1875 1.625 13.1875 -2 13 C-2.66 12.01 -3.32 11.02 -4 10 C-2.68 9.34 -1.36 8.68 0 8 C0 5.36 0 2.72 0 0 Z " fill="#F7DFCE" transform="translate(86,154)"/>
<path d="M0 0 C1.485 0.99 1.485 0.99 3 2 C3.29296875 4.8203125 3.29296875 4.8203125 3.1875 8.125 C3.16042969 9.22070312 3.13335937 10.31640625 3.10546875 11.4453125 C3.07066406 12.28835937 3.03585938 13.13140625 3 14 C1.68 14 0.36 14 -1 14 C-1.02685938 11.85423363 -1.04633088 9.70837355 -1.0625 7.5625 C-1.07410156 6.36753906 -1.08570313 5.17257813 -1.09765625 3.94140625 C-1 1 -1 1 0 0 Z " fill="#FCFBFB" transform="translate(45,152)"/>
<path d="M0 0 C0 0.66 0 1.32 0 2 C-4.00320153 2.95377184 -7.72211747 3.1157616 -11.83203125 3.09765625 C-13.12431641 3.09443359 -14.41660156 3.09121094 -15.74804688 3.08789062 C-17.10286526 3.07953665 -18.45768297 3.07107172 -19.8125 3.0625 C-21.18684735 3.05748 -22.56119645 3.05291797 -23.93554688 3.04882812 C-27.29040924 3.03705668 -30.64518221 3.02061283 -34 3 C-34 2.67 -34 2.34 -34 2 C-33.29391602 1.97494385 -32.58783203 1.9498877 -31.86035156 1.92407227 C-28.65672491 1.80792631 -25.45337882 1.68528397 -22.25 1.5625 C-21.13882813 1.52318359 -20.02765625 1.48386719 -18.8828125 1.44335938 C-17.27792969 1.38051758 -17.27792969 1.38051758 -15.640625 1.31640625 C-14.16384277 1.26141968 -14.16384277 1.26141968 -12.65722656 1.20532227 C-8.29403554 0.86818117 -4.45158783 -0.10117245 0 0 Z " fill="#F7D2BC" transform="translate(138,222)"/>
<path d="M0 0 C0.99 0.33 1.98 0.66 3 1 C3 2.65 3 4.3 3 6 C3.66 6 4.32 6 5 6 C4.67 8.31 4.34 10.62 4 13 C2.68 13.33 1.36 13.66 0 14 C0 9.33333333 0 4.66666667 0 0 Z " fill="#F8FAFA" transform="translate(182,146)"/>
<path d="M0 0 C-0.33 0.99 -0.66 1.98 -1 3 C-7.6 3 -14.2 3 -21 3 C-21 2.67 -21 2.34 -21 2 C-13.94546999 0.79556805 -7.16562789 -0.28100502 0 0 Z " fill="#EC6221" transform="translate(109,0)"/>
<path d="M0 0 C-0.33 0.66 -0.66 1.32 -1 2 C-1.33 1.67 -1.66 1.34 -2 1 C-3.54094298 0.95276803 -5.08378342 0.96275005 -6.625 1 C-10.88215496 1.04893282 -14.81084675 0.72854839 -19 0 C-18.67 -0.66 -18.34 -1.32 -18 -2 C-11.9402916 -3.66641981 -5.26365752 -3.50910501 0 0 Z " fill="#ED6D33" transform="translate(140,149)"/>
<path d="M0 0 C0.66 0 1.32 0 2 0 C3.1577506 3.47325181 3.06866652 6.36067448 3 10 C1.02 10.99 1.02 10.99 -1 12 C-1.02687279 10.18757948 -1.04633715 8.37504767 -1.0625 6.5625 C-1.07410156 5.55316406 -1.08570312 4.54382813 -1.09765625 3.50390625 C-1 1 -1 1 0 0 Z " fill="#F7FBF9" transform="translate(83,152)"/>
<path d="M0 0 C0 0.66 0 1.32 0 2 C0.99 2.33 1.98 2.66 3 3 C2.67 4.32 2.34 5.64 2 7 C-2.43458973 5.6062718 -4.87378374 3.39417765 -8 0 C-5.13822943 -1.43088528 -3.06624227 -0.59991697 0 0 Z " fill="#F8F1E6" transform="translate(181,17)"/>
<path d="M0 0 C0.88945313 0.00322266 1.77890625 0.00644531 2.6953125 0.00976562 C4.07589844 0.02233398 4.07589844 0.02233398 5.484375 0.03515625 C6.42023438 0.03966797 7.35609375 0.04417969 8.3203125 0.04882812 C10.62506541 0.06058707 12.92968727 0.07702199 15.234375 0.09765625 C15.234375 0.42765625 15.234375 0.75765625 15.234375 1.09765625 C11.61104487 1.49016143 7.98567299 1.85867838 4.359375 2.22265625 C3.32683594 2.33480469 2.29429688 2.44695313 1.23046875 2.5625 C0.24433594 2.65917969 -0.74179688 2.75585938 -1.7578125 2.85546875 C-2.66901855 2.94973145 -3.58022461 3.04399414 -4.51904297 3.14111328 C-6.765625 3.09765625 -6.765625 3.09765625 -8.765625 1.09765625 C-5.76855805 0.22802538 -3.11605974 -0.01997474 0 0 Z " fill="#F35616" transform="translate(88.765625,2.90234375)"/>
<path d="M0 0 C0.99 0.33 1.98 0.66 3 1 C2.34 1 1.68 1 1 1 C0.67 1.99 0.34 2.98 0 4 C-0.33 4 -0.66 4 -1 4 C-1.33 7.96 -1.66 11.92 -2 16 C-0.35 16 1.3 16 3 16 C3 16.33 3 16.66 3 17 C1.02 17 -0.96 17 -3 17 C-3 12.71 -3 8.42 -3 4 C-4.98 4.33 -6.96 4.66 -9 5 C-9 4.34 -9 3.68 -9 3 C-7.88625 2.690625 -6.7725 2.38125 -5.625 2.0625 C-2.2054845 1.17673517 -2.2054845 1.17673517 0 0 Z " fill="#F4CEB5" transform="translate(128,150)"/>
<path d="M0 0 C0.9626424 3.85056958 1.06292469 5.32807835 0 9 C-0.66 9.66 -1.32 10.32 -2 11 C-2 10.01 -2 9.02 -2 8 C-3.32 9.32 -4.64 10.64 -6 12 C-6.66 11.67 -7.32 11.34 -8 11 C-5.36 7.37 -2.72 3.74 0 0 Z " fill="#F9E5D8" transform="translate(207,172)"/>
<path d="M0 0 C0.33 0.66 0.66 1.32 1 2 C1.66 2 2.32 2 3 2 C3 1.34 3 0.68 3 0 C8.28 0.33 13.56 0.66 19 1 C19 1.33 19 1.66 19 2 C15.15588153 2.64068641 11.70592803 3.02433755 7.8125 2.8125 C3.96382719 2.62878924 3.96382719 2.62878924 1.5 5 C1.005 5.66 0.51 6.32 0 7 C-0.38133299 5.0085944 -0.71325582 3.00720923 -1 1 C-0.67 0.67 -0.34 0.34 0 0 Z " fill="#EB652E" transform="translate(144,147)"/>
<path d="M0 0 C0.66 0 1.32 0 2 0 C2.13277344 0.61488281 2.26554688 1.22976562 2.40234375 1.86328125 C2.57894531 2.67152344 2.75554687 3.47976562 2.9375 4.3125 C3.19853516 5.51326172 3.19853516 5.51326172 3.46484375 6.73828125 C3.99886159 9.145401 3.99886159 9.145401 5 12 C3.35 12.33 1.7 12.66 0 13 C0 8.71 0 4.42 0 0 Z " fill="#E95815" transform="translate(142,154)"/>
<path d="M0 0 C2.64 0.66 5.28 1.32 8 2 C7.01 2.495 7.01 2.495 6 3 C6 3.66 6 4.32 6 5 C7.32 5.33 8.64 5.66 10 6 C6.8568669 7.57156655 4.634536 6.11705576 1.375 5.0625 C0.18648437 4.68222656 -1.00203125 4.30195312 -2.2265625 3.91015625 C-3.14179688 3.60980469 -4.05703125 3.30945313 -5 3 C-5 2.67 -5 2.34 -5 2 C-3.35 2 -1.7 2 0 2 C0 1.34 0 0.68 0 0 Z " fill="#F8E3D4" transform="translate(144,1)"/>
<path d="M0 0 C1.32 0.33 2.64 0.66 4 1 C4.66 3.31 5.32 5.62 6 8 C3.03 7.505 3.03 7.505 0 7 C0 4.69 0 2.38 0 0 Z " fill="#F0520F" transform="translate(87,155)"/>
<path d="M0 0 C2.31 0 4.62 0 7 0 C6.67 0.99 6.34 1.98 6 3 C6.66 3.33 7.32 3.66 8 4 C7.34 5.32 6.68 6.64 6 8 C1.3125 4.38671875 1.3125 4.38671875 0 3 C0 2.01 0 1.02 0 0 Z " fill="#F5EBE1" transform="translate(184,24)"/>
<path d="M0 0 C1.65 0 3.3 0 5 0 C5 1.32 5 2.64 5 4 C6.32 4 7.64 4 9 4 C9 5.65 9 7.3 9 9 C8.01 9 7.02 9 6 9 C6 8.34 6 7.68 6 7 C5.34 7 4.68 7 4 7 C3.87625 6.195625 3.7525 5.39125 3.625 4.5625 C3.315625 3.2940625 3.315625 3.2940625 3 2 C2.34 1.67 1.68 1.34 1 1 C0.67 1.99 0.34 2.98 0 4 C0 2.68 0 1.36 0 0 Z " fill="#FAF1E2" transform="translate(181,145)"/>
<path d="M0 0 C0.66 0.33 1.32 0.66 2 1 C2 4.63 2 8.26 2 12 C1.01 11.67 0.02 11.34 -1 11 C-1.02688151 9.35425434 -1.04634123 7.70838587 -1.0625 6.0625 C-1.07410156 5.14597656 -1.08570312 4.22945313 -1.09765625 3.28515625 C-1 1 -1 1 0 0 Z " fill="#E95E26" transform="translate(112,97)"/>
<path d="M0 0 C-2.18517099 2.40575607 -4.25919671 3.79535581 -7.1875 5.1875 C-7.90292969 5.53167969 -8.61835937 5.87585938 -9.35546875 6.23046875 C-9.89816406 6.48441406 -10.44085938 6.73835938 -11 7 C-11 5.68 -11 4.36 -11 3 C-7.38854512 0.02586069 -4.5894956 -0.32019737 0 0 Z " fill="#F8EEDF" transform="translate(64,10)"/>
<path d="M0 0 C0.33 0 0.66 0 1 0 C1.22281874 1.91503674 1.42771076 3.83216506 1.625 5.75 C1.74101563 6.81734375 1.85703125 7.8846875 1.9765625 8.984375 C2.00029475 12.03792399 1.61420985 13.46162421 0 16 C-1.3157048 11.23057011 -2.47543452 6.99206251 -2 2 C-1.34 1.34 -0.68 0.68 0 0 Z " fill="#EC5615" transform="translate(4,128)"/>
<path d="M0 0 C4.29 0 8.58 0 13 0 C13 0.66 13 1.32 13 2 C9.7 2.66 6.4 3.32 3 4 C3 3.34 3 2.68 3 2 C2.01 2 1.02 2 0 2 C0 1.34 0 0.68 0 0 Z " fill="#F45416" transform="translate(136,217)"/>
<path d="M0 0 C3.04516202 2.83332467 5.16868601 5.65500311 7.25 9.25 C8.03117187 10.58804688 8.03117187 10.58804688 8.828125 11.953125 C9.21484375 12.62859375 9.6015625 13.3040625 10 14 C8.68 14 7.36 14 6 14 C5.566875 12.88625 5.13375 11.7725 4.6875 10.625 C3.30088881 6.82487666 3.30088881 6.82487666 0 5 C-0.1875 2.375 -0.1875 2.375 0 0 Z " fill="#EA662C" transform="translate(102,114)"/>
<path d="M0 0 C0.66 0 1.32 0 2 0 C2 0.66 2 1.32 2 2 C3.32 2.33 4.64 2.66 6 3 C5.34 3.66 4.68 4.32 4 5 C3.83312552 7.58354218 3.83312552 7.58354218 4 10 C0.77686187 7.19275066 -0.64998321 5.31687378 -1 1 C-0.67 0.67 -0.34 0.34 0 0 Z " fill="#F8E5D3" transform="translate(96,100)"/>
<path d="M0 0 C-1.75 4.875 -1.75 4.875 -4 6 C-4.66 5.67 -5.32 5.34 -6 5 C-6 5.66 -6 6.32 -6 7 C-7.32 6.34 -8.64 5.68 -10 5 C-8.71186658 4.16121545 -7.41936744 3.32913217 -6.125 2.5 C-5.40570313 2.0359375 -4.68640625 1.571875 -3.9453125 1.09375 C-2 0 -2 0 0 0 Z " fill="#F7EDE0" transform="translate(104,40)"/>
<path d="M0 0 C1.98 0 3.96 0 6 0 C4.68775452 3.93673644 3.08089673 6.22719294 0 9 C0.020625 8.21625 0.04125 7.4325 0.0625 6.625 C0.18684063 4.01885039 0.18684063 4.01885039 -1 2 C-0.67 1.34 -0.34 0.68 0 0 Z " fill="#F5F0E6" transform="translate(19,40)"/>
<path d="M0 0 C0.81210938 0.33837891 0.81210938 0.33837891 1.640625 0.68359375 C0.856875 1.13734375 0.073125 1.59109375 -0.734375 2.05859375 C-3.39635531 3.56788117 -3.39635531 3.56788117 -5.359375 5.68359375 C-7.01552157 6.06578142 -8.68394524 6.39754477 -10.359375 6.68359375 C-11.349375 7.01359375 -12.339375 7.34359375 -13.359375 7.68359375 C-13.359375 7.02359375 -13.359375 6.36359375 -13.359375 5.68359375 C-11.61814951 4.64786479 -9.86600905 3.63046855 -8.109375 2.62109375 C-6.64757813 1.76837891 -6.64757813 1.76837891 -5.15625 0.8984375 C-2.359375 -0.31640625 -2.359375 -0.31640625 0 0 Z " fill="#E86227" transform="translate(70.359375,8.31640625)"/>
<path d="M0 0 C0.33 0.66 0.66 1.32 1 2 C0.29296875 4.09375 0.29296875 4.09375 -0.8125 6.5 C-1.16957031 7.2940625 -1.52664062 8.088125 -1.89453125 8.90625 C-3 11 -3 11 -5 13 C-5.33 11.35 -5.66 9.7 -6 8 C-5.34 8 -4.68 8 -4 8 C-4.33 6.68 -4.66 5.36 -5 4 C-4.0409375 3.8453125 -4.0409375 3.8453125 -3.0625 3.6875 C-2.381875 3.460625 -1.70125 3.23375 -1 3 C-0.67 2.01 -0.34 1.02 0 0 Z " fill="#EB5A19" transform="translate(216,152)"/>
<path d="M0 0 C0.99 0 1.98 0 3 0 C3.33 0.66 3.66 1.32 4 2 C4.99 1.67 5.98 1.34 7 1 C7.33 1.99 7.66 2.98 8 4 C7.01 5.485 7.01 5.485 6 7 C3.00675737 5.9024777 2.15389099 5.32317108 0.75 2.375 C0.5025 1.59125 0.255 0.8075 0 0 Z " fill="#F8F0E5" transform="translate(108,121)"/>
<path d="M0 0 C0.33 0 0.66 0 1 0 C1.13277344 1.10859375 1.26554687 2.2171875 1.40234375 3.359375 C1.58059757 4.8229327 1.75899028 6.28647349 1.9375 7.75 C2.06801758 8.84441406 2.06801758 8.84441406 2.20117188 9.9609375 C2.62027409 13.37584442 3.117274 16.67603543 4 20 C3.34 20 2.68 20 2 20 C1.67 19.01 1.34 18.02 1 17 C0.34 16.67 -0.32 16.34 -1 16 C-0.67 10.72 -0.34 5.44 0 0 Z " fill="#E97035" transform="translate(82,64)"/>
<path d="M0 0 C-0.928125 0.61875 -0.928125 0.61875 -1.875 1.25 C-4.11362309 2.82631336 -4.11362309 2.82631336 -4.9375 5.125 C-6 7 -6 7 -8.625 7.75 C-9.800625 7.87375 -9.800625 7.87375 -11 8 C-11 7.34 -11 6.68 -11 6 C-10.01 5.34 -9.02 4.68 -8 4 C-8 3.01 -8 2.02 -8 1 C-5.29120665 -0.35439668 -2.99066732 -0.06501451 0 0 Z " fill="#F8F6F4" transform="translate(80,0)"/>
<path d="M0 0 C2.31 0 4.62 0 7 0 C7.33 1.65 7.66 3.3 8 5 C7.34 5 6.68 5 6 5 C5.67 5.66 5.34 6.32 5 7 C0 1.125 0 1.125 0 0 Z " fill="#F15D1E" transform="translate(22,179)"/>
<path d="M0 0 C0.33 0 0.66 0 1 0 C1.59720137 5.82271337 -0.471757 9.9209404 -3 15 C-3.33 15 -3.66 15 -4 15 C-4.1234711 10.55504028 -3.39748841 7.19246523 -2 3 C-1.34 3.33 -0.68 3.66 0 4 C0 2.68 0 1.36 0 0 Z " fill="#FBEEDF" transform="translate(140,76)"/>
<path d="M0 0 C1.24939706 4.55780049 1.8340199 8.9670765 0 13.4375 C-0.33 13.953125 -0.66 14.46875 -1 15 C-1.66 14.67 -2.32 14.34 -3 14 C-2.28547412 9.23649415 -1.20465156 4.65798604 0 0 Z " fill="#F5E6D1" transform="translate(221,138)"/>
<path d="M0 0 C1.65 1.32 3.3 2.64 5 4 C1.25 7 1.25 7 -1 7 C-1 6.34 -1 5.68 -1 5 C-1.66 5 -2.32 5 -3 5 C-3 5.66 -3 6.32 -3 7 C-3.66 6.67 -4.32 6.34 -5 6 C-3.35 4.02 -1.7 2.04 0 0 Z " fill="#F16625" transform="translate(29,36)"/>
<path d="M0 0 C1 2 1 2 0.0625 5.125 C-0.288125 6.07375 -0.63875 7.0225 -1 8 C-1.66 8 -2.32 8 -3 8 C-3 8.66 -3 9.32 -3 10 C-2.34 10.33 -1.68 10.66 -1 11 C-1.99 11.33 -2.98 11.66 -4 12 C-4.66 11.34 -5.32 10.68 -6 10 C-4.02 6.7 -2.04 3.4 0 0 Z " fill="#EA5C1D" transform="translate(131,101)"/>
<path d="M0 0 C3 2 3 2 3.6875 4.625 C3.790625 5.40875 3.89375 6.1925 4 7 C1.03 6.505 1.03 6.505 -2 6 C-1.125 1.125 -1.125 1.125 0 0 Z " fill="#F25D17" transform="translate(12,61)"/>
<path d="M0 0 C0.99 0.33 1.98 0.66 3 1 C4.1875 4.5625 4.1875 4.5625 5 8 C4.01 8 3.02 8 2 8 C0.93224776 6.03533587 -0.06553465 4.03144641 -1 2 C-0.67 1.34 -0.34 0.68 0 0 Z " fill="#F7EFE4" transform="translate(208,50)"/>
<path d="M0 0 C3.08089673 2.77280706 4.68775452 5.06326356 6 9 C4.68 9.33 3.36 9.66 2 10 C1.34 6.7 0.68 3.4 0 0 Z " fill="#F06024" transform="translate(202,45)"/>
<path d="M0 0 C2.97 0.495 2.97 0.495 6 1 C6.66 2.98 7.32 4.96 8 7 C6.25 6.875 6.25 6.875 4 6 C1.75 2.9375 1.75 2.9375 0 0 Z " fill="#F4F4EC" transform="translate(200,42)"/>
<path d="M0 0 C4.95 0.33 9.9 0.66 15 1 C15 1.99 15 2.98 15 4 C9.76119922 3.44854729 5.02649303 2.57077907 0 1 C0 0.67 0 0.34 0 0 Z " fill="#EB652A" transform="translate(75,218)"/>
<path d="M0 0 C1.32 0.33 2.64 0.66 4 1 C4 1.99 4 2.98 4 4 C4.66 4.33 5.32 4.66 6 5 C6 5.66 6 6.32 6 7 C4.35 6.67 2.7 6.34 1 6 C0.67 4.02 0.34 2.04 0 0 Z " fill="#F7F7F1" transform="translate(147,160)"/>
<path d="M0 0 C4.4571874 0.26218749 6.51522698 0.57711289 9.9375 3.5625 C10.618125 4.366875 11.29875 5.17125 12 6 C9.03 5.505 9.03 5.505 6 5 C5.67 4.01 5.34 3.02 5 2 C3.35 2 1.7 2 0 2 C0 1.34 0 0.68 0 0 Z " fill="#F8E7D6" transform="translate(120,40)"/>
<path d="M0 0 C3.53586014 3.17320782 5.58578031 5.16743695 6 10 C4.02 10.99 4.02 10.99 2 12 C2.04125 10.948125 2.0825 9.89625 2.125 8.8125 C2.00852125 5.25989827 1.52791932 3.15133359 0 0 Z " fill="#FAE4D6" transform="translate(16,171)"/>
<path d="M0 0 C0 1.65 0 3.3 0 5 C-0.33 4.34 -0.66 3.68 -1 3 C-2.32 3 -3.64 3 -5 3 C-5.33 3.99 -5.66 4.98 -6 6 C-6 4.02 -6 2.04 -6 0 C-3.50907189 -1.24546405 -2.58919267 -0.7767578 0 0 Z " fill="#EE5621" transform="translate(55,154)"/>
<path d="M0 0 C2.97 0.495 2.97 0.495 6 1 C4.35 2.65 2.7 4.3 1 6 C0.34 5.67 -0.32 5.34 -1 5 C-0.67 3.35 -0.34 1.7 0 0 Z " fill="#F25613" transform="translate(90,42)"/>
<path d="M0 0 C0.66 0.33 1.32 0.66 2 1 C1.67 2.65 1.34 4.3 1 6 C0.34 6 -0.32 6 -1 6 C-1 5.34 -1 4.68 -1 4 C-2.32 4.33 -3.64 4.66 -5 5 C-3.35 3.35 -1.7 1.7 0 0 Z M2 2 C2.66 2 3.32 2 4 2 C3.67 3.32 3.34 4.64 3 6 C2.34 5.01 1.68 4.02 1 3 C1.33 2.67 1.66 2.34 2 2 Z " fill="#FAECDF" transform="translate(180,201)"/>
<path d="M0 0 C0.98247098 3.0565764 1.07716184 4.96436209 0 8 C-0.99 9.485 -0.99 9.485 -2 11 C-2.66 10.67 -3.32 10.34 -4 10 C-2.8905928 6.51329166 -1.73662334 3.22515763 0 0 Z " fill="#ED652A" transform="translate(137,89)"/>
<path d="M0 0 C1.134375 0.020625 2.26875 0.04125 3.4375 0.0625 C3.7675 0.7225 4.0975 1.3825 4.4375 2.0625 C2.1875 3.25 2.1875 3.25 -0.5625 4.0625 C-2.875 2.6875 -2.875 2.6875 -4.5625 1.0625 C-3.5625 0.0625 -3.5625 0.0625 0 0 Z " fill="#F0560E" transform="translate(60.5625,207.9375)"/>
<path d="M0 0 C5.28 0 10.56 0 16 0 C16 0.99 16 1.98 16 3 C10.72 2.34 5.44 1.68 0 1 C0 0.67 0 0.34 0 0 Z " fill="#E8642C" transform="translate(109,38)"/>
<path d="M0 0 C3.465 1.98 3.465 1.98 7 4 C7 4.99 7 5.98 7 7 C5.35 7 3.7 7 2 7 C2 5.33333333 2 3.66666667 2 2 C1.34 2 0.68 2 0 2 C0 1.34 0 0.68 0 0 Z " fill="#F25F20" transform="translate(170,16)"/>
<path d="M0 0 C1.43931117 0.45261358 2.87638999 0.91232979 4.3125 1.375 C5.11300781 1.63023437 5.91351563 1.88546875 6.73828125 2.1484375 C9 3 9 3 12 5 C10.56163249 4.88541307 9.12429034 4.75790884 7.6875 4.625 C6.88699219 4.55539063 6.08648437 4.48578125 5.26171875 4.4140625 C3 4 3 4 0 2 C0 1.34 0 0.68 0 0 Z " fill="#F8ECD6" transform="translate(66,215)"/>
<path d="M0 0 C0.33 0.66 0.66 1.32 1 2 C-0.125 4.625 -0.125 4.625 -2 7 C-4.6875 7.3125 -4.6875 7.3125 -7 7 C-4.66666667 4.66666667 -2.33333333 2.33333333 0 0 Z " fill="#FBEFE2" transform="translate(191,192)"/>
<path d="M0 0 C1.32 0.33 2.64 0.66 4 1 C4 1.66 4 2.32 4 3 C3.01 3.495 3.01 3.495 2 4 C1.67 4.99 1.34 5.98 1 7 C0.01 6.34 -0.98 5.68 -2 5 C-2 4.01 -2 3.02 -2 2 C-1.34 2 -0.68 2 0 2 C0 1.34 0 0.68 0 0 Z " fill="#EE5917" transform="translate(33,186)"/>
<path d="M0 0 C0.99 0 1.98 0 3 0 C3 0.99 3 1.98 3 3 C4.65 3 6.3 3 8 3 C7.67 3.66 7.34 4.32 7 5 C4.69 4.67 2.38 4.34 0 4 C0 2.68 0 1.36 0 0 Z " fill="#F4FBF6" transform="translate(64,153)"/>
<path d="M0 0 C0.66 0 1.32 0 2 0 C2 0.99 2 1.98 2 3 C2.66 3.33 3.32 3.66 4 4 C3.67 7.3 3.34 10.6 3 14 C2.67 14 2.34 14 2 14 C2 11.03 2 8.06 2 5 C1.34 5 0.68 5 0 5 C0 3.35 0 1.7 0 0 Z " fill="#F4DBC3" transform="translate(79,149)"/>
<path d="M0 0 C2.02350324 3.03525486 2.32124018 4.19426202 2.625 7.6875 C2.69976562 8.49574219 2.77453125 9.30398437 2.8515625 10.13671875 C2.90054688 10.75160156 2.94953125 11.36648437 3 12 C2.34 12 1.68 12 1 12 C0.45533613 7.915021 0 4.1274515 0 0 Z " fill="#F7D2BA" transform="translate(140,56)"/>
<path d="M0 0 C2.31 1.98 4.62 3.96 7 6 C5.68 6.33 4.36 6.66 3 7 C2.34 7.66 1.68 8.32 1 9 C0.67 6.03 0.34 3.06 0 0 Z " fill="#EB5E1C" transform="translate(193,35)"/>
<path d="M0 0 C2.64 0 5.28 0 8 0 C8 0.66 8 1.32 8 2 C6.68 2 5.36 2 4 2 C4 2.66 4 3.32 4 4 C2.68 3.34 1.36 2.68 0 2 C0 1.34 0 0.68 0 0 Z " fill="#F2540E" transform="translate(64,211)"/>
<path d="M0 0 C1.98 0 3.96 0 6 0 C5.6875 1.9375 5.6875 1.9375 5 4 C4.01 4.33 3.02 4.66 2 5 C1.34 4.34 0.68 3.68 0 3 C0 2.01 0 1.02 0 0 Z " fill="#F2530C" transform="translate(28,184)"/>
<path d="M0 0 C1.98 0 3.96 0 6 0 C6 0.99 6 1.98 6 3 C3.03 2.505 3.03 2.505 0 2 C0 2.66 0 3.32 0 4 C0.66 4.33 1.32 4.66 2 5 C0.68 4.67 -0.64 4.34 -2 4 C-1.34 2.68 -0.68 1.36 0 0 Z " fill="#F7F0E3" transform="translate(69,151)"/>
<path d="M0 0 C0.33 0 0.66 0 1 0 C0.67 2.64 0.34 5.28 0 8 C-0.66 8 -1.32 8 -2 8 C-2 6.68 -2 5.36 -2 4 C-3.65 3.67 -5.3 3.34 -7 3 C-3.98968256 2.06576355 -3.13349732 1.95550089 0 3 C0 2.01 0 1.02 0 0 Z " fill="#EE6B36" transform="translate(143,72)"/>
<path d="M0 0 C2.15377564 2.62198774 3.40072174 4.64404172 4 8 C3.34 8 2.68 8 2 8 C1.67 7.34 1.34 6.68 1 6 C0.34 6.66 -0.32 7.32 -1 8 C-1.125 2.25 -1.125 2.25 0 0 Z " fill="#EE5817" transform="translate(212,62)"/>
<path d="M0 0 C-0.33 1.32 -0.66 2.64 -1 4 C-1.66 4 -2.32 4 -3 4 C-3 4.66 -3 5.32 -3 6 C-4.98 6.99 -4.98 6.99 -7 8 C-4.18918919 0 -4.18918919 0 0 0 Z " fill="#F9E1C7" transform="translate(94,46)"/>
<path d="M0 0 C0.86625 0.2784375 0.86625 0.2784375 1.75 0.5625 C4.20692525 1.04023546 5.64397534 0.75729364 8 0 C6.375 2 6.375 2 4 4 C0.75 4.25 0.75 4.25 -2 4 C-1.34 2.68 -0.68 1.36 0 0 Z " fill="#F25914" transform="translate(23,44)"/>
<path d="M0 0 C2.25 0.25 2.25 0.25 4 1 C-0.75 5.875 -0.75 5.875 -3 7 C-3.33 6.01 -3.66 5.02 -4 4 C-2.25 1.9375 -2.25 1.9375 0 0 Z " fill="#F8F1E9" transform="translate(36,25)"/>
<path d="M0 0 C0 0.66 0 1.32 0 2 C2.31 2.33 4.62 2.66 7 3 C7 3.33 7 3.66 7 4 C-0.50769231 4.36923077 -0.50769231 4.36923077 -3 2.5 C-3.33 2.005 -3.66 1.51 -4 1 C-2 0 -2 0 0 0 Z " fill="#F8F5EC" transform="translate(167,211)"/>
<path d="M0 0 C0.33 0 0.66 0 1 0 C1 1.98 1 3.96 1 6 C-0.32 6.33 -1.64 6.66 -3 7 C-3 3.4833494 -2.23600438 2.59376508 0 0 Z " fill="#F7EBDF" transform="translate(198,184)"/>
<path d="M0 0 C0.66 0.33 1.32 0.66 2 1 C1.34 2.32 0.68 3.64 0 5 C-2.64 4.01 -5.28 3.02 -8 2 C-5.53925394 0.76962697 -3.7202437 1 -1 1 C-0.67 0.67 -0.34 0.34 0 0 Z " fill="#F9E5D5" transform="translate(72,156)"/>
<path d="M0 0 C0.99 0 1.98 0 3 0 C3 2.64 3 5.28 3 8 C2.34 8 1.68 8 1 8 C1 6.68 1 5.36 1 4 C0.34 3.67 -0.32 3.34 -1 3 C-0.67 2.01 -0.34 1.02 0 0 Z " fill="#F74B05" transform="translate(78,155)"/>
<path d="M0 0 C0.99 0.33 1.98 0.66 3 1 C3 2.65 3 4.3 3 6 C1.68 6 0.36 6 -1 6 C-0.67 4.02 -0.34 2.04 0 0 Z " fill="#F8F4EF" transform="translate(217,152)"/>
<path d="M0 0 C2 3 2 3 1.75 6.125 C1.5025 7.07375 1.255 8.0225 1 9 C0.01 9.495 0.01 9.495 -1 10 C-1.125 3.375 -1.125 3.375 0 0 Z " fill="#F8ECDC" transform="translate(2,136)"/>
<path d="M0 0 C0.66 0.99 1.32 1.98 2 3 C-1.32534757 4.10844919 -3.62182575 3.84454356 -7 3 C-6.67 2.34 -6.34 1.68 -6 1 C-2.9375 0.375 -2.9375 0.375 0 0 Z " fill="#FB5003" transform="translate(139,70)"/>
<path d="M0 0 C0.99 0.33 1.98 0.66 3 1 C2.01 1.495 2.01 1.495 1 2 C1 2.66 1 3.32 1 4 C1.99 4 2.98 4 4 4 C4 4.99 4 5.98 4 7 C2.68 7 1.36 7 0 7 C0 4.69 0 2.38 0 0 Z " fill="#F4FCF9" transform="translate(126,159)"/>
<path d="M0 0 C3 1 3 1 4 3 C3.01 3.99 2.02 4.98 1 6 C0.34 5.34 -0.32 4.68 -1 4 C-0.625 1.875 -0.625 1.875 0 0 Z " fill="#F6F4EB" transform="translate(25,34)"/>
<path d="M0 0 C3.875 1.75 3.875 1.75 5 4 C3.35 4.33 1.7 4.66 0 5 C-0.33 4.01 -0.66 3.02 -1 2 C-0.67 1.34 -0.34 0.68 0 0 Z " fill="#F4F0E9" transform="translate(26,186)"/>
<path d="M0 0 C2.3431213 0.25561323 4.67843403 0.59270772 7 1 C7.33 1.66 7.66 2.32 8 3 C6.35 3.66 4.7 4.32 3 5 C2.01 3.35 1.02 1.7 0 0 Z " fill="#EF5814" transform="translate(16,170)"/>
<path d="M0 0 C0.66 0 1.32 0 2 0 C2 0.66 2 1.32 2 2 C3.32 2.33 4.64 2.66 6 3 C6 3.99 6 4.98 6 6 C5.01 6.33 4.02 6.66 3 7 C2.01 4.69 1.02 2.38 0 0 Z " fill="#EE5A1D" transform="translate(138,52)"/>
<path d="M0 0 C-0.33 2.31 -0.66 4.62 -1 7 C-2.32 5.68 -3.64 4.36 -5 3 C-1.125 0 -1.125 0 0 0 Z " fill="#F9F4E6" transform="translate(200,33)"/>
<path d="M0 0 C0 1.65 0 3.3 0 5 C-3.75 6.125 -3.75 6.125 -6 5 C-1.125 0 -1.125 0 0 0 Z " fill="#EE692E" transform="translate(36,30)"/>
<path d="M0 0 C0.99 0.66 1.98 1.32 3 2 C2.34 3.65 1.68 5.3 1 7 C0.01 6.67 -0.98 6.34 -2 6 C-1.34 4.02 -0.68 2.04 0 0 Z " fill="#EE5C1B" transform="translate(205,168)"/>
<path d="M0 0 C0.99 0 1.98 0 3 0 C3.66 1.65 4.32 3.3 5 5 C3.02 5 1.04 5 -1 5 C-0.67 3.35 -0.34 1.7 0 0 Z " fill="#F4561B" transform="translate(44,144)"/>
<path d="M0 0 C1.231394 3.69418201 0.64432764 6.2056261 0 10 C-3 6.25 -3 6.25 -3 4 C-2.34 4 -1.68 4 -1 4 C-0.67 2.68 -0.34 1.36 0 0 Z " fill="#FCEADB" transform="translate(215,56)"/>
<path d="M0 0 C0.99 0 1.98 0 3 0 C1.92598892 2.91517292 1.22189824 4.77810176 -1 7 C-1.33 5.35 -1.66 3.7 -2 2 C-1.34 2 -0.68 2 0 2 C0 1.34 0 0.68 0 0 Z " fill="#F8ECDB" transform="translate(13,54)"/>
<path d="M0 0 C-1.33332095 3.99996286 -3.4957827 4.83782337 -7 7 C-7.66 6.67 -8.32 6.34 -9 6 C-7.8803014 4.99406757 -6.7540588 3.9954151 -5.625 3 C-4.68527344 2.1646875 -4.68527344 2.1646875 -3.7265625 1.3125 C-2 0 -2 0 0 0 Z " fill="#E66A37" transform="translate(45,23)"/>
</svg>
