<svg xmlns="http://www.w3.org/2000/svg" width="225" height="225" viewBox="0 0 225 225">
<g>
<path d="M 40.55 166.91 C39.61,168.44 34.04,168.27 33.44,166.69 C33.16,165.97 33.08,160.01 33.25,153.44 L 33.57 141.50 L 33.78 154.25 L 34.00 167.00 L 40.00 167.00 L 40.08 156.25 C40.12,150.34 40.35,145.97 40.59,146.55 C40.86,147.17 43.89,147.49 48.15,147.33 C56.31,147.02 56.68,147.89 48.82,148.85 L 43.50 149.50 L 43.50 166.50 L 46.25 166.82 C48.92,167.12 49.00,167.00 49.00,162.15 C49.00,155.61 49.71,154.00 52.61,154.00 C54.90,154.00 54.99,154.27 54.82,160.25 L 54.63 166.50 L 54.26 161.25 C54.00,157.54 53.48,156.00 52.47,156.00 C50.83,156.00 49.49,160.23 50.39,162.57 C51.39,165.18 49.20,168.00 46.16,168.00 C44.64,168.00 42.91,167.51 42.31,166.91 C41.53,166.13 41.04,166.13 40.55,166.91 ZM 121.65 162.00 C120.65,166.78 120.17,167.53 118.00,167.74 C113.20,168.21 112.00,166.10 112.00,157.14 L 112.00 149.00 L 107.50 149.00 C105.00,149.00 103.00,148.53 103.00,147.94 C103.00,147.36 103.47,147.18 104.05,147.53 C104.63,147.89 109.25,148.23 114.30,148.29 C119.36,148.35 121.59,148.56 119.25,148.76 L 115.00 149.11 L 115.00 158.06 C115.00,166.93 115.02,167.00 117.50,167.00 C119.78,167.00 120.01,166.60 120.12,162.50 C120.19,160.02 120.36,157.55 120.50,157.00 C120.64,156.45 120.81,155.55 120.88,155.00 C120.94,154.45 121.90,154.00 123.00,154.00 C124.63,154.00 125.01,154.69 125.07,157.75 C125.12,159.81 125.34,162.51 125.57,163.75 C125.80,164.99 125.54,166.00 124.99,166.00 C124.45,166.00 123.92,165.21 123.83,164.25 C123.73,163.29 123.56,161.82 123.44,161.00 C123.31,160.18 123.12,158.82 123.01,158.00 C122.90,157.18 122.29,158.98 121.65,162.00 ZM 136.31 73.36 C136.96,73.62 132.74,73.88 126.92,73.92 C121.10,73.96 116.03,73.70 115.67,73.33 C115.30,72.97 115.00,68.65 115.00,63.75 C115.00,57.06 115.31,54.94 116.25,55.25 C117.04,55.50 117.69,58.41 118.00,63.08 L 118.50 70.50 L 127.32 70.34 C134.33,70.22 136.04,70.46 135.63,71.53 C135.34,72.27 135.65,73.09 136.31,73.36 ZM 163.53 166.95 C163.17,167.53 160.77,167.92 158.19,167.83 L 153.50 167.65 L 157.98 167.26 C160.45,167.04 162.81,166.33 163.22,165.68 C163.63,165.03 163.98,161.04 163.98,156.80 L 164.00 149.11 L 159.25 148.77 C156.64,148.58 159.39,148.36 165.36,148.27 C171.34,148.18 175.93,148.40 175.57,148.77 C175.20,149.13 173.01,149.44 170.70,149.46 L 166.50 149.50 L 166.50 166.50 L 169.25 166.82 C171.93,167.12 172.00,167.00 172.00,162.09 C172.00,157.47 172.26,156.92 175.09,155.45 C179.65,153.09 181.02,154.10 180.90,159.72 C180.80,164.29 180.76,164.35 180.00,161.16 C178.22,153.61 173.83,154.51 173.00,162.60 C172.54,167.09 172.26,167.53 169.69,167.82 C168.14,168.00 166.27,167.64 165.53,167.02 C164.60,166.25 163.98,166.23 163.53,166.95 ZM 91.55 166.92 C91.18,167.51 89.22,167.92 87.19,167.83 L 83.50 167.66 L 87.25 167.27 C90.39,166.94 91.00,166.50 91.00,164.56 C91.00,163.07 90.28,162.04 89.00,161.71 C87.56,161.33 87.00,160.35 87.00,158.16 C87.00,156.01 87.58,154.95 89.00,154.50 C90.24,154.11 91.00,152.99 91.00,151.55 C91.00,150.07 90.27,149.04 89.00,148.71 C87.90,148.42 87.00,147.43 87.00,146.50 C87.00,145.12 87.55,145.29 90.07,147.41 C92.47,149.43 93.55,149.77 95.01,149.00 C98.65,147.05 98.75,148.05 95.27,151.53 C92.17,154.63 91.82,155.49 92.33,158.67 C92.66,160.66 93.95,163.38 95.21,164.72 L 97.50 167.16 L 94.86 166.50 C93.33,166.12 91.94,166.29 91.55,166.92 ZM 114.00 102.00 C114.00,105.33 113.56,108.00 113.00,108.00 C112.45,108.00 112.00,105.93 112.00,103.40 L 112.00 98.80 L 103.73 99.15 C95.33,99.51 95.21,99.47 90.42,95.13 C89.59,94.38 89.15,93.52 89.45,93.22 C89.74,92.92 90.81,93.43 91.82,94.34 C93.28,95.66 95.75,96.00 103.83,96.00 L 114.00 96.00 ZM 80.91 164.45 C80.36,164.11 79.23,164.40 78.39,165.09 C77.08,166.18 76.96,165.99 77.53,163.75 C78.40,160.26 77.33,157.24 74.95,156.48 C72.41,155.68 72.46,154.31 75.06,153.48 C77.85,152.60 77.07,150.85 72.94,148.75 C71.05,147.79 70.09,147.00 70.82,147.00 C71.54,147.00 73.03,147.48 74.13,148.07 C75.66,148.89 76.71,148.76 78.57,147.55 C80.58,146.23 81.00,146.20 81.00,147.37 C81.00,148.15 80.32,149.05 79.50,149.36 C77.64,150.07 77.59,151.44 79.33,153.19 C80.93,154.79 82.42,165.38 80.91,164.45 ZM 69.50 168.00 C70.41,169.48 67.67,169.21 65.48,167.61 C64.44,166.85 63.00,166.45 62.29,166.72 C61.32,167.09 61.00,165.61 61.00,160.67 C61.00,157.07 60.58,153.03 60.07,151.69 C59.20,149.39 59.28,149.32 61.52,150.38 C62.82,150.99 63.84,152.17 63.79,153.00 C63.54,156.64 64.25,157.74 68.25,159.83 L 72.50 162.05 L 68.89 161.50 C64.36,160.82 62.04,162.90 64.54,165.39 C65.42,166.28 66.76,167.00 67.51,167.00 C68.27,167.00 69.16,167.45 69.50,168.00 ZM 57.07 0.00 L 225.00 0.00 L 171.75 0.13 C136.36,0.22 120.98,0.55 125.91,1.12 C129.98,1.59 133.58,2.26 133.91,2.62 C134.79,3.57 117.81,1.97 115.83,0.91 C114.87,0.39 89.48,0.00 57.07,0.00 ZM 147.91 165.72 C149.84,167.20 148.20,167.34 145.74,165.92 C144.78,165.35 143.54,165.17 142.99,165.50 C142.38,165.89 142.00,163.69 142.00,159.69 C142.00,154.62 141.54,152.67 139.80,150.38 L 137.60 147.50 L 139.76 149.37 C141.28,150.68 142.70,151.04 144.54,150.58 C147.10,149.94 147.13,149.98 145.58,152.18 C142.81,156.14 143.93,162.66 147.91,165.72 ZM 104.99 160.51 C102.66,163.32 98.00,161.64 98.00,158.00 C98.00,153.64 104.55,152.36 105.59,156.51 C105.95,157.95 105.70,159.66 104.99,160.51 ZM 157.02 159.96 C154.90,163.92 149.65,161.95 150.17,157.39 C150.45,154.96 151.01,154.45 153.66,154.19 C156.12,153.96 156.97,154.34 157.47,155.91 C157.82,157.02 157.62,158.84 157.02,159.96 ZM 178.00 21.54 C178.00,23.07 170.38,19.43 169.66,17.55 C169.33,16.70 169.39,16.00 169.80,16.00 C170.73,16.00 178.00,20.91 178.00,21.54 ZM 100.00 158.17 C100.00,159.33 100.73,160.00 102.00,160.00 C104.33,160.00 104.81,156.52 102.60,155.68 C100.84,155.00 100.00,155.81 100.00,158.17 ZM 188.83 160.10 C189.48,161.14 189.64,162.00 189.18,162.00 C186.24,162.00 186.04,154.48 188.95,153.72 C190.82,153.24 190.83,153.33 189.27,155.70 C187.97,157.70 187.88,158.57 188.83,160.10 ZM 152.34 158.43 C152.67,159.29 153.42,160.00 154.00,160.00 C155.62,160.00 156.41,157.01 155.13,155.73 C153.62,154.22 151.50,156.26 152.34,158.43 ZM 89.58 159.13 C90.21,160.15 90.45,160.15 90.79,159.14 C91.27,157.69 90.29,156.37 89.40,157.27 C89.07,157.60 89.15,158.44 89.58,159.13 Z" fill="rgb(210,105,61)"/>
<path d="M 0.00 173.50 L 0.00 59.50 C0.00,98.50 0.34,119.00 1.00,119.00 C1.55,119.00 2.00,119.68 2.00,120.50 C2.00,121.32 1.55,122.00 1.00,122.00 C0.35,122.00 0.00,139.83 0.00,173.50 ZM 110.41 0.54 C110.26,0.61 110.12,0.69 109.97,0.78 C107.62,2.25 103.00,2.39 103.00,1.00 C103.00,0.35 85.17,0.00 51.50,0.00 L 57.07 0.00 C81.03,0.00 101.15,0.22 110.41,0.54 ZM 128.82 0.58 C126.49,0.75 126.37,0.99 127.53,1.32 C127.00,1.25 126.46,1.18 125.91,1.12 C124.08,0.91 125.05,0.73 128.82,0.58 ZM 133.87 2.76 L 134.50 2.90 L 133.57 2.85 C133.71,2.83 133.81,2.80 133.87,2.76 ZM 115.92 0.95 C115.77,0.91 115.63,0.87 115.49,0.83 C115.67,0.86 115.78,0.88 115.83,0.91 C115.86,0.93 115.89,0.94 115.92,0.95 Z" fill="rgb(246,194,167)"/>
<path d="M 110.41 0.54 C113.03,0.63 114.78,0.73 115.49,0.83 C115.63,0.87 115.77,0.91 115.92,0.95 C118.00,1.89 131.19,3.21 133.57,2.85 L 134.50 2.90 L 133.87 2.76 C133.91,2.74 133.94,2.72 133.94,2.69 C136.89,3.49 141.00,4.70 147.75,6.72 C154.84,8.83 162.50,12.27 169.47,16.35 C169.41,16.63 169.47,17.07 169.66,17.55 C170.32,19.27 176.76,22.47 177.85,21.82 C179.66,23.14 181.37,24.50 182.95,25.87 C191.73,33.51 204.00,46.89 204.00,48.82 C204.00,49.38 205.13,51.19 206.51,52.83 C209.17,55.99 217.00,70.96 217.00,72.89 C217.00,73.52 217.43,74.81 217.96,75.76 C219.86,79.17 222.95,92.92 223.61,100.89 C223.98,105.35 224.45,109.00 224.64,109.00 C224.84,109.00 225.00,84.47 225.00,54.50 L 225.00 225.00 L 224.86 169.75 C224.78,134.68 224.43,117.60 223.92,123.00 C223.48,127.68 222.67,133.07 222.12,135.00 C221.56,136.93 220.61,140.71 220.00,143.41 C219.39,146.12 218.01,150.14 216.94,152.35 C215.88,154.56 215.00,156.73 215.00,157.17 C215.00,159.57 199.95,181.63 193.75,188.33 C187.22,195.38 176.13,205.00 174.53,205.00 C174.18,205.00 171.34,206.64 168.20,208.65 C162.10,212.56 151.34,217.37 144.00,219.46 C131.99,222.88 126.96,223.50 111.50,223.44 C98.26,223.39 93.99,222.99 86.76,221.12 C44.31,210.13 12.85,177.67 3.57,135.30 C2.71,131.34 2.00,126.73 2.00,125.05 C2.00,123.37 1.55,122.00 1.00,122.00 C1.55,122.00 2.00,121.32 2.00,120.50 C2.00,119.68 1.55,119.00 1.00,119.00 C1.61,119.00 2.00,114.35 2.00,107.06 C2.00,91.10 5.17,77.54 12.13,63.73 C24.96,38.28 47.74,17.49 73.00,8.19 C81.79,4.95 94.65,2.00 99.96,2.00 C101.63,2.00 103.00,1.55 103.00,1.00 C103.00,2.39 107.62,2.25 109.97,0.78 C110.12,0.69 110.26,0.61 110.41,0.54 ZM 136.31 73.36 C135.65,73.09 135.34,72.27 135.63,71.53 C135.91,70.80 135.20,70.46 132.50,70.35 C138.17,69.82 139.87,69.22 141.67,67.42 C143.50,65.59 143.90,64.40 143.41,62.27 C141.51,54.07 134.24,44.77 127.08,41.37 C125.19,40.47 120.08,39.34 115.73,38.85 C108.00,37.99 107.62,38.05 100.42,41.31 C92.52,44.90 88.27,49.28 84.61,57.64 C81.80,64.05 82.63,77.57 86.32,85.50 C90.06,93.52 91.23,95.42 97.53,95.87 C94.24,95.67 92.80,95.23 91.82,94.34 C90.81,93.43 89.74,92.92 89.45,93.22 C89.15,93.52 89.59,94.38 90.42,95.13 C94.41,98.74 95.16,99.37 100.14,99.28 C98.63,99.44 97.50,99.66 97.12,99.91 C94.86,101.34 96.59,106.91 101.26,113.25 C103.59,116.42 106.72,121.03 108.21,123.50 C109.97,126.42 111.62,128.00 112.92,128.00 C117.15,128.00 142.00,86.00 142.00,78.84 C142.00,77.34 141.44,75.76 140.75,75.33 C140.06,74.90 134.10,74.31 127.50,74.02 L 125.26 73.93 C125.80,73.93 126.36,73.93 126.92,73.92 C132.74,73.88 136.96,73.62 136.31,73.36 ZM 121.65 162.00 C122.29,158.98 122.90,157.18 123.01,158.00 C123.12,158.82 123.31,160.18 123.44,161.00 C123.56,161.82 123.73,163.29 123.83,164.25 C123.92,165.21 124.45,166.00 124.99,166.00 C125.54,166.00 125.80,164.99 125.57,163.75 C125.50,163.36 125.42,162.84 125.36,162.23 C125.57,163.93 125.90,165.31 126.39,166.58 C126.69,167.36 127.54,168.00 128.27,168.00 C130.82,168.00 132.00,165.56 132.00,160.30 C132.00,156.26 132.36,155.00 133.50,155.00 C134.32,155.00 135.03,155.11 135.06,155.25 C135.10,155.39 135.35,157.75 135.62,160.50 C136.32,167.45 136.68,168.18 139.25,167.82 C141.32,167.53 141.52,166.91 141.79,160.25 C141.86,158.53 141.90,157.20 141.88,156.13 C141.96,157.13 142.00,158.29 142.00,159.69 C142.00,163.69 142.38,165.89 142.99,165.50 C143.54,165.17 144.78,165.35 145.74,165.92 C147.88,167.16 149.41,167.21 148.48,166.22 C150.14,167.55 151.76,167.76 156.50,167.29 C159.80,166.96 162.83,166.20 163.23,165.60 C163.32,165.46 163.41,165.17 163.49,164.74 C163.40,165.21 163.31,165.53 163.22,165.68 C162.81,166.33 160.45,167.04 157.98,167.26 L 153.50 167.65 L 158.19 167.83 C160.77,167.92 163.17,167.53 163.53,166.95 C163.98,166.23 164.60,166.25 165.53,167.02 C166.27,167.64 168.14,168.00 169.69,167.82 C172.26,167.53 172.54,167.09 173.00,162.60 C173.83,154.51 178.22,153.61 180.00,161.16 C180.76,164.35 180.80,164.29 180.90,159.72 C180.95,157.22 180.71,155.63 180.02,154.85 C180.72,155.57 181.00,157.03 181.00,159.28 C181.00,163.70 182.31,166.33 185.00,167.32 C188.20,168.51 190.50,167.54 190.80,164.88 C191.01,163.10 190.65,162.27 189.41,161.83 C189.52,161.54 189.31,160.87 188.83,160.10 C187.88,158.57 187.97,157.70 189.27,155.70 C190.82,153.35 190.82,153.24 189.00,153.71 C191.05,153.17 191.91,149.00 189.98,149.00 C189.41,149.00 188.50,147.83 187.96,146.40 C187.12,144.18 186.56,143.89 184.23,144.48 C182.73,144.85 180.69,146.03 179.71,147.08 C178.39,148.49 177.66,148.94 174.27,149.18 C174.94,149.06 175.41,148.92 175.57,148.77 C175.93,148.40 171.34,148.18 165.36,148.27 C159.39,148.36 156.64,148.58 159.25,148.77 L 162.39 148.99 L 160.75 148.99 C158.96,148.98 155.83,148.70 153.80,148.37 C150.58,147.83 149.69,148.16 147.05,150.80 C145.46,152.39 144.49,154.20 144.14,156.08 C144.32,154.66 144.79,153.32 145.58,152.18 C147.13,149.98 147.10,149.94 144.54,150.58 C142.70,151.04 141.28,150.68 139.76,149.37 L 137.60 147.50 L 139.80 150.38 C140.13,150.81 140.41,151.23 140.65,151.66 C140.38,151.31 140.06,150.97 139.68,150.59 C137.52,148.43 136.55,148.21 130.38,148.49 C126.60,148.67 121.59,148.85 119.25,148.91 L 116.85 148.96 L 119.25 148.76 C121.59,148.56 119.36,148.35 114.30,148.29 C109.25,148.23 104.63,147.89 104.05,147.53 C103.47,147.18 103.00,147.36 103.00,147.94 C103.00,148.26 103.58,148.54 104.50,148.73 C99.93,148.65 98.09,148.99 96.31,150.45 C98.68,147.86 98.24,147.27 95.01,149.00 C93.55,149.77 92.47,149.43 90.07,147.41 C87.70,145.41 87.07,145.15 87.01,146.28 C87.00,146.22 87.00,146.16 87.00,146.09 C87.00,143.68 86.98,143.68 83.57,144.98 C82.15,145.51 81.00,146.59 81.00,147.37 C81.00,146.20 80.58,146.23 78.57,147.55 C76.71,148.76 75.66,148.89 74.13,148.07 C73.03,147.48 71.54,147.00 70.82,147.00 C70.23,147.00 70.75,147.52 71.98,148.23 C70.41,147.85 68.75,148.16 66.63,149.12 C64.99,149.87 63.97,150.93 63.54,152.13 C63.16,151.48 62.41,150.80 61.52,150.38 C59.28,149.32 59.20,149.39 60.07,151.69 C60.58,153.03 61.00,157.07 61.00,160.67 C61.00,165.61 61.32,167.09 62.29,166.72 C63.00,166.45 64.44,166.85 65.48,167.61 C67.67,169.21 70.41,169.48 69.50,168.00 C69.41,167.85 69.27,167.70 69.10,167.57 C71.87,168.26 73.89,167.75 75.81,165.96 C76.75,165.09 77.36,164.09 77.68,163.06 C77.63,163.29 77.59,163.52 77.53,163.75 C76.96,165.99 77.08,166.18 78.39,165.09 C79.23,164.40 80.36,164.11 80.91,164.45 C81.63,164.89 81.67,162.73 81.34,160.17 C81.70,162.49 82.39,164.77 83.00,165.50 C83.68,166.32 85.76,167.00 87.62,167.00 C88.41,167.00 89.02,166.97 89.48,166.90 C88.94,167.06 88.22,167.17 87.25,167.27 L 83.50 167.66 L 87.19 167.83 C89.22,167.92 91.18,167.51 91.55,166.92 C91.94,166.29 93.33,166.12 94.86,166.50 L 97.50 167.16 L 95.21 164.72 C94.22,163.67 93.20,161.75 92.66,160.01 C93.24,161.78 94.42,163.87 95.60,165.11 C98.06,167.67 98.83,167.89 104.89,167.70 L 111.50 167.50 L 111.79 158.25 L 112.00 151.41 L 112.00 157.14 C112.00,166.10 113.20,168.21 118.00,167.74 C120.17,167.53 120.65,166.78 121.65,162.00 ZM 40.55 166.91 C41.04,166.13 41.53,166.13 42.31,166.91 C42.91,167.51 44.64,168.00 46.16,168.00 C49.20,168.00 51.39,165.18 50.39,162.57 C49.49,160.23 50.83,156.00 52.47,156.00 C53.48,156.00 54.00,157.54 54.26,161.25 L 54.63 166.50 L 54.82 160.25 C54.92,156.57 54.93,155.05 54.38,154.43 C54.95,155.03 55.00,156.46 55.00,159.80 C55.00,163.05 55.54,166.14 56.23,166.83 C56.91,167.51 58.14,167.92 58.98,167.76 C60.19,167.52 60.50,165.79 60.50,159.15 C60.50,148.95 59.55,147.69 51.17,148.53 C56.50,147.71 55.38,147.05 48.15,147.33 C43.89,147.49 40.86,147.17 40.59,146.55 C40.35,145.97 40.12,150.34 40.08,156.25 L 40.00 167.00 L 40.01 156.75 C40.02,151.11 40.29,145.53 40.61,144.35 C41.25,141.95 38.57,140.46 35.64,141.58 C34.24,142.12 34.00,144.04 34.00,154.61 L 34.00 167.00 L 33.78 154.25 L 33.57 141.50 L 33.25 153.44 C33.08,160.01 33.16,165.97 33.44,166.69 C34.04,168.27 39.61,168.44 40.55,166.91 ZM 100.00 158.17 C100.00,155.81 100.84,155.00 102.60,155.68 C104.81,156.52 104.33,160.00 102.00,160.00 C100.73,160.00 100.00,159.33 100.00,158.17 ZM 152.34 158.43 C151.50,156.26 153.62,154.22 155.13,155.73 C156.41,157.01 155.62,160.00 154.00,160.00 C153.42,160.00 152.67,159.29 152.34,158.43 ZM 89.58 159.13 C89.15,158.44 89.07,157.60 89.40,157.27 C90.29,156.37 91.27,157.69 90.79,159.14 C90.45,160.15 90.21,160.15 89.58,159.13 ZM 119.96 70.47 L 118.50 70.50 L 118.11 64.71 C118.31,67.53 118.50,69.18 119.42,70.08 C119.58,70.23 119.76,70.36 119.96,70.47 ZM 126.85 0.90 C127.00,0.77 127.62,0.67 128.82,0.58 C133.39,0.40 142.05,0.28 154.78,0.20 C138.14,0.33 128.05,0.58 126.85,0.90 ZM 43.50 163.95 C43.79,166.48 44.40,166.60 46.25,166.82 L 43.50 166.50 ZM 63.93 155.88 C64.71,157.33 66.18,158.74 68.32,159.86 L 72.50 162.05 L 68.25 159.83 C65.56,158.42 64.35,157.46 63.93,155.88 ZM 47.27 149.04 C45.40,149.35 43.99,149.71 43.71,149.97 C43.63,150.03 43.56,150.20 43.50,150.46 L 43.50 149.50 ZM 106.95 99.01 L 112.00 98.80 L 112.00 99.00 ZM 93.84 153.02 C92.20,155.02 91.94,156.22 92.34,158.71 C92.34,158.70 92.34,158.68 92.33,158.67 C91.91,156.07 92.07,155.02 93.84,153.02 ZM 77.62 159.61 C77.27,158.58 76.61,157.61 75.68,156.81 C76.63,157.37 77.30,158.36 77.62,159.61 ZM 129.93 1.67 C129.19,1.55 128.38,1.43 127.53,1.32 C127.16,1.21 126.92,1.12 126.84,1.03 C126.88,1.04 126.93,1.06 127.00,1.07 C128.00,1.26 128.92,1.44 129.93,1.67 ZM 81.25 159.49 C80.85,156.84 80.11,153.96 79.33,153.19 C78.35,152.21 77.94,151.34 78.10,150.65 C78.22,150.11 78.68,149.68 79.49,149.37 C78.68,149.68 78.22,150.11 78.10,150.65 C77.94,151.34 78.35,152.21 79.34,153.20 C80.08,153.94 80.93,156.67 81.22,159.27 C81.23,159.35 81.24,159.42 81.25,159.49 ZM 186.89 158.44 C186.69,156.71 187.17,154.80 188.34,154.01 C187.25,154.78 186.77,156.69 186.89,158.44 ZM 145.37 162.66 C145.97,163.70 146.78,164.70 147.78,165.62 C146.79,164.82 145.97,163.80 145.37,162.66 ZM 67.03 166.89 C67.11,166.92 67.18,166.95 67.26,166.98 C66.57,166.86 65.59,166.33 64.82,165.66 C65.37,166.10 66.10,166.52 67.03,166.89 ZM 116.23 55.24 C115.70,55.08 115.37,55.73 115.19,57.59 C115.31,55.63 115.63,55.04 116.21,55.23 C116.22,55.23 116.22,55.24 116.23,55.24 ZM 115.48 72.78 C115.54,73.08 115.60,73.27 115.67,73.33 C115.74,73.41 116.00,73.48 116.42,73.54 L 115.50 73.50 ZM 75.73 153.22 C76.31,152.82 76.62,152.49 76.70,152.14 C76.67,152.56 76.34,152.92 75.73,153.22 ZM 118.06 63.92 L 118.00 63.08 C117.78,59.81 117.40,57.41 116.92,56.17 C117.40,57.39 117.78,59.74 118.00,63.07 C118.02,63.36 118.04,63.65 118.06,63.92 ZM 112.00 103.50 L 112.00 103.40 C112.00,105.93 112.45,108.00 113.00,108.00 C112.45,108.00 112.00,105.97 112.00,103.50 ZM 91.00 164.59 C91.00,163.85 90.83,163.24 90.52,162.76 C90.83,163.23 91.00,163.84 91.00,164.56 ZM 125.09 158.46 C125.09,158.22 125.08,157.98 125.07,157.75 C125.04,156.22 124.93,155.28 124.63,154.73 C124.93,155.28 125.05,156.22 125.08,157.75 C125.08,157.99 125.09,158.23 125.09,158.46 ZM 163.89 160.53 C163.95,159.38 163.98,158.10 163.98,156.80 C163.98,158.10 163.95,159.37 163.89,160.53 ZM 88.39 148.47 C88.58,148.57 88.79,148.65 89.00,148.71 C88.78,148.65 88.58,148.57 88.39,148.47 Z" fill="rgb(251,81,6)"/>
<path d="M 0.00 173.50 C0.00,139.83 0.35,122.00 1.00,122.00 C1.55,122.00 2.00,123.37 2.00,125.05 C2.00,126.73 2.71,131.34 3.57,135.30 C12.85,177.67 44.31,210.13 86.76,221.12 C93.99,222.99 98.26,223.39 111.50,223.44 C126.96,223.50 131.99,222.88 144.00,219.46 C151.34,217.37 162.10,212.56 168.20,208.65 C171.34,206.64 174.18,205.00 174.53,205.00 C176.13,205.00 187.22,195.38 193.75,188.33 C199.95,181.63 215.00,159.57 215.00,157.17 C215.00,156.73 215.88,154.56 216.94,152.35 C218.01,150.14 219.39,146.12 220.00,143.41 C220.61,140.71 221.56,136.93 222.12,135.00 C222.67,133.07 223.48,127.68 223.92,123.00 C224.43,117.60 224.78,134.68 224.86,169.75 L 225.00 225.00 L 112.50 225.00 L 0.00 225.00 L 0.00 173.50 ZM 56.23 166.83 C55.54,166.14 55.00,163.05 55.00,159.80 C55.00,154.35 54.86,154.00 52.61,154.00 C49.71,154.00 49.00,155.61 49.00,162.15 C49.00,167.00 48.92,167.12 46.25,166.82 C43.54,166.50 43.50,166.39 43.21,158.59 C43.04,154.25 43.27,150.36 43.71,149.97 C44.14,149.57 47.21,148.95 50.53,148.60 C59.50,147.64 60.50,148.70 60.50,159.15 C60.50,165.79 60.19,167.52 58.98,167.76 C58.14,167.92 56.91,167.51 56.23,166.83 ZM 67.03 166.89 C61.46,164.66 62.86,160.60 68.89,161.50 L 72.50 162.05 L 68.32 159.86 C62.40,156.76 61.56,151.43 66.63,149.12 C70.19,147.50 72.46,147.73 75.14,149.98 C77.55,152.00 77.37,152.49 73.50,154.48 C72.90,154.79 73.01,155.24 73.77,155.59 C78.33,157.71 79.31,162.70 75.81,165.96 C73.44,168.17 70.91,168.43 67.03,166.89 ZM 95.60 165.11 C94.13,163.57 92.67,160.73 92.35,158.79 C91.88,155.88 92.27,154.73 94.64,152.10 C97.58,148.84 98.89,148.50 107.29,148.82 L 112.08 149.00 L 111.79 158.25 L 111.50 167.50 L 104.89 167.70 C98.83,167.89 98.06,167.67 95.60,165.11 ZM 104.99 160.51 C105.70,159.66 105.95,157.95 105.59,156.51 C104.55,152.36 98.00,153.64 98.00,158.00 C98.00,161.64 102.66,163.32 104.99,160.51 ZM 126.39 166.58 C125.54,164.35 125.16,161.81 125.08,157.75 C125.01,154.69 124.63,154.00 123.00,154.00 C121.90,154.00 120.94,154.45 120.88,155.00 C120.81,155.55 120.64,156.45 120.50,157.00 C120.36,157.55 120.19,160.02 120.12,162.50 C120.01,166.60 119.78,167.00 117.50,167.00 C115.02,167.00 115.00,166.93 115.00,158.00 L 115.00 149.00 L 119.25 148.91 C121.59,148.85 126.60,148.67 130.38,148.49 C136.55,148.21 137.52,148.43 139.68,150.59 C141.85,152.76 142.06,153.71 141.79,160.25 C141.52,166.91 141.32,167.53 139.25,167.82 C136.68,168.18 136.32,167.45 135.62,160.50 C135.35,157.75 135.10,155.39 135.06,155.25 C135.03,155.11 134.32,155.00 133.50,155.00 C132.36,155.00 132.00,156.26 132.00,160.30 C132.00,165.56 130.82,168.00 128.27,168.00 C127.54,168.00 126.69,167.36 126.39,166.58 ZM 148.40 166.15 C143.06,161.75 142.50,155.35 147.05,150.80 C149.69,148.16 150.58,147.83 153.80,148.37 C155.83,148.70 158.96,148.98 160.75,148.99 L 164.00 149.00 L 163.98 156.75 C163.98,161.01 163.64,164.99 163.23,165.60 C162.83,166.20 159.80,166.96 156.50,167.29 C151.68,167.77 150.09,167.54 148.40,166.15 ZM 157.02 159.96 C157.62,158.84 157.82,157.02 157.47,155.91 C156.97,154.34 156.12,153.96 153.66,154.19 C151.01,154.45 150.45,154.96 150.17,157.39 C149.65,161.95 154.90,163.92 157.02,159.96 ZM 185.00 167.32 C182.31,166.33 181.00,163.70 181.00,159.28 C181.00,154.13 179.51,153.17 175.09,155.45 C172.26,156.92 172.00,157.47 172.00,162.09 C172.00,167.00 171.93,167.12 169.25,166.82 L 166.50 166.50 L 166.50 158.00 L 166.50 149.50 L 170.00 149.38 C177.24,149.13 177.97,148.95 179.71,147.08 C180.69,146.03 182.73,144.85 184.23,144.48 C186.56,143.89 187.12,144.18 187.96,146.40 C188.50,147.83 189.41,149.00 189.98,149.00 C191.91,149.00 191.05,153.17 189.00,153.71 C186.09,154.47 186.14,160.96 189.05,161.72 C190.58,162.12 191.03,162.93 190.80,164.88 C190.50,167.54 188.20,168.51 185.00,167.32 ZM 34.00 154.61 C34.00,144.04 34.24,142.12 35.64,141.58 C38.57,140.46 41.25,141.95 40.61,144.35 C40.29,145.53 40.02,151.11 40.01,156.75 L 40.00 167.00 L 37.00 167.00 L 34.00 167.00 L 34.00 154.61 ZM 83.00 165.50 C82.31,164.67 81.51,161.87 81.22,159.27 C80.93,156.67 80.08,153.94 79.34,153.20 C77.59,151.44 77.64,150.07 79.50,149.36 C80.32,149.05 81.00,148.15 81.00,147.37 C81.00,146.59 82.15,145.51 83.57,144.98 C86.98,143.68 87.00,143.68 87.00,146.09 C87.00,147.35 87.80,148.40 89.00,148.71 C90.27,149.04 91.00,150.07 91.00,151.55 C91.00,152.99 90.24,154.11 89.00,154.50 C87.58,154.95 87.00,156.01 87.00,158.16 C87.00,160.35 87.56,161.33 89.00,161.71 C90.29,162.05 91.00,163.07 91.00,164.62 C91.00,166.66 90.51,167.00 87.62,167.00 C85.76,167.00 83.68,166.32 83.00,165.50 ZM 108.21 123.50 C106.72,121.03 103.59,116.42 101.26,113.25 C96.59,106.91 94.86,101.34 97.12,99.91 C97.88,99.42 101.54,99.02 105.25,99.02 L 112.00 99.00 L 112.00 103.50 C112.00,105.97 112.45,108.00 113.00,108.00 C113.56,108.00 114.00,105.33 114.00,102.00 L 114.00 96.00 L 103.67 96.00 C91.66,96.00 91.04,95.62 86.32,85.50 C82.63,77.57 81.80,64.05 84.61,57.64 C88.27,49.28 92.52,44.90 100.42,41.31 C107.62,38.05 108.00,37.99 115.73,38.85 C120.08,39.34 125.19,40.47 127.08,41.37 C134.24,44.77 141.51,54.07 143.41,62.27 C143.90,64.40 143.50,65.59 141.67,67.42 C139.70,69.39 137.86,69.92 130.81,70.50 C118.21,71.55 118.59,71.77 118.00,63.07 C117.68,58.28 117.04,55.51 116.21,55.23 C115.21,54.90 114.99,56.88 115.21,64.15 L 115.50 73.50 L 127.50 74.02 C134.10,74.31 140.06,74.90 140.75,75.33 C141.44,75.76 142.00,77.34 142.00,78.84 C142.00,86.00 117.15,128.00 112.92,128.00 C111.62,128.00 109.97,126.42 108.21,123.50 ZM 0.00 59.50 L 0.00 0.00 L 51.50 0.00 C85.17,0.00 103.00,0.35 103.00,1.00 C103.00,1.55 101.63,2.00 99.96,2.00 C94.65,2.00 81.79,4.95 73.00,8.19 C47.74,17.49 24.96,38.28 12.13,63.73 C5.17,77.54 2.00,91.10 2.00,107.06 C2.00,114.35 1.61,119.00 1.00,119.00 C0.34,119.00 0.00,98.50 0.00,59.50 ZM 223.61 100.89 C222.95,92.92 219.86,79.17 217.96,75.76 C217.43,74.81 217.00,73.52 217.00,72.89 C217.00,70.96 209.17,55.99 206.51,52.83 C205.13,51.19 204.00,49.38 204.00,48.82 C204.00,46.89 191.73,33.51 182.95,25.87 C173.77,17.88 159.93,10.35 147.75,6.72 C134.14,2.65 131.26,1.87 127.00,1.07 C124.25,0.55 142.49,0.18 173.75,0.11 L 225.00 0.00 L 225.00 54.50 C225.00,84.47 224.84,109.00 224.64,109.00 C224.45,109.00 223.98,105.35 223.61,100.89 Z" fill="rgb(253,252,250)"/>
</g>
</svg>