<?xml version="1.0" encoding="UTF-8"?>
<svg version="1.1" xmlns="http://www.w3.org/2000/svg" width="240" height="240">
<path d="M0 0 C2.10927836 0.00052063 4.2185572 -0.00000489 6.32783508 -0.00151062 C10.71383054 -0.00142171 15.0996391 0.00884281 19.4855957 0.02709961 C25.06278351 0.04982579 30.63970036 0.05031418 36.21692181 0.04358196 C40.56077924 0.04021646 44.90457665 0.04691963 49.24842262 0.0567112 C51.30339047 0.06051593 53.35836505 0.06173144 55.4133358 0.06012535 C82.02381243 0.05664492 105.98378012 2.7488586 125.86328125 22.11328125 C145.38481815 42.05996378 146.98289039 67.43478945 146.8515625 93.875 C146.85104187 95.98427836 146.85156739 98.0935572 146.85307312 100.20283508 C146.85298421 104.58883054 146.84271969 108.9746391 146.82446289 113.3605957 C146.80173671 118.93778351 146.80124832 124.51470036 146.80798054 130.09192181 C146.81134604 134.43577924 146.80464287 138.77957665 146.7948513 143.12342262 C146.79104657 145.17839047 146.78983106 147.23336505 146.79143715 149.2883358 C146.79491758 175.89881243 144.1027039 199.85878012 124.73828125 219.73828125 C104.79159872 239.25981815 79.41677305 240.85789039 52.9765625 240.7265625 C50.86728414 240.72604187 48.7580053 240.72656739 46.64872742 240.72807312 C42.26273196 240.72798421 37.8769234 240.71771969 33.4909668 240.69946289 C27.91377899 240.67673671 22.33686214 240.67624832 16.75964069 240.68298054 C12.41578326 240.68634604 8.07198585 240.67964287 3.72813988 240.6698513 C1.67317203 240.66604657 -0.38180255 240.66483106 -2.4367733 240.66643715 C-29.04724993 240.66991758 -53.00721762 237.9777039 -72.88671875 218.61328125 C-92.40825565 198.66659872 -94.00632789 173.29177305 -93.875 146.8515625 C-93.87447937 144.74228414 -93.87500489 142.6330053 -93.87651062 140.52372742 C-93.87642171 136.13773196 -93.86615719 131.7519234 -93.84790039 127.3659668 C-93.82517421 121.78877899 -93.82468582 116.21186214 -93.83141804 110.63464069 C-93.83478354 106.29078326 -93.82808037 101.94698585 -93.8182888 97.60313988 C-93.81448407 95.54817203 -93.81326856 93.49319745 -93.81487465 91.4382267 C-93.81835508 64.82775007 -91.1261414 40.86778238 -71.76171875 20.98828125 C-51.81503622 1.46674435 -26.44021055 -0.13132789 0 0 Z " fill="#3C006A" transform="translate(93.51171875,-0.36328125)"/>
<path d="M0 0 C5.23849894 2.7885975 8.65385716 6.87434198 10.9375 12.27734375 C11.88272065 19.35550772 11.17941075 25.43262633 6.9375 31.27734375 C2.03213071 36.18271304 -3.21038164 37.45843221 -9.9375 37.640625 C-12.96493452 37.12306726 -15.37630504 35.72346291 -18.0625 34.27734375 C-18.11148438 35.26476562 -18.16046875 36.2521875 -18.2109375 37.26953125 C-18.28570312 38.55085938 -18.36046875 39.8321875 -18.4375 41.15234375 C-18.50710937 42.42851562 -18.57671875 43.7046875 -18.6484375 45.01953125 C-19.0625 48.27734375 -19.0625 48.27734375 -21.0625 50.27734375 C-25.61805556 49.72178819 -25.61805556 49.72178819 -27.0625 48.27734375 C-27.16072744 46.80929083 -27.1904837 45.33656915 -27.19189453 43.86523438 C-27.19662277 42.4587262 -27.19662277 42.4587262 -27.20144653 41.02380371 C-27.1994223 40.00403442 -27.19739807 38.98426514 -27.1953125 37.93359375 C-27.19626923 36.89416626 -27.19722595 35.85473877 -27.19821167 34.78381348 C-27.19889363 32.58129821 -27.19703827 30.37878096 -27.19287109 28.17626953 C-27.18752308 24.79194656 -27.19281559 21.40775631 -27.19921875 18.0234375 C-27.19855797 15.88932262 -27.19727681 13.75520783 -27.1953125 11.62109375 C-27.19733673 10.60132446 -27.19936096 9.58155518 -27.20144653 8.53088379 C-27.19829437 7.59321167 -27.19514221 6.65553955 -27.19189453 5.68945312 C-27.19109894 4.85973999 -27.19030334 4.03002686 -27.18948364 3.1751709 C-27.0625 1.27734375 -27.0625 1.27734375 -26.0625 0.27734375 C-23.7243385 0.57492794 -21.39067964 0.90973644 -19.0625 1.27734375 C-16.9879644 1.42641495 -16.9879644 1.42641495 -15.0625 0.27734375 C-10.16025989 -1.35673629 -4.94174935 -1.73148415 0 0 Z " fill="#F25264" transform="translate(131.0625,103.72265625)"/>
<path d="M0 0 C4.8370512 2.20283167 7.70702683 4.98413197 10.74609375 9.3125 C12.58846549 14.83961523 12.7669161 21.12503429 10.98046875 26.703125 C7.829373 32.51711856 2.89887387 35.26785485 -3.25390625 37.3125 C-8.49206873 38.39066459 -12.83902705 37.12700503 -17.42578125 34.58984375 C-21.24433002 31.92175518 -23.76808787 28.76995513 -25.25390625 24.3125 C-25.73145051 18.4488828 -26.11606236 13.13260734 -23.56640625 7.75 C-16.75433401 0.56970764 -9.92026917 -3.02593999 0 0 Z " fill="#F35E60" transform="translate(200.25390625,103.6875)"/>
<path d="M0 0 C2.59136034 1.46444524 4.75526567 3.07167192 6.859375 5.17578125 C6.50643202 8.2542717 5.39328164 10.06885611 3.390625 12.375 C2.90207031 12.94412109 2.41351563 13.51324219 1.91015625 14.09960938 C1.14251953 14.97262695 1.14251953 14.97262695 0.359375 15.86328125 C-0.40826172 16.75370117 -0.40826172 16.75370117 -1.19140625 17.66210938 C-4.78683036 21.82198661 -4.78683036 21.82198661 -6.140625 23.17578125 C-7.80679615 23.21641957 -9.47450595 23.21850225 -11.140625 23.17578125 C-11.91796875 21.0390625 -11.91796875 21.0390625 -12.140625 18.17578125 C-10.26953125 15.28125 -10.26953125 15.28125 -7.703125 12.36328125 C-6.85878906 11.38746094 -6.01445313 10.41164063 -5.14453125 9.40625 C-4.48324219 8.67019531 -3.82195312 7.93414062 -3.140625 7.17578125 C-9.13621879 6.53413476 -9.13621879 6.53413476 -14.078125 9.61328125 C-14.75875 10.45890625 -15.439375 11.30453125 -16.140625 12.17578125 C-16.470625 12.50578125 -16.800625 12.83578125 -17.140625 13.17578125 C-17.49948095 18.55862048 -17.52831335 21.74572726 -14.140625 26.17578125 C-11.76902352 28.54738273 -11.13441378 28.49561477 -7.890625 28.55078125 C-3.23162146 28.49105044 -0.96727574 26.7848613 2.859375 24.17578125 C5.734375 24.92578125 5.734375 24.92578125 7.859375 26.17578125 C7.57286517 29.61389919 7.12504273 30.91749318 4.609375 33.36328125 C-0.81719705 36.93988556 -5.67157815 38.24317398 -12.140625 37.17578125 C-17.66464284 34.73470999 -22.76184862 31.07121165 -25.390625 25.55078125 C-26.7939121 19.23598928 -27.36129039 13.56694411 -24.015625 7.80078125 C-18.55423884 0.12070696 -9.02715421 -3.47578383 0 0 Z " fill="#EE4467" transform="translate(89.140625,103.82421875)"/>
<path d="M0 0 C9.57 0 19.14 0 29 0 C30 5 30 5 28.48046875 7.47265625 C27.72378906 8.32730469 26.96710937 9.18195313 26.1875 10.0625 C24.95773438 11.48175781 24.95773438 11.48175781 23.703125 12.9296875 C23.26419922 13.4256543 22.82527344 13.92162109 22.37304688 14.43261719 C20.00431968 17.13660521 17.72857149 19.91775896 15.4375 22.6875 C14.58266649 23.71276955 13.7272542 24.737557 12.87109375 25.76171875 C12.25363281 26.50035156 11.63617188 27.23898438 11 28 C12.93166016 28.09087891 12.93166016 28.09087891 14.90234375 28.18359375 C16.58074159 28.26798247 18.25912636 28.3526313 19.9375 28.4375 C20.78763672 28.47681641 21.63777344 28.51613281 22.51367188 28.55664062 C23.32255859 28.59853516 24.13144531 28.64042969 24.96484375 28.68359375 C26.08814087 28.73858032 26.08814087 28.73858032 27.23413086 28.79467773 C29 29 29 29 30 30 C30.125 32.5 30.125 32.5 30 35 C27.66283991 37.33716009 21.81167112 36.17162619 18.70117188 36.18554688 C18.0223999 36.18546631 17.34362793 36.18538574 16.64428711 36.18530273 C14.57449736 36.18748734 12.50524207 36.20563491 10.43554688 36.22460938 C9.13810547 36.22654297 7.84066406 36.22847656 6.50390625 36.23046875 C5.30580322 36.23457764 4.1077002 36.23868652 2.87329102 36.24291992 C-0 36 -0 36 -2 34 C-1.73181425 30.11968744 0.56104255 27.81259047 3 24.9375 C4.20462891 23.50277344 4.20462891 23.50277344 5.43359375 22.0390625 C6.28050781 21.03617188 7.12742187 20.03328125 8 19 C9.69532849 16.94378789 11.37854692 14.87807794 13.0625 12.8125 C14.375 11.20833333 15.6875 9.60416667 17 8 C15.86820313 7.95101562 14.73640625 7.90203125 13.5703125 7.8515625 C12.08851661 7.77653486 10.606747 7.70098703 9.125 7.625 C8.37863281 7.5940625 7.63226563 7.563125 6.86328125 7.53125 C1.2265625 7.2265625 1.2265625 7.2265625 -1 5 C-0.67 3.35 -0.34 1.7 0 0 Z " fill="#F14068" transform="translate(29,104)"/>
<path d="M0 0 C2.00720923 0.28674418 4.0085944 0.61866701 6 1 C6 3.97 6 6.94 6 10 C6.78246094 9.98839844 7.56492188 9.97679688 8.37109375 9.96484375 C9.38300781 9.95582031 10.39492187 9.94679688 11.4375 9.9375 C12.44683594 9.92589844 13.45617187 9.91429688 14.49609375 9.90234375 C17 10 17 10 18 11 C18.125 13.5 18.125 13.5 18 16 C17 17 17 17 14.71484375 17.09765625 C13.34005859 17.08025391 13.34005859 17.08025391 11.9375 17.0625 C11.01839844 17.05347656 10.09929687 17.04445313 9.15234375 17.03515625 C8.44207031 17.02355469 7.73179687 17.01195313 7 17 C7.0868803 19.9389507 7.19373767 22.87481289 7.3125 25.8125 C7.33505859 26.64587891 7.35761719 27.47925781 7.38085938 28.33789062 C7.41630859 29.14033203 7.45175781 29.94277344 7.48828125 30.76953125 C7.51446533 31.50792236 7.54064941 32.24631348 7.56762695 33.00708008 C8.1193815 35.55026039 8.95397145 36.4221729 11 38 C13.30988315 38.74386068 15.64315944 39.42190703 18 40 C18.625 41.8125 18.625 41.8125 19 44 C18.34 44.99 17.68 45.98 17 47 C6.78764946 46.35477524 6.78764946 46.35477524 3 43 C-0.85125696 37.27492324 -1.53669429 32.27039597 -1.25 25.5 C-1.23195312 24.67757812 -1.21390625 23.85515625 -1.1953125 23.0078125 C-1.1487283 21.00469196 -1.07700699 19.00218179 -1 17 C-1.78375 17.04125 -2.5675 17.0825 -3.375 17.125 C-6 17 -6 17 -8 15 C-7.46428571 11.46428571 -7.46428571 11.46428571 -6 10 C-4.33382885 9.95936168 -2.66611905 9.957279 -1 10 C-1.01160156 9.36191406 -1.02320313 8.72382812 -1.03515625 8.06640625 C-1.04417969 7.24011719 -1.05320313 6.41382812 -1.0625 5.5625 C-1.07410156 4.73878906 -1.08570313 3.91507812 -1.09765625 3.06640625 C-1 1 -1 1 0 0 Z " fill="#F15064" transform="translate(152,94)"/>
<path d="M0 0 C3.22618733 2.0790985 4.8669302 3.80039529 7 7 C7.79260104 10.93252054 7.77485344 14.5109578 5.90234375 18.109375 C3.33255748 21.42611248 1.54797402 22.82386549 -2.5 24.125 C-6.5921306 23.97885248 -8.65270373 23.35832237 -12 21 C-15.28102593 16.29719617 -15.61595345 12.54358109 -15 7 C-11.20253225 0.76130298 -7.18623113 -0.75644538 0 0 Z " fill="#420269" transform="translate(127,110)"/>
<path d="M0 0 C3.6578218 2.03993908 5.66946174 3.50419262 8 7 C8.78189215 11.7731788 8.41655771 15.22242562 6.125 19.5 C3.98959967 22.01223569 3.21710981 22.85413812 0.01171875 23.23828125 C-4.15410332 23.3713075 -6.37869331 23.38831668 -10 21.125 C-13.59939281 17.30064514 -13.51681052 13.88213379 -13.4765625 8.77734375 C-12.93111485 5.59854638 -12.22656465 4.47241731 -9.875 2.3125 C-6.49240549 -0.03557869 -4.13964126 -0.88077474 0 0 Z " fill="#400269" transform="translate(196,110)"/>
</svg>
