<svg xmlns="http://www.w3.org/2000/svg" width="240" height="240" viewBox="0 0 240 240">
<g>
<path d="M 239.00 76.25 C239.00,79.96 239.23,83.00 239.50,83.00 C239.77,83.00 240.00,64.32 240.00,41.50 L 240.00 240.00 L 0.00 240.00 L 0.00 0.00 L 240.00 0.00 L 194.75 0.15 C161.59,0.26 153.11,0.51 163.00,1.06 C189.12,2.52 201.83,7.27 216.22,20.93 C224.93,29.19 229.57,35.88 233.70,46.12 C236.64,53.40 238.99,66.76 239.00,76.25 ZM 105.75 152.92 C109.93,155.35 111.99,153.25 112.02,146.55 C112.04,139.35 112.90,138.35 117.79,139.82 C123.20,141.44 127.51,141.30 131.30,139.38 C138.70,135.64 142.00,130.19 142.00,121.69 C142.00,108.05 130.02,99.67 117.40,104.48 C114.04,105.77 112.54,105.94 111.72,105.12 C110.25,103.65 106.71,103.69 105.20,105.20 C104.34,106.06 104.00,112.79 104.00,129.15 C104.00,149.76 104.16,152.00 105.75,152.92 ZM 0.15 45.25 C0.26,78.14 0.51,86.87 1.06,77.23 C1.47,69.93 2.57,60.48 3.49,56.23 C7.84,36.19 22.73,17.53 41.50,8.58 C51.21,3.95 61.07,1.92 78.00,1.05 C88.69,0.51 80.35,0.27 46.25,0.16 L 0.00 0.00 ZM 0.15 193.75 L 0.00 240.00 L 41.25 239.86 C70.95,239.76 79.84,239.49 73.00,238.89 C48.71,236.77 32.70,229.62 19.91,215.19 C7.12,200.76 2.34,187.20 1.03,161.66 C0.51,151.49 0.26,160.54 0.15,193.75 ZM 166.94 238.92 C159.46,239.49 168.32,239.76 198.25,239.86 L 240.00 240.00 L 239.85 198.75 C239.76,171.87 239.45,160.87 238.97,167.17 C237.20,190.48 231.69,203.46 217.57,217.57 C203.33,231.82 190.84,237.09 166.94,238.92 ZM 187.79 140.06 C194.88,142.34 205.52,138.74 209.42,132.75 C212.29,128.35 213.35,121.89 212.02,117.02 C210.22,110.43 203.86,104.40 197.73,103.48 C189.30,102.22 182.34,104.92 177.62,111.28 C174.44,115.58 174.07,126.76 176.96,131.44 C179.37,135.33 183.63,138.73 187.79,140.06 ZM 74.50 139.11 C79.01,141.19 82.92,141.46 87.93,140.02 C92.00,138.85 97.00,134.35 97.00,131.85 C97.00,129.27 93.84,127.86 91.32,129.31 C83.32,133.93 83.32,133.93 79.81,132.96 C74.26,131.43 71.50,127.73 71.50,121.84 C71.50,117.45 71.90,116.48 74.77,113.92 C77.99,111.04 82.31,110.08 83.49,111.98 C84.21,113.15 82.58,116.45 79.35,120.33 C78.06,121.88 77.00,123.54 77.00,124.01 C77.00,125.12 79.90,128.00 81.02,128.00 C82.14,128.00 86.94,122.94 92.12,116.30 C96.99,110.05 96.72,108.01 90.64,105.07 C85.56,102.61 80.30,102.43 75.23,104.55 C59.54,111.11 59.09,132.00 74.50,139.11 ZM 28.69 139.36 C29.07,139.74 35.94,139.93 43.94,139.78 C58.40,139.50 58.50,139.48 58.83,137.13 C59.34,133.55 57.58,132.55 49.78,132.00 C45.86,131.73 42.49,131.01 42.30,130.40 C42.10,129.80 45.78,124.85 50.47,119.40 C56.93,111.92 58.95,108.89 58.76,107.00 L 58.50 104.50 L 44.39 104.22 C32.99,104.00 30.06,104.23 29.08,105.41 C28.17,106.50 28.14,107.40 28.97,108.94 C29.87,110.63 31.04,111.00 35.45,111.00 C41.18,111.00 44.00,111.68 44.00,113.06 C44.00,114.28 40.36,119.45 33.75,127.62 C28.43,134.18 26.95,137.62 28.69,139.36 ZM 162.50 140.28 C166.37,141.22 168.77,140.99 169.96,139.55 C172.05,137.03 170.71,134.57 166.49,133.23 C160.24,131.23 159.00,129.04 159.00,120.00 C159.00,111.45 159.33,111.00 165.46,111.00 C169.32,111.00 171.43,108.93 170.52,106.05 C169.98,104.35 169.03,104.00 164.95,104.00 C159.77,104.00 159.76,103.99 158.79,97.61 C158.63,96.57 157.71,95.22 156.75,94.61 C154.05,92.91 151.58,95.06 151.00,99.60 C150.61,102.65 150.03,103.57 148.32,103.81 C143.15,104.55 143.26,110.10 148.47,111.40 C150.93,112.02 151.00,112.28 151.00,120.57 C151.00,126.19 151.51,130.09 152.50,132.00 C154.15,135.19 159.38,139.52 162.50,140.28 ZM 127.47 132.58 C123.38,134.28 123.33,134.28 119.33,132.54 C112.96,129.77 110.44,122.25 113.97,116.54 C116.69,112.14 118.73,111.00 123.88,111.00 C129.58,111.00 133.04,114.21 133.71,120.12 C134.38,126.02 132.05,130.66 127.47,132.58 ZM 201.75 129.46 C197.12,134.76 189.76,134.33 185.17,128.48 C181.48,123.80 182.70,116.41 187.84,112.25 C188.69,111.56 191.36,111.00 193.77,111.00 C197.28,111.00 198.73,111.58 201.08,113.92 C203.53,116.38 204.00,117.65 204.00,121.87 C204.00,125.65 203.44,127.53 201.75,129.46 ZM 0.08 92.42 C0.04,93.47 0.27,94.06 0.60,93.73 C0.94,93.40 0.97,92.53 0.68,91.81 C0.36,91.01 0.13,91.25 0.08,92.42 Z" fill="rgb(59,0,104)"/>
<path d="M 57.46 133.45 L 38.50 132.50 L 44.06 126.50 C46.30,124.08 48.25,121.93 49.93,120.03 C45.50,125.22 42.10,129.82 42.30,130.40 C42.49,131.01 45.86,131.73 49.78,132.00 C53.71,132.28 56.11,132.67 57.46,133.45 ZM 40.61 111.28 L 47.16 111.50 L 37.58 123.00 C30.00,132.11 27.40,136.25 28.13,138.47 C27.48,136.53 29.22,133.21 33.75,127.62 C40.36,119.45 44.00,114.28 44.00,113.06 C44.00,112.19 42.88,111.60 40.61,111.28 ZM 75.56 113.26 C79.41,110.01 84.20,108.90 85.50,111.00 C85.84,111.55 84.06,114.51 81.56,117.59 C79.06,120.65 77.01,123.54 77.00,124.02 L 77.00 124.01 C77.00,123.54 78.06,121.88 79.35,120.33 C82.58,116.45 84.21,113.15 83.49,111.98 C82.41,110.23 78.67,110.90 75.56,113.26 ZM 0.16 192.67 C0.27,160.35 0.52,151.60 1.03,161.66 C1.59,172.44 2.76,181.08 4.88,188.55 C2.97,181.95 1.79,174.46 1.11,165.50 C0.53,157.73 0.27,164.70 0.16,192.67 ZM 62.79 2.41 C66.67,1.80 70.81,1.35 75.23,1.05 C83.07,0.52 73.34,0.25 43.25,0.15 L 0.00 0.00 L 46.25 0.16 C80.35,0.27 88.69,0.51 78.00,1.05 C72.19,1.35 67.21,1.78 62.79,2.41 ZM 193.51 0.16 C165.66,0.27 157.89,0.53 165.53,1.08 C174.20,1.71 181.38,2.75 187.67,4.43 C180.82,2.63 172.87,1.61 163.00,1.06 C153.23,0.51 161.38,0.27 193.51,0.16 ZM 0.16 47.06 C0.27,75.26 0.52,82.30 1.11,74.50 C1.45,69.98 1.91,65.86 2.53,62.04 C1.90,66.63 1.33,72.40 1.06,77.23 C0.52,86.69 0.27,78.45 0.16,47.06 ZM 6.81 45.64 C9.36,39.07 12.86,33.35 17.59,27.62 C24.55,19.18 32.02,13.07 41.01,8.82 C25.82,16.22 13.23,29.98 6.81,45.64 ZM 58.50 104.50 L 58.65 105.94 C58.14,104.52 56.23,104.46 44.40,104.22 ZM 0.08 92.42 C0.13,91.25 0.36,91.01 0.68,91.81 C0.97,92.53 0.94,93.40 0.60,93.73 C0.27,94.06 0.04,93.47 0.08,92.42 ZM 58.50 138.36 L 58.50 134.42 C58.93,135.10 59.00,135.99 58.83,137.13 C58.76,137.65 58.70,138.05 58.50,138.36 ZM 28.95 108.91 C29.65,110.20 30.55,110.71 33.98,110.98 C30.76,110.89 29.76,110.42 28.97,108.94 ZM 28.43 107.58 C28.26,106.78 28.47,106.14 29.08,105.41 C28.48,106.13 28.26,106.78 28.43,107.58 Z" fill="rgb(129,26,95)"/>
<path d="M 105.75 152.92 C104.16,152.00 104.00,149.76 104.00,129.15 C104.00,112.79 104.34,106.06 105.20,105.20 C106.71,103.69 110.25,103.65 111.72,105.12 C112.54,105.94 114.04,105.77 117.40,104.48 C130.02,99.67 142.00,108.05 142.00,121.69 C142.00,130.19 138.70,135.64 131.30,139.38 C127.51,141.30 123.20,141.44 117.79,139.82 C112.90,138.35 112.04,139.35 112.02,146.55 C111.99,153.25 109.93,155.35 105.75,152.92 ZM 187.79 140.06 C183.63,138.73 179.37,135.33 176.96,131.44 C174.07,126.76 174.44,115.58 177.62,111.28 C182.34,104.92 189.30,102.22 197.73,103.48 C203.86,104.40 210.22,110.43 212.02,117.02 C213.35,121.89 212.29,128.35 209.42,132.75 C205.52,138.74 194.88,142.34 187.79,140.06 ZM 74.50 139.11 C59.09,132.00 59.54,111.11 75.23,104.55 C80.30,102.43 85.56,102.61 90.64,105.07 C96.72,108.01 96.99,110.05 92.12,116.30 C86.94,122.94 82.14,128.00 81.02,128.00 L 81.02 128.00 C80.48,128.00 79.53,127.33 78.68,126.51 C77.78,125.64 77.01,124.60 77.00,124.02 C77.01,123.54 79.06,120.65 81.56,117.59 C84.06,114.51 85.84,111.55 85.50,111.00 C84.20,108.90 79.41,110.01 75.56,113.26 C75.29,113.47 75.03,113.69 74.77,113.92 C71.90,116.48 71.50,117.45 71.50,121.84 C71.50,127.73 74.26,131.43 79.81,132.96 C83.32,133.93 83.32,133.93 91.32,129.31 C93.84,127.86 97.00,129.27 97.00,131.85 C97.00,134.35 92.00,138.85 87.93,140.02 C82.92,141.46 79.01,141.19 74.50,139.11 ZM 28.69 139.36 C28.43,139.10 28.25,138.81 28.13,138.47 C27.40,136.25 30.00,132.11 37.58,123.00 L 47.16 111.50 L 40.61 111.28 C39.29,111.09 37.57,111.00 35.45,111.00 C34.92,111.00 34.43,110.99 33.98,110.98 C30.55,110.71 29.65,110.20 28.95,108.91 L 28.95 108.91 C28.69,108.41 28.51,107.98 28.43,107.58 C28.26,106.78 28.48,106.13 29.08,105.41 C30.06,104.23 32.99,104.00 44.39,104.22 L 44.40 104.22 C56.23,104.46 58.14,104.52 58.65,105.94 L 58.76 107.00 C58.95,108.89 56.93,111.92 50.47,119.40 C50.29,119.61 50.11,119.82 49.93,120.03 C48.25,121.93 46.30,124.08 44.06,126.50 L 38.50 132.50 L 48.50 133.00 L 57.46 133.45 C57.92,133.72 58.27,134.04 58.50,134.42 L 58.50 138.36 C57.78,139.50 55.25,139.56 43.94,139.78 C35.94,139.93 29.07,139.74 28.69,139.36 ZM 162.50 140.28 C159.38,139.52 154.15,135.19 152.50,132.00 C151.51,130.09 151.00,126.19 151.00,120.57 C151.00,112.28 150.93,112.02 148.47,111.40 C143.26,110.10 143.15,104.55 148.32,103.81 C150.03,103.57 150.61,102.65 151.00,99.60 C151.58,95.06 154.05,92.91 156.75,94.61 C157.71,95.22 158.63,96.57 158.79,97.61 C159.76,103.99 159.77,104.00 164.95,104.00 C169.03,104.00 169.98,104.35 170.52,106.05 C171.43,108.93 169.32,111.00 165.46,111.00 C159.33,111.00 159.00,111.45 159.00,120.00 C159.00,129.04 160.24,131.23 166.49,133.23 C170.71,134.57 172.05,137.03 169.96,139.55 C168.77,140.99 166.37,141.22 162.50,140.28 ZM 127.47 132.58 C132.05,130.66 134.38,126.02 133.71,120.12 C133.04,114.21 129.58,111.00 123.88,111.00 C118.73,111.00 116.69,112.14 113.97,116.54 C110.44,122.25 112.96,129.77 119.33,132.54 C123.33,134.28 123.38,134.28 127.47,132.58 ZM 201.75 129.46 C203.44,127.53 204.00,125.65 204.00,121.87 C204.00,117.65 203.53,116.38 201.08,113.92 C198.73,111.58 197.28,111.00 193.77,111.00 C191.36,111.00 188.69,111.56 187.84,112.25 C182.70,116.41 181.48,123.80 185.17,128.48 C189.76,134.33 197.12,134.76 201.75,129.46 ZM 193.51 0.16 C193.88,0.16 194.24,0.15 194.61,0.15 C169.73,0.26 162.26,0.54 168.00,1.12 C172.93,1.62 177.34,2.23 181.37,3.01 C183.58,3.42 185.67,3.89 187.67,4.43 C198.96,7.38 207.26,12.43 216.22,20.93 C206.54,11.74 197.62,6.66 184.57,3.68 C183.53,3.45 182.47,3.22 181.37,3.01 C176.65,2.13 171.43,1.51 165.53,1.08 C157.89,0.53 165.66,0.27 193.51,0.16 ZM 62.79 2.41 C61.81,2.55 60.85,2.70 59.92,2.86 C63.69,2.13 67.70,1.55 72.00,1.12 C77.53,0.56 70.78,0.28 48.05,0.17 C74.36,0.28 82.64,0.55 75.23,1.05 C70.81,1.35 66.67,1.80 62.79,2.41 ZM 0.44 166.28 C0.59,161.40 0.80,161.44 1.11,165.50 C1.79,174.46 2.97,181.95 4.88,188.55 C5.57,190.98 6.37,193.29 7.27,195.50 C4.32,188.91 2.97,182.90 1.52,170.50 C0.95,165.60 0.63,163.34 0.44,166.28 ZM 39.05 230.18 C48.35,234.93 59.37,237.70 73.00,238.89 C58.41,237.62 48.19,235.09 39.05,230.18 ZM 0.44 73.72 C0.63,76.66 0.95,74.40 1.52,69.50 C1.66,68.31 1.81,67.08 1.98,65.85 C1.63,68.57 1.34,71.44 1.11,74.50 C0.80,78.56 0.59,78.60 0.44,73.72 ZM 6.81 45.64 C5.39,49.09 4.27,52.64 3.49,56.23 C3.40,56.62 3.32,57.06 3.23,57.54 C3.52,55.84 3.79,54.42 4.02,53.50 C4.71,50.64 5.92,47.36 7.47,44.00 C7.24,44.54 7.02,45.08 6.81,45.64 ZM 2.29 63.60 C2.42,62.64 2.56,61.69 2.70,60.79 C2.64,61.19 2.58,61.61 2.53,62.04 C2.44,62.56 2.36,63.07 2.29,63.60 Z" fill="rgb(228,83,116)"/>
<path d="M 0.12 199.75 C0.23,161.60 0.30,160.07 1.52,170.50 C3.08,183.84 4.52,189.78 7.97,197.00 C13.47,208.55 20.38,217.11 30.12,224.43 C41.86,233.25 53.54,237.19 73.00,238.89 C79.84,239.49 70.95,239.76 41.25,239.86 L 0.00 240.00 L 0.12 199.75 ZM 166.94 238.92 C190.84,237.09 203.33,231.82 217.57,217.57 C231.69,203.46 237.20,190.48 238.97,167.17 C239.45,160.87 239.76,171.87 239.85,198.75 L 240.00 240.00 L 198.25 239.86 C168.32,239.76 159.46,239.49 166.94,238.92 ZM 239.00 76.25 C238.99,66.76 236.64,53.40 233.70,46.12 C229.57,35.88 224.93,29.19 216.22,20.93 C202.94,8.32 191.07,3.45 168.00,1.12 C161.88,0.51 170.77,0.23 199.75,0.13 L 240.00 0.00 L 240.00 41.50 C240.00,64.32 239.77,83.00 239.50,83.00 C239.23,83.00 239.00,79.96 239.00,76.25 ZM 0.12 40.25 L 0.00 0.00 L 40.25 0.13 C69.21,0.23 78.12,0.51 72.00,1.12 C46.57,3.68 31.13,11.20 17.59,27.62 C11.58,34.90 5.90,45.73 4.02,53.50 C3.35,56.25 2.23,63.45 1.52,69.50 C0.30,79.93 0.23,78.40 0.12,40.25 Z" fill="rgb(252,250,252)"/>
</g>
</svg>